<svg xmlns="http://www.w3.org/2000/svg" width="30" height="30" viewBox="0 0 30 30">
  <defs>
    <style>
      .cls-1, .cls-3 {
        fill: none;
      }

      .cls-1 {
        stroke: #262626;
      }

      .cls-2 {
        stroke: none;
      }
    </style>
  </defs>
  <g id="Incidence_Management" data-name="Incidence Management" transform="translate(-967 -257)">
    <g id="Rectangle_724" data-name="Rectangle 724" class="cls-1" transform="translate(967 257)">
      <rect class="cls-2" width="30" height="30" rx="15"/>
      <rect class="cls-3" x="0.5" y="0.5" width="29" height="29" rx="14.5"/>
    </g>
    <g id="noun_Certificate_426773" transform="translate(960 263.397)">
      <path id="Path_873" data-name="Path 873" d="M22.367,4.789A1.923,1.923,0,1,0,24.29,6.712,1.925,1.925,0,0,0,22.367,4.789Zm.145,2.424-.435.435-.435-.435-.422-.422.435-.435.422.422,1-1,.435.435Zm3.7-1.041a.552.552,0,0,1-.145-.619l.079-.2a.544.544,0,0,0-.356-.738l-.211-.053a.55.55,0,0,1-.4-.5V3.841a.545.545,0,0,0-.632-.514l-.211.04a.521.521,0,0,1-.566-.277l-.105-.184a.543.543,0,0,0-.79-.184l-.171.119a.555.555,0,0,1-.632,0l-.171-.132a.548.548,0,0,0-.8.184L21,3.077a.548.548,0,0,1-.58.277l-.211-.04a.557.557,0,0,0-.645.514l-.013.211a.55.55,0,0,1-.4.5l-.211.066a.544.544,0,0,0-.356.738l.079.2a.552.552,0,0,1-.145.619l-.158.145a.538.538,0,0,0,0,.817l.158.145a.552.552,0,0,1,.145.619l-.079.2a.544.544,0,0,0,.356.738l.211.053a.55.55,0,0,1,.4.5l.013.211a.545.545,0,0,0,.632.514l.211-.04a.521.521,0,0,1,.566.277l.105.184a.543.543,0,0,0,.79.184l.171-.119a.555.555,0,0,1,.632,0l.171.132a.548.548,0,0,0,.8-.184l.105-.184a.548.548,0,0,1,.58-.277l.211.04a.557.557,0,0,0,.645-.514l.013-.211a.55.55,0,0,1,.4-.5l.211-.053a.544.544,0,0,0,.356-.738l-.079-.2a.552.552,0,0,1,.145-.619l.158-.145a.538.538,0,0,0,0-.817ZM22.367,9.386a2.661,2.661,0,1,1,2.661-2.661A2.662,2.662,0,0,1,22.367,9.386Zm-4.136,4.637L19.522,10.8a1.374,1.374,0,0,0,.566.132,1.452,1.452,0,0,0,.237-.026h.026l.013.026a1.335,1.335,0,0,0,1.185.685,1.308,1.308,0,0,0,.4-.066l-1.357,3.412a.129.129,0,0,1-.237.013l-.645-1.133a.088.088,0,0,0-.105-.04l-1.212.382A.122.122,0,0,1,18.231,14.023ZM24.145,15l-1.37-3.425a1.38,1.38,0,0,0,.4.066,1.337,1.337,0,0,0,1.185-.7l.013-.026H24.4a1.452,1.452,0,0,0,.237.026,1.436,1.436,0,0,0,.58-.132L26.5,14.062a.127.127,0,0,1-.158.171l-1.212-.382a.088.088,0,0,0-.105.04l-.645,1.133A.143.143,0,0,1,24.145,15Z"/>
    </g>
  </g>
</svg>
