<svg xmlns="http://www.w3.org/2000/svg" width="30" height="30" viewBox="0 0 30 30">
  <defs>
    <style>
      .cls-1, .cls-3 {
        fill: none;
      }

      .cls-1 {
        stroke: #262626;
      }

      .cls-2 {
        stroke: none;
      }
    </style>
  </defs>
  <g id="branch" transform="translate(-781 -257)">
    <g id="Rectangle_724" data-name="Rectangle 724" class="cls-1" transform="translate(781 257)">
      <rect class="cls-2" width="30" height="30" rx="15"/>
      <rect class="cls-3" x="0.5" y="0.5" width="29" height="29" rx="14.5"/>
    </g>
    <g id="noun_examination_967955" transform="translate(791.502 269.762)">
      <g id="Group_98" data-name="Group 98" transform="translate(0 -4.506)">
        <ellipse id="Ellipse_38" data-name="Ellipse 38" cx="1.511" cy="1.511" rx="1.511" ry="1.511" transform="translate(3.058 2.944) rotate(-76.891)"/>
        <path id="Path_863" data-name="Path 863" d="M64.24,113.871l.739,3.014a.84.84,0,1,0,1.631-.4l-.9-3.654a.838.838,0,0,0-.816-.64h-1.03l-1.311,1.68H64.24Z" transform="translate(-58.355 -104.35)"/>
        <path id="Path_864" data-name="Path 864" d="M26.733,50.623H26.1a9.068,9.068,0,0,1,.139-1.455,2.555,2.555,0,0,1-.83-.675,2.475,2.475,0,0,1-.5-1.05v-.007a.674.674,0,0,1,.552-.777.681.681,0,0,1,.111-.009.671.671,0,0,1,.661.554v.006c0,.007.006.026.014.05a1.186,1.186,0,0,0,.092.216,1.238,1.238,0,0,0,.182.251c.139-.645-.116-1.37-.659-1.506a1.538,1.538,0,0,0-1.743,1.152,7.424,7.424,0,0,0-.382,3.73,1.287,1.287,0,0,0,1.31,1.179.837.837,0,0,0,.179.02h.192Z" transform="translate(-22.071 -42.782)"/>
        <path id="Path_865" data-name="Path 865" d="M8.71,71.8H5.116a.336.336,0,1,0,0,.672h.064l-1.95,2.5H1.814a.424.424,0,0,1-.209-.043.243.243,0,0,1-.108-.122.328.328,0,0,1-.019-.058l0-.012h0l0-.027L.666,70.368a.336.336,0,0,0-.661.123l.8,4.338a.962.962,0,0,0,.153.4.9.9,0,0,0,.32.293,1.051,1.051,0,0,0,.422.12L.585,78.289a.2.2,0,1,0,.371.157l1.185-2.8H4.2l1.185,2.8a.2.2,0,1,0,.371-.157L4.642,75.648h.577a.336.336,0,0,0,0-.672H3.74l1.95-2.5H8.71a.336.336,0,0,0,0-.672Z" transform="translate(0 -65.081)"/>
        <path id="Path_866" data-name="Path 866" d="M97.006,68.037l-.21.167.155.195c.092-.023.187-.048.283-.076Z" transform="translate(-90.292 -63.163)"/>
        <path id="Path_867" data-name="Path 867" d="M112.933,88.267l-.007-.017-.156-.383-.21.167.306.216.047.033Z" transform="translate(-104.997 -81.66)"/>
        <path id="Path_868" data-name="Path 868" d="M46.834,57.641a5.829,5.829,0,0,0,1.644-.266.537.537,0,0,0-.3-1.031,4.771,4.771,0,0,1-1.339.222,2.048,2.048,0,0,1-.906-.181,1.324,1.324,0,0,1-.6-.567,1.338,1.338,0,0,1-.1-.24c-.009-.029-.014-.051-.017-.063l0-.01h0a.537.537,0,0,0-1.059.182,2.322,2.322,0,0,0,.473,1,2.406,2.406,0,0,0,.837.665,3.117,3.117,0,0,0,1.37.289Z" transform="translate(-41.176 -51.06)"/>
      </g>
    </g>
  </g>
</svg>
