<svg xmlns="http://www.w3.org/2000/svg" width="72.141" height="28" viewBox="0 0 72.141 28">
  <defs>
    <style>
      .cls-1 {
        fill: #3c3c3d;
      }

      .cls-2 {
        fill: #ce001c;
      }
    </style>
  </defs>
  <g id="Group_123" data-name="Group 123" transform="translate(-379 -749.778)">
    <path id="Path_905" data-name="Path 905" class="cls-1" d="M307.117,358.031v-2.489h-12c-3.307,0-5,1.486-5,4.643v17.457c0,2.377,1.474,3.492,3.63,3.492h3.306v-9.658H302.7a2.983,2.983,0,0,0,2.947-3.194s-.036-1.189,0-2.192H296.91v-4.754h6.613a3.4,3.4,0,0,0,3.594-3.306Z" transform="translate(88.882 396.069)"/>
    <path id="Path_906" data-name="Path 906" class="cls-1" d="M366.338,373.5v-2.445h-1.509c-1.9,0-2.875-.556-2.875-2.371V353.9c0-3.446-1.438-4.854-4.421-4.854h-2.408v20.673c0,4.816,3.127,7.039,6.757,7.039,2.156,0,4.457-.778,4.457-3.26Z" transform="translate(42.891 400.73)"/>
    <path id="Path_907" data-name="Path 907" class="cls-1" d="M416.584,379.02c0-5.031-4.025-7.942-9.2-7.942-6.11,0-10.171,4.887-10.171,10.889,0,5.462,3.594,10.062,10.422,10.062,5.642,0,7.691-2.264,7.691-4.779v-1.581h-.252c-1.114.755-3.091,1.258-6.253,1.258-2.839,0-4.457-.934-4.852-2.911h2.947c6.685,0,9.668-1.042,9.668-5Zm-6.325-.755c0,.862-.575,1.366-3.81,1.366H403.79c.18-1.9,1.186-3.45,3.594-3.45,1.977,0,2.875,1.078,2.875,2.084Z" transform="translate(13.291 385.749)"/>
    <path id="Path_908" data-name="Path 908" class="cls-2" d="M471.51,394.588c-2.372,0-3.917-1.15-3.917-3.27,1.977-.539,2.659-1.042,4.816-4.061l1.761-2.48c-1.114-1.222-2.192-2.3-2.983-3.306-1.438-1.8-2.048-3.27-2.048-4.349a2.47,2.47,0,0,1,2.731-2.48h2.336c.144,1.473.935,2.947,3.414,5.642.288-.4.863-1.222,1.474-2.085a18.107,18.107,0,0,1,1.833-2.264,4.153,4.153,0,0,1,2.911-1.294H487.5a6.482,6.482,0,0,1-1.006,3.378c-1.258,2.048-2.731,3.881-4.169,5.822l1.222,1.222c2.875,2.875,3.845,4.779,3.845,7.008a2.538,2.538,0,0,1-2.7,2.336h-2.767c-.288-2.48-1.186-3.953-3.019-5.93-.539.755-1.042,1.545-1.581,2.3-1.473,2.085-2.983,3.809-5.822,3.809Z" transform="translate(-36.362 383.19)"/>
  </g>
</svg>
