<svg xmlns="http://www.w3.org/2000/svg" width="30" height="30" viewBox="0 0 30 30">
  <defs>
    <style>
      .cls-1, .cls-3 {
        fill: none;
      }

      .cls-1 {
        stroke: #262626;
      }

      .cls-2 {
        stroke: none;
      }
    </style>
  </defs>
  <g id="Performance_Dashboard" data-name="Performance Dashboard" transform="translate(-856 -257)">
    <g id="Rectangle_724" data-name="Rectangle 724" class="cls-1" transform="translate(856 257)">
      <rect class="cls-2" width="30" height="30" rx="15"/>
      <rect class="cls-3" x="0.5" y="0.5" width="29" height="29" rx="14.5"/>
    </g>
    <g id="noun_service_center_2111707" data-name="noun_service center_2111707" transform="translate(859 260)">
      <g id="Group_107" data-name="Group 107" transform="translate(6 6)">
        <g id="Group_106" data-name="Group 106">
          <path id="Path_901" data-name="Path 901" d="M7.333,15.333h1A.358.358,0,0,0,8.667,15V11.333A.358.358,0,0,0,8.333,11H8v-.333a4.012,4.012,0,0,1,4-4,3.983,3.983,0,0,1,4,4V11h-.333a.358.358,0,0,0-.333.333V15a.358.358,0,0,0,.333.333h.3A2.005,2.005,0,0,1,14,17h-.7a.823.823,0,0,0-.8-.667h-1A.833.833,0,1,0,11.5,18h1a.87.87,0,0,0,.667-.333H14a2.664,2.664,0,0,0,2.633-2.333h.033A1.337,1.337,0,0,0,18,14V12.333A1.337,1.337,0,0,0,16.667,11v-.333a4.667,4.667,0,0,0-9.333,0V11A1.337,1.337,0,0,0,6,12.333V14A1.337,1.337,0,0,0,7.333,15.333Z" transform="translate(-6 -6)"/>
          <path id="Path_902" data-name="Path 902" d="M20.684,32.35a1.989,1.989,0,0,0,1.6-.8.333.333,0,0,0-.533-.4,1.333,1.333,0,0,1-2.133,0,.333.333,0,1,0-.533.4A1.989,1.989,0,0,0,20.684,32.35Z" transform="translate(-14.684 -22.684)"/>
        </g>
      </g>
    </g>
  </g>
</svg>
