<svg xmlns="http://www.w3.org/2000/svg" width="30" height="30" viewBox="0 0 30 30">
  <defs>
    <style>
      .cls-1, .cls-3 {
        fill: none;
      }

      .cls-1 {
        stroke: #262626;
      }

      .cls-2 {
        stroke: none;
      }
    </style>
  </defs>
  <g id="Report" transform="translate(-893 -257)">
    <g id="Rectangle_724" data-name="Rectangle 724" class="cls-1" transform="translate(893 257)">
      <rect class="cls-2" width="30" height="30" rx="15"/>
      <rect class="cls-3" x="0.5" y="0.5" width="29" height="29" rx="14.5"/>
    </g>
    <g id="noun_client_survey_2122610" data-name="noun_client survey_2122610" transform="translate(901 265)">
      <g id="Group_104" data-name="Group 104" transform="translate(1 1)">
        <path id="Path_874" data-name="Path 874" d="M2.819,1A1.819,1.819,0,1,0,4.639,2.819,1.821,1.821,0,0,0,2.819,1Zm0,3.282A1.463,1.463,0,1,1,4.282,2.819,1.465,1.465,0,0,1,2.819,4.282Z" transform="translate(-1 -1)"/>
        <path id="Path_875" data-name="Path 875" d="M12.406,6.9h-.319a.188.188,0,0,0-.188.188.177.177,0,0,0,.188.188h.319a.188.188,0,1,0,0-.375Z" transform="translate(-9.856 -5.793)"/>
        <path id="Path_876" data-name="Path 876" d="M6.494,7.088A.188.188,0,0,0,6.306,6.9H5.988a.188.188,0,0,0-.188.188.177.177,0,0,0,.188.188h.319A.177.177,0,0,0,6.494,7.088Z" transform="translate(-4.9 -5.793)"/>
        <path id="Path_877" data-name="Path 877" d="M2.819,23.3a1.819,1.819,0,1,0,1.819,1.819A1.809,1.809,0,0,0,2.819,23.3Zm0,3.282a1.463,1.463,0,1,1,1.463-1.463A1.465,1.465,0,0,1,2.819,26.582Z" transform="translate(-1 -19.118)"/>
        <path id="Path_878" data-name="Path 878" d="M12.406,29.3h-.319a.188.188,0,0,0-.188.188.177.177,0,0,0,.188.188h.319a.188.188,0,1,0,0-.375Z" transform="translate(-9.856 -23.992)"/>
        <path id="Path_879" data-name="Path 879" d="M6.494,29.388a.188.188,0,0,0-.188-.188H5.988a.188.188,0,0,0-.188.188.177.177,0,0,0,.188.188h.319A.177.177,0,0,0,6.494,29.388Z" transform="translate(-4.9 -23.911)"/>
        <path id="Path_880" data-name="Path 880" d="M8.138,34.8H7.088a.188.188,0,1,0,0,.375h1.05a.188.188,0,0,0,.188-.188A.2.2,0,0,0,8.138,34.8Z" transform="translate(-5.793 -28.461)"/>
        <path id="Path_881" data-name="Path 881" d="M2.819,45.6a1.819,1.819,0,1,0,1.819,1.819A1.809,1.809,0,0,0,2.819,45.6Zm0,3.282a1.463,1.463,0,1,1,1.463-1.463A1.465,1.465,0,0,1,2.819,48.882Z" transform="translate(-1 -37.235)"/>
        <path id="Path_882" data-name="Path 882" d="M12.406,51.6h-.319a.188.188,0,0,0-.188.188.177.177,0,0,0,.188.188h.319a.188.188,0,1,0,0-.375Z" transform="translate(-9.856 -42.11)"/>
        <path id="Path_883" data-name="Path 883" d="M6.494,51.688a.188.188,0,0,0-.188-.188H5.988a.188.188,0,0,0-.188.188.177.177,0,0,0,.188.188h.319A.177.177,0,0,0,6.494,51.688Z" transform="translate(-4.9 -42.028)"/>
        <path id="Path_884" data-name="Path 884" d="M7,57.364a.188.188,0,1,0,.225.3.589.589,0,0,1,.825,0,.267.267,0,0,0,.113.038.171.171,0,0,0,.15-.075.2.2,0,0,0-.038-.263A.97.97,0,0,0,7,57.364Z" transform="translate(-5.814 -46.598)"/>
        <path id="Path_885" data-name="Path 885" d="M8.046,12.558a.589.589,0,0,1-.825,0,.188.188,0,0,0-.225.3,1.084,1.084,0,0,0,.638.244,1.011,1.011,0,0,0,.638-.244.2.2,0,0,0,.038-.263A.2.2,0,0,0,8.046,12.558Z" transform="translate(-5.814 -10.364)"/>
        <path id="Path_886" data-name="Path 886" d="M24.488,12.475h5.458a.188.188,0,0,0,0-.375H24.488a.188.188,0,0,0-.188.188A.177.177,0,0,0,24.488,12.475Z" transform="translate(-19.93 -10.018)"/>
        <path id="Path_887" data-name="Path 887" d="M31.746,7.3H24.488a.188.188,0,1,0,0,.375h7.258a.188.188,0,0,0,.188-.188A.177.177,0,0,0,31.746,7.3Z" transform="translate(-19.93 -6.118)"/>
        <path id="Path_888" data-name="Path 888" d="M24.488,34.775h5.458a.188.188,0,0,0,.188-.188.177.177,0,0,0-.188-.188H24.488a.188.188,0,0,0-.188.188A.177.177,0,0,0,24.488,34.775Z" transform="translate(-19.93 -28.136)"/>
        <path id="Path_889" data-name="Path 889" d="M31.746,29.6H24.488a.188.188,0,0,0,0,.375h7.258a.188.188,0,0,0,.188-.188A.177.177,0,0,0,31.746,29.6Z" transform="translate(-19.93 -24.236)"/>
        <path id="Path_890" data-name="Path 890" d="M29.927,56.8H24.488a.188.188,0,1,0,0,.375h5.458a.188.188,0,0,0,.188-.188A.2.2,0,0,0,29.927,56.8Z" transform="translate(-19.93 -46.334)"/>
        <path id="Path_891" data-name="Path 891" d="M31.746,51.9H24.488a.188.188,0,0,0-.188.188.177.177,0,0,0,.188.188h7.258a.188.188,0,0,0,.188-.188A.177.177,0,0,0,31.746,51.9Z" transform="translate(-19.93 -42.353)"/>
      </g>
    </g>
  </g>
</svg>
