<svg xmlns="http://www.w3.org/2000/svg" width="30" height="30" viewBox="0 0 30 30">
  <defs>
    <style>
      .cls-1, .cls-3 {
        fill: none;
      }

      .cls-1 {
        stroke: #262626;
      }

      .cls-2 {
        stroke: none;
      }
    </style>
  </defs>
  <g id="config" transform="translate(-930 -257)">
    <g id="Rectangle_724" data-name="Rectangle 724" class="cls-1" transform="translate(930 257)">
      <rect class="cls-2" width="30" height="30" rx="15"/>
      <rect class="cls-3" x="0.5" y="0.5" width="29" height="29" rx="14.5"/>
    </g>
    <g id="noun_Calendar_2080654" transform="translate(936 262.6)">
      <g id="Group_105" data-name="Group 105" transform="translate(2.428 3.4)">
        <path id="Path_892" data-name="Path 892" d="M13.238,9.5h-.552l-.158.579A1.248,1.248,0,0,1,11.356,11a.874.874,0,0,1-.724-.342.936.936,0,0,1-.145-.816L10.58,9.5H8.8l-.158.579A1.264,1.264,0,0,1,7.463,11a.892.892,0,0,1-.724-.342.936.936,0,0,1-.145-.816L6.687,9.5H6.108a2.145,2.145,0,0,0-1.986,1.565L2.49,17.077a1.423,1.423,0,0,0,.224,1.289,1.4,1.4,0,0,0,1.131.539h.8v.355a1.7,1.7,0,0,0,1.7,1.7h6.893a1.7,1.7,0,0,0,1.7-1.7V11.2A1.7,1.7,0,0,0,13.238,9.5ZM3.858,17.88a.383.383,0,0,1-.316-.132.4.4,0,0,1-.039-.395l1.342-5.025h8.182L11.751,17.09a1.136,1.136,0,0,1-1,.8H3.858Zm10.05,1.381a.674.674,0,0,1-.671.671H6.358a.674.674,0,0,1-.671-.671v-.355h5.065a2.145,2.145,0,0,0,1.986-1.565l1.171-4.354Z" transform="translate(-2.428 -8.698)"/>
        <path id="Path_893" data-name="Path 893" d="M37.887,5.229a.771.771,0,0,0,.71-.566l.184-.7a.42.42,0,0,0-.408-.566.771.771,0,0,0-.71.566l-.184.7A.424.424,0,0,0,37.887,5.229Z" transform="translate(-32.853 -3.4)"/>
        <path id="Path_894" data-name="Path 894" d="M67.4,5.229a.771.771,0,0,0,.71-.566l.184-.7a.42.42,0,0,0-.408-.566.771.771,0,0,0-.71.566l-.2.7A.427.427,0,0,0,67.4,5.229Z" transform="translate(-58.472 -3.4)"/>
        <path id="Path_895" data-name="Path 895" d="M39.212,54.5H37.989a.228.228,0,0,0-.2.145l-.237.895a.106.106,0,0,0,.105.145h1.223a.228.228,0,0,0,.2-.145l.237-.895A.106.106,0,0,0,39.212,54.5Z" transform="translate(-32.928 -47.778)"/>
        <path id="Path_896" data-name="Path 896" d="M22.812,54.5H21.589a.228.228,0,0,0-.2.145l-.237.895a.106.106,0,0,0,.105.145h1.223a.228.228,0,0,0,.2-.145l.237-.895A.1.1,0,0,0,22.812,54.5Z" transform="translate(-18.685 -47.778)"/>
        <path id="Path_897" data-name="Path 897" d="M55.612,54.5H54.389a.228.228,0,0,0-.2.145l-.237.895a.106.106,0,0,0,.105.145h1.223a.228.228,0,0,0,.2-.145l.237-.895A.106.106,0,0,0,55.612,54.5Z" transform="translate(-47.171 -47.778)"/>
        <path id="Path_898" data-name="Path 898" d="M43.012,40.2H41.789a.228.228,0,0,0-.2.145l-.237.895a.106.106,0,0,0,.105.145h1.223a.228.228,0,0,0,.2-.145l.237-.895A.1.1,0,0,0,43.012,40.2Z" transform="translate(-36.228 -35.359)"/>
        <path id="Path_899" data-name="Path 899" d="M26.712,40.2H25.489a.228.228,0,0,0-.2.145l-.237.895a.106.106,0,0,0,.105.145h1.223a.228.228,0,0,0,.2-.145l.237-.895A.106.106,0,0,0,26.712,40.2Z" transform="translate(-22.072 -35.359)"/>
        <path id="Path_900" data-name="Path 900" d="M57.952,41.484h1.223a.228.228,0,0,0,.2-.145l.237-.895A.106.106,0,0,0,59.5,40.3H58.281a.228.228,0,0,0-.2.145l-.237.895A.1.1,0,0,0,57.952,41.484Z" transform="translate(-50.55 -35.446)"/>
      </g>
    </g>
  </g>
</svg>
