<?xml version="1.0" encoding="utf-8"?>
<!-- Generator: Adobe Illustrator 22.1.0, SVG Export Plug-In . SVG Version: 6.00 Build 0)  -->
<svg version="1.1" id="Layer_1" xmlns="http://www.w3.org/2000/svg" xmlns:xlink="http://www.w3.org/1999/xlink" x="0px" y="0px"
	 viewBox="0 0 1941 1941" style="enable-background:new 0 0 1941 1941;" xml:space="preserve">
<style type="text/css">
	.st0{fill:#FFFFFF;}
</style>
<path class="st0" d="M963.8,1603.7c27.5,0,49.7-22.3,49.7-49.7V500.4l427,427c9.7,9.7,22.4,14.5,35.2,14.5s25.5-4.8,35.2-14.5
	c19.4-19.4,19.4-50.9,0-70.4l-505.2-505.2c-19.4-19.4-50.9-19.4-70.4,0L430.1,857c-19.4,19.4-19.4,50.9,0,70.4
	c19.4,19.4,50.9,19.4,70.4,0L914,513.8V1554C914,1581.4,936.3,1603.7,963.8,1603.7z"/>
</svg>
