<svg xmlns="http://www.w3.org/2000/svg" width="314.285" height="170.517" viewBox="0 0 314.285 170.517">
    <defs>
        <style>
            .cls-1{fill:#f2f2f2}.cls-2{fill:#2f2e41}.cls-12,.cls-3{fill:#db353a}.cls-4{fill:none}.cls-10,.cls-4{stroke:#3f3d56;stroke-miterlimit:10}.cls-5{opacity:.1}.cls-6{fill:#3f3d56}.cls-7{fill:#fbbebe}.cls-10,.cls-8{fill:#6c63ff}.cls-9{fill:#57b894}.cls-11{fill:#fff}.cls-12{opacity:.3}
        </style>
    </defs>
    <g id="undraw_page_not_found_su7k" transform="translate(.341)">
        <ellipse id="Ellipse_44" cx="153.959" cy="10.192" class="cls-1" data-name="Ellipse 44" rx="153.959" ry="10.192" transform="translate(3.836 150.132)"/>
        <path id="Path_922" d="M478.923 324.894c-25.084 0-43.094 16.093-43.094 53.644 0 42.558 18.01 53.823 43.094 53.823s44.167-12.338 44.167-53.823c0-44.345-19.083-53.644-44.167-53.644zm.165 93.341c-17.374 0-26.451-10.193-26.451-39.669 0-26.009 9.448-39.724 26.822-39.724s26.822 9.009 26.822 39.724c.001 28.734-9.819 39.669-27.193 39.669z" class="cls-2" data-name="Path 922" transform="translate(-327.028 -276.15)"/>
        <path id="Path_923" d="M195.643 412.924h-10.372v-30.541a6.116 6.116 0 0 0-6.116-6.116h-2.43a6.116 6.116 0 0 0-6.116 6.116v30.541h-29.254a3.492 3.492 0 0 1-3.087-5.123l30.962-58.6a6.116 6.116 0 0 0-2.8-8.388l-1.828-.863a6.116 6.116 0 0 0-8.002 2.65l-37.762 70.641a8.294 8.294 0 0 0-.979 3.91 8.294 8.294 0 0 0 8.294 8.294h44.457v19.312a7.331 7.331 0 0 0 7.331 7.331 7.331 7.331 0 0 0 7.331-7.331v-19.316h10.371a6.258 6.258 0 0 0 6.258-6.258 6.258 6.258 0 0 0-6.259-6.259z" class="cls-3" data-name="Path 923" transform="translate(-101.862 -286.395)"/>
        <path id="Path_924" d="M853.639 412.924h-10.371v-30.541a6.116 6.116 0 0 0-6.116-6.116h-2.43a6.116 6.116 0 0 0-6.116 6.116v30.541h-29.255a3.492 3.492 0 0 1-3.087-5.123l30.962-58.6a6.116 6.116 0 0 0-2.8-8.388l-1.828-.863a6.116 6.116 0 0 0-7.998 2.65l-37.762 70.641a8.293 8.293 0 0 0-.979 3.91 8.294 8.294 0 0 0 8.294 8.294h44.457v19.312a7.331 7.331 0 0 0 7.331 7.331 7.331 7.331 0 0 0 7.331-7.331v-19.316h10.371a6.259 6.259 0 0 0 6.259-6.259 6.259 6.259 0 0 0-6.259-6.259z" class="cls-3" data-name="Path 924" transform="translate(-567.812 -286.395)"/>
        <path id="Path_925" d="M205.445 400.671h-10.371V370.13a6.116 6.116 0 0 0-6.116-6.116h-2.43a6.116 6.116 0 0 0-6.116 6.116v30.541h-29.255a3.492 3.492 0 0 1-3.087-5.123l30.962-58.6a6.116 6.116 0 0 0-2.8-8.388l-1.828-.863a6.116 6.116 0 0 0-8.006 2.647l-37.758 70.64a8.293 8.293 0 0 0-.979 3.91 8.294 8.294 0 0 0 8.294 8.294h44.457V432.5a7.331 7.331 0 0 0 7.331 7.331 7.331 7.331 0 0 0 7.331-7.331v-19.312h10.371a6.259 6.259 0 0 0 6.259-6.258 6.259 6.259 0 0 0-6.259-6.259z" class="cls-4" data-name="Path 925" transform="translate(-108.804 -277.718)"/>
        <path id="Path_926" d="M872.019 400.671h-10.371V370.13a6.116 6.116 0 0 0-6.116-6.116H853.1a6.116 6.116 0 0 0-6.116 6.116v30.541h-29.253a3.492 3.492 0 0 1-3.087-5.123l30.962-58.6a6.116 6.116 0 0 0-2.8-8.388l-1.828-.863a6.116 6.116 0 0 0-8.006 2.647l-37.762 70.641a8.293 8.293 0 0 0-.98 3.91 8.294 8.294 0 0 0 8.294 8.294h44.457V432.5a7.331 7.331 0 0 0 7.331 7.331 7.331 7.331 0 0 0 7.331-7.331v-19.312h10.371a6.259 6.259 0 0 0 6.259-6.258 6.259 6.259 0 0 0-6.254-6.259z" class="cls-4" data-name="Path 926" transform="translate(-580.828 -277.718)"/>
        <path id="Path_927" d="M498.528 313.866c-25.084 0-43.094 16.093-43.094 53.644 0 42.558 18.01 53.823 43.094 53.823S542.7 409 542.7 367.511c0-44.346-19.088-53.645-44.172-53.645zm.165 93.341c-17.374 0-26.451-10.193-26.451-39.669 0-26.009 9.448-39.724 26.822-39.724s26.822 9.009 26.822 39.724c.001 28.734-9.819 39.669-27.193 39.669z" class="cls-4" data-name="Path 927" transform="translate(-340.911 -268.341)"/>
        <circle id="Ellipse_45" cx="3.765" cy="3.765" r="3.765" class="cls-2" data-name="Ellipse 45" transform="translate(133.745 1.561)"/>
        <ellipse id="Ellipse_46" cx="10.562" cy="13.684" class="cls-2" data-name="Ellipse 46" rx="10.562" ry="13.684" transform="translate(136.133)"/>
        <path id="Path_928" d="M540.037 209.307c-5.291 0-9.673-5.041-10.442-11.618a17.778 17.778 0 0 0-.12 2.066c0 7.557 4.729 13.684 10.561 13.684s10.562-6.127 10.562-13.684a17.805 17.805 0 0 0-.12-2.066c-.769 6.577-5.15 11.618-10.441 11.618z" class="cls-5" data-name="Path 928" transform="translate(-393.342 -186.072)"/>
        <path id="Path_929" d="M600.521 332.859a3.921 3.921 0 0 1-2.288 2.2 20.216 20.216 0 0 1-7.81 1.534 13.191 13.191 0 0 1-2.085-.039 5.994 5.994 0 0 1-3.575-1.644.491.491 0 0 1 .013-.83c1.45-1.593 3.871-2.57 6.309-3.274 1.849-.533 5.073-1.915 7.089-1.728 1.953.181 2.633 2.604 2.347 3.781z" class="cls-6" data-name="Path 929" transform="translate(-432.335 -279.1)"/>
        <path id="Path_930" d="M600.521 332.859a3.921 3.921 0 0 1-2.288 2.2 20.216 20.216 0 0 1-7.81 1.534 13.191 13.191 0 0 1-2.085-.039 5.994 5.994 0 0 1-3.575-1.644.491.491 0 0 1 .013-.83c1.45-1.593 3.871-2.57 6.309-3.274 1.849-.533 5.073-1.915 7.089-1.728 1.953.181 2.633 2.604 2.347 3.781z" class="cls-5" data-name="Path 930" transform="translate(-432.335 -279.1)"/>
        <path id="Path_931" d="M538.568 281.277a5.771 5.771 0 0 0-.35 4.4 7.687 7.687 0 0 0 2.577 3.647c2.946 2.362 7 2.687 10.777 2.654a83.068 83.068 0 0 0 9.9-.678 11.831 11.831 0 0 0 3.211-.746 4.921 4.921 0 0 0 2.754-2.78 3.387 3.387 0 0 0-.915-3.67 5.746 5.746 0 0 0-3.356-.917l-6.739-.4a11.429 11.429 0 0 1 2.363-1.545 10.655 10.655 0 0 0 2.572-2.724 37.651 37.651 0 0 1 3.922-4.033 5.79 5.79 0 0 0 1.952 3.159c.937.868 2.016 1.567 2.99 2.393 2.358 2 4.056 4.719 6.536 6.567a12.792 12.792 0 0 0 4.684-2.339l-.964-1.746a1.15 1.15 0 0 0-.363-.453c-.273-.168-.625-.081-.941-.129-.847-.127-1.216-1.1-1.549-1.893-.912-2.166-2.658-3.847-4.15-5.663a28.61 28.61 0 0 1-2.917-4.3 14.7 14.7 0 0 0-1.64-2.628 3.7 3.7 0 0 0-2.667-1.4 5.137 5.137 0 0 0-2.543.929 67.264 67.264 0 0 0-6.9 4.7 15.957 15.957 0 0 1-3.645 2.386c-.568.231-1.168.388-1.713.669a11.454 11.454 0 0 0-2.461 2.062 16.355 16.355 0 0 1-10.425 4.478z" class="cls-6" data-name="Path 931" transform="translate(-399.335 -234.485)"/>
        <path id="Path_932" d="M567.33 224.9a6.939 6.939 0 0 1-.506 2.345 2.932 2.932 0 0 1-1.683 1.626 3.612 3.612 0 0 1-1.641.053 3.177 3.177 0 0 1-1.337-.456 2.851 2.851 0 0 1-1.063-1.968c-.115-.758-.063-1.532-.137-2.3a12.534 12.534 0 0 0-.351-1.826l-.15-.6c-.05-.2-.1-.4-.141-.6s-.078-.374-.11-.562a8.622 8.622 0 0 1-.068-.479 5.379 5.379 0 0 0-.236-1.4 4.263 4.263 0 0 0-.492-.833 6.135 6.135 0 0 1-.239-.363 1.719 1.719 0 0 1-.284-1.094.964.964 0 0 1 .043-.175.727.727 0 0 1 .025-.065.526.526 0 0 0 .359-.335 1 1 0 0 0-.043-.519 3.3 3.3 0 0 0-.28-.668c-.077-.14-.339-.391-.341-.551 0-.321.625-.58.879-.707a4.9 4.9 0 0 1 2.509-.509 1.85 1.85 0 0 1 1.465.674 4.416 4.416 0 0 1 .356 1.451.429.429 0 0 0 .087.194.392.392 0 0 0 .216.1 1.328 1.328 0 0 0 .413.017.859.859 0 0 0 .108-.016 1.447 1.447 0 0 0 .593-.256q.171-.045.344-.074h.014c.46 1.452.52 3.009.9 4.487a11.512 11.512 0 0 1 .491 2.219v.1c.005.243-.014.489 0 .731a2.042 2.042 0 0 0 .037.325 4.549 4.549 0 0 0 .153.509v.008a2.763 2.763 0 0 1 .075.28 4.359 4.359 0 0 1 .035 1.237z" class="cls-7" data-name="Path 932" transform="translate(-414.007 -196.854)"/>
        <circle id="Ellipse_47" cx="5.419" cy="5.419" r="5.419" class="cls-7" data-name="Ellipse 47" transform="translate(141.459 7.715)"/>
        <path id="Path_933" d="M607.891 244.488a8.886 8.886 0 0 0-1.528-4.116l.422 2.506a.938.938 0 0 1-.983-.3 3.015 3.015 0 0 1-.515-.956 19.69 19.69 0 0 0-2.4-4.3 25.58 25.58 0 0 1-9.887-3.387c-3.034-1.666-5.874-3.663-8.868-5.4a12.722 12.722 0 0 0-1.618-.827c-.937-.376-1.988-.57-2.876-1.012-.06-.029-.119-.061-.178-.093a3.672 3.672 0 0 1-.568-.381 3.027 3.027 0 0 1-.272-.25 5.943 5.943 0 0 1-1.039-1.738c-.477-1.054-.647-2.326-1.122-3.381a3.267 3.267 0 0 1 .73-.515c.039-.02.077-.04.117-.058a3.487 3.487 0 0 1 .585-.214q.171-.045.344-.074h.014a3.375 3.375 0 0 1 1.6.127 7.414 7.414 0 0 1 2.026 1.247 33.286 33.286 0 0 1 2.962 2.349c.524.5 1 1.052 1.564 1.508a12.3 12.3 0 0 0 1.476.978l9.14 5.443c1.031.614 2.064 1.229 3.072 1.879 1.532.988 3.009 2.059 4.484 3.129l2.608 1.891a2.839 2.839 0 0 1 .739.683 2.472 2.472 0 0 1 .328 1 9.161 9.161 0 0 1-.357 4.262z" class="cls-7" data-name="Path 933" transform="translate(-426.612 -201.832)"/>
        <path id="Path_934" d="M551.279 234.068c-.366 1.639-2.022 2.63-2.888 4.07-1.076 1.787-.637 3.865-.233 5.912l-2.216 1.909c-.408.35-.816.7-1.255 1.011a16.736 16.736 0 0 1-2 1.15l-1.962 1.009a9.373 9.373 0 0 1-1.92.814 7.4 7.4 0 0 1-3.932-.284 1.777 1.777 0 0 1-.43-.175.7.7 0 0 1-.2-.185 1.141 1.141 0 0 1-.129-.741 34.833 34.833 0 0 1 1.176-6.33 18.66 18.66 0 0 1 2.7-6.634 19.953 19.953 0 0 1 2.314-3.36 5.392 5.392 0 0 0 1.073-1.383 7.409 7.409 0 0 0 .266-2.407 5 5 0 0 1 .477-1.753 4.987 4.987 0 0 1 .509-.841l.267.622q.088.2.174.407l.224.522.641 1.492a6.3 6.3 0 0 0 .974 1.735 1.9 1.9 0 0 0 3.247-.249 6.207 6.207 0 0 0 .663-1.755 5.607 5.607 0 0 0 .073-2.287 27.011 27.011 0 0 0-1.295-4.314 4.362 4.362 0 0 1-.315-1.422.974.974 0 0 1 .016-.163l.008-.042a3.484 3.484 0 0 1 .585-.214q.171-.045.344-.074.6 3.229 1.195 6.458l.029.152c.057.309.115.617.179.925.058.279.12.557.19.834v.008l.074.279c.071.254.15.505.239.753.543 1.496 1.484 3 1.138 4.551z" class="cls-3" data-name="Path 934" transform="translate(-396.612 -201.946)"/>
        <path id="Path_935" d="M668.315 334.326a1.921 1.921 0 0 0 .178.917 2.2 2.2 0 0 0 1.857.819 54.981 54.981 0 0 0 12.336-.376 1.425 1.425 0 0 0 .628-.195c.581-.407.223-1.4-.411-1.717a7.965 7.965 0 0 0-2.083-.379 6.564 6.564 0 0 1-1.949-.845q-2.117-1.216-4.172-2.536a3.311 3.311 0 0 0-2.7-.772 4.812 4.812 0 0 0-3.684 5.084z" class="cls-6" data-name="Path 935" transform="translate(-491.657 -279.165)"/>
        <path id="Path_936" d="M522.939 229.5a2.085 2.085 0 0 1-.021.114 23.004 23.004 0 0 1-.448 1.928c-.441 1.593-1.031 3.161-1.617 4.706l-4.718 12.427c-.4 1.043-.793 2.088-1.244 3.11-.151.341-.306.684-.46 1.031a14.349 14.349 0 0 0-1.26 3.848 8.009 8.009 0 0 0-.056 2.639 2.707 2.707 0 0 0 1.526 2.034c.4.157.978.367.868.785-.06.23-.32.342-.555.38a2.134 2.134 0 0 1-1.741-.5c-.44-.39-.778-1-1.363-1.063a2.305 2.305 0 0 0-1.149.368c-1.513.691-3.277.208-4.867-.284a1.707 1.707 0 0 1 1.413-1.2 11.436 11.436 0 0 1 1.961-.055 1.024 1.024 0 0 0 .6-.153 1.081 1.081 0 0 0 .321-.549 23.048 23.048 0 0 0 .938-3.837c.211-1.362.3-2.745.6-4.091.234-1.05.6-2.066.906-3.1a65.571 65.571 0 0 0 1.477-6.443 22.786 22.786 0 0 0 .416-2.734c.052-.762.028-1.528.1-2.288a17.769 17.769 0 0 1 .616-2.918l.842-3.12a10.49 10.49 0 0 1 1.917-4.332 4.075 4.075 0 0 1 2.927-1.4 2.882 2.882 0 0 1 .622.067l.1.026a2.521 2.521 0 0 1 .635.263c.325-.207.49-.134.706.185a2.036 2.036 0 0 1 .257 1.108 15.3 15.3 0 0 1-.249 3.048z" class="cls-7" data-name="Path 936" transform="translate(-376.602 -205.279)"/>
        <path id="Path_937" d="M559.768 230.456l-.014.014-.074.074-.738.737-.362-1.52-1.241-5.211a2.886 2.886 0 0 1 .622.067.958.958 0 0 1 .043-.175l.059.2.421 1.431.8 2.717.131.447z" class="cls-3" data-name="Path 937" transform="translate(-413.073 -205.016)"/>
        <path id="Path_938" d="M553.19 179.176a3.672 3.672 0 0 1-1.08 2.6 3.592 3.592 0 0 1-.4.343 3.657 3.657 0 0 1-2.2.737h-4.406a3.675 3.675 0 0 1 0-7.349h4.406a3.686 3.686 0 0 1 3.68 3.669z" class="cls-2" data-name="Path 938" transform="translate(-401.81 -170.361)"/>
        <circle id="Ellipse_48" cx="3.765" cy="3.765" r="3.765" class="cls-2" data-name="Ellipse 48" transform="translate(151.745 1.561)"/>
        <path id="Path_939" d="M595.22 163.234h-.138a3.764 3.764 0 0 1 0 7.524h.138a3.765 3.765 0 0 0 0-7.531z" class="cls-5" data-name="Path 939" transform="translate(-439.801 -161.673)"/>
        <path id="Path_940" d="M525.059 163.234h.138a3.764 3.764 0 0 0 0 7.524h-.138a3.765 3.765 0 1 1 0-7.531z" class="cls-5" data-name="Path 940" transform="translate(-387.549 -161.672)"/>
        <path id="Path_941" d="M555.292 198.159a3.657 3.657 0 0 1-2.2.737h-4.406a3.657 3.657 0 0 1-2.2-.737z" class="cls-5" data-name="Path 941" transform="translate(-405.389 -186.405)"/>
        <path id="Path_942" d="M674.14 287.835s.949 2.735 1.818 2.007l-.693-3.575z" class="cls-7" data-name="Path 942" transform="translate(-495.784 -248.796)"/>
        <path id="Path_943" d="M1060.21 548.844a6.074 6.074 0 1 0 .809-11.65l.152 3.127-1.479-2.68a6.052 6.052 0 0 0-3.118 3.421 5.956 5.956 0 0 0-.349 1.643 6.073 6.073 0 0 0 3.985 6.139z" class="cls-8" data-name="Path 943" transform="translate(-766.341 -426.392)"/>
        <path id="Path_944" d="M1092.219 572.439c-.522-2.659 1.74-5.016 3.975-6.548s4.846-3.038 5.609-5.638c1.1-3.737-2.169-7.159-4.71-10.111a36.58 36.58 0 0 1-4.823-7.167 9.865 9.865 0 0 1-1.153-3.259 11.249 11.249 0 0 1 .868-4.885q2.679-7.9 5.729-15.659" class="cls-4" data-name="Path 944" transform="translate(-791.03 -413.724)"/>
        <path id="Path_945" d="M1061.067 546.086a6.074 6.074 0 1 0 .809-11.65l.152 3.126-1.479-2.679a6.052 6.052 0 0 0-3.118 3.421 5.956 5.956 0 0 0-.349 1.643 6.073 6.073 0 0 0 3.985 6.139z" class="cls-4" data-name="Path 945" transform="translate(-766.948 -424.439)"/>
        <path id="Path_946" d="M1091.567 505.764a6.068 6.068 0 0 1 4.372-3.852l.5 2.972.927-3.122a6.074 6.074 0 1 1-5.8 4z" class="cls-8" data-name="Path 946" transform="translate(-791.12 -401.397)"/>
        <path id="Path_947" d="M1092.71 502.087a6.067 6.067 0 0 1 4.372-3.852l.5 2.972.927-3.122a6.074 6.074 0 1 1-5.8 4z" class="cls-4" data-name="Path 947" transform="translate(-791.93 -398.793)"/>
        <path id="Path_948" d="M1098.329 596.894a6.074 6.074 0 0 0 5.376-10.806l-.712 2.4-.505-3.007-.016-.006a6.074 6.074 0 0 0-4.143 11.42z" class="cls-8" data-name="Path 948" transform="translate(-793.332 -460.416)"/>
        <path id="Path_949" d="M1099.319 593.169a6.074 6.074 0 0 0 5.376-10.806l-.712 2.4-.505-3.007-.016-.006a6.074 6.074 0 0 0-4.143 11.42z" class="cls-4" data-name="Path 949" transform="translate(-794.033 -457.779)"/>
        <path id="Path_950" d="M1086.151 642.771a6.071 6.071 0 1 0 1.171-4.757l2.706 4.073-3.7-2.162a6.019 6.019 0 0 0-.177 2.846z" class="cls-8" data-name="Path 950" transform="translate(-787.478 -496.205)"/>
        <path id="Path_951" d="M1087.009 640.013a6.071 6.071 0 1 0 1.171-4.757l2.706 4.073-3.7-2.162a6.016 6.016 0 0 0-.179 2.845z" class="cls-4" data-name="Path 951" transform="translate(-788.085 -494.252)"/>
        <path id="Path_952" d="M65.683 609.349a3.991 3.991 0 1 0 .531-7.654l.1 2.054-.972-1.76a3.976 3.976 0 0 0-2.049 2.248 3.913 3.913 0 0 0-.23 1.079 3.99 3.99 0 0 0 2.619 4.033z" class="cls-9" data-name="Path 952" transform="translate(-63.054 -472.1)"/>
        <path id="Path_953" d="M86.714 624.851c-.343-1.747 1.144-3.3 2.612-4.3s3.184-2 3.685-3.7c.72-2.455-1.425-4.7-3.094-6.643a24.028 24.028 0 0 1-3.169-4.709 6.482 6.482 0 0 1-.758-2.141 7.39 7.39 0 0 1 .57-3.209q1.76-5.187 3.764-10.288" class="cls-4" data-name="Path 953" transform="translate(-79.275 -463.777)"/>
        <path id="Path_954" d="M66.246 607.537a3.991 3.991 0 1 0 .531-7.654l.1 2.054-.972-1.76a3.976 3.976 0 0 0-2.049 2.248 3.914 3.914 0 0 0-.23 1.08 3.99 3.99 0 0 0 2.62 4.032z" class="cls-10" data-name="Path 954" transform="translate(-63.453 -470.816)"/>
        <path id="Path_955" d="M86.285 581.045a3.986 3.986 0 0 1 2.873-2.531l.329 1.953.609-2.051a3.991 3.991 0 1 1-3.81 2.629z" class="cls-8" data-name="Path 955" transform="translate(-79.335 -455.677)"/>
        <path id="Path_956" d="M87.036 578.629a3.986 3.986 0 0 1 2.873-2.531l.329 1.953.608-2.051a3.991 3.991 0 1 1-3.81 2.629z" class="cls-4" data-name="Path 956" transform="translate(-79.866 -453.966)"/>
        <path id="Path_957" d="M90.728 640.919a3.991 3.991 0 0 0 3.532-7.1l-.468 1.576-.332-1.976h-.01a3.991 3.991 0 1 0-2.722 7.5z" class="cls-8" data-name="Path 957" transform="translate(-80.788 -494.454)"/>
        <path id="Path_958" d="M91.379 638.472a3.991 3.991 0 0 0 3.532-7.1l-.468 1.576-.332-1.976h-.01a3.991 3.991 0 0 0-2.722 7.5z" class="cls-4" data-name="Path 958" transform="translate(-81.248 -492.721)"/>
        <path id="Path_959" d="M82.727 671.061a3.989 3.989 0 1 0 .769-3.125l1.778 2.676-2.43-1.42a3.953 3.953 0 0 0-.117 1.869z" class="cls-8" data-name="Path 959" transform="translate(-76.942 -517.968)"/>
        <path id="Path_960" d="M83.29 669.249a3.989 3.989 0 1 0 .769-3.125l1.778 2.676-2.43-1.42a3.954 3.954 0 0 0-.118 1.869z" class="cls-4" data-name="Path 960" transform="translate(-77.34 -516.685)"/>
        <ellipse id="Ellipse_49" cx="4.962" cy="6.421" class="cls-2" data-name="Ellipse 49" rx="4.962" ry="6.421" transform="translate(135.41 86.718)"/>
        <ellipse id="Ellipse_50" cx="4.962" cy="6.421" class="cls-2" data-name="Ellipse 50" rx="4.962" ry="6.421" transform="translate(162.408 86.864)"/>
        <path id="Path_961" d="M579.6 529.753c0 2.9-4.051 5.254-9.048 5.254s-9.048-2.352-9.048-5.254c0-2.513 3.038-4.614 7.1-5.128a14.634 14.634 0 0 1 1.95-.125 14.8 14.8 0 0 1 3.249.35c3.385.756 5.797 2.668 5.797 4.903z" class="cls-2" data-name="Path 961" transform="translate(-416.02 -417.497)"/>
        <ellipse id="Ellipse_51" cx="4.962" cy="6.421" class="cls-4" data-name="Ellipse 51" rx="4.962" ry="6.421" transform="translate(136.578 85.259)"/>
        <ellipse id="Ellipse_52" cx="4.962" cy="6.421" class="cls-4" data-name="Ellipse 52" rx="4.962" ry="6.421" transform="translate(163.575 85.404)"/>
        <ellipse id="Ellipse_53" cx="9.048" cy="5.254" class="cls-4" data-name="Ellipse 53" rx="9.048" ry="5.254" transform="translate(146.647 105.543)"/>
        <path id="Path_962" d="M590.544 524.934a1.441 1.441 0 0 1-.385.99 1.266 1.266 0 0 1-.928.411h-2.919a1.361 1.361 0 0 1-1.313-1.4 1.433 1.433 0 0 1 .239-.8 13.735 13.735 0 0 1 1.95-.134 13.916 13.916 0 0 1 3.248.374 1.477 1.477 0 0 1 .108.559z" class="cls-11" data-name="Path 962" transform="translate(-432.66 -417.143)"/>
        <circle id="Ellipse_54" cx="1.459" cy="1.459" r="1.459" class="cls-11" data-name="Ellipse 54" transform="translate(140.08 88.469)"/>
        <circle id="Ellipse_55" cx="1.459" cy="1.459" r="1.459" class="cls-11" data-name="Ellipse 55" transform="translate(167.224 88.469)"/>
        <circle id="Ellipse_56" cx="1.459" cy="1.459" r="1.459" class="cls-12" data-name="Ellipse 56" transform="translate(168.683 102.187)"/>
        <circle id="Ellipse_57" cx="1.459" cy="1.459" r="1.459" class="cls-12" data-name="Ellipse 57" transform="translate(133.075 102.187)"/>
    </g>
</svg>
