<svg xmlns="http://www.w3.org/2000/svg" width="1366" height="438.394" viewBox="0 0 1366 438.394">
    <defs>
        <style>
            .cls-1{fill:#f8f8f8}.cls-2{fill:#f0f0f0}
        </style>
    </defs>
    <g id="Group_9605" data-name="Group 9605" transform="translate(0 -328.606)">
        <path id="Path_1354" d="M0 472.5h1366V82.441a599.161 599.161 0 0 0-84.543 0c-21.349 1.511-63.9 13.779-86.848 0-46.616-27.991 9.307-15.42-105.942-37.562-17.3-6.534-95.966-12.845-199.81 0-70.684-7.452-131-7.675-181.947-7.825-28.068-.083-94.5-10.312-108.4 7.825-29.754 40.658-27.685 23.446-56.541 37.562-57.084 27.924-136.388 43.594-174.2 47.1C225.637 121.866 164 79.6 125.271 82.441 47.2 88.174 0 59.523 0 59.523z" class="cls-1" data-name="Path 1354" transform="translate(0 294.5)"/>
        <path id="Path_1355" d="M0 197.079h1366v-145s-37.9-1.227-84.543 0c-21.349.562-63.9 5.123-86.848 0-46.616-10.405 9.307-5.732-105.942-13.963-17.3-2.429-95.966-4.775-199.81 0-70.684-2.77-131-2.853-181.947-2.909-28.068-.031-94.5-3.834-108.4 2.909-29.754 15.115-27.685 8.716-56.541 13.963-57.084 10.381-136.388 16.206-174.2 17.51C225.637 66.731 164 51.018 125.271 52.075 47.2 54.206 0 43.555 0 43.555z" class="cls-2" data-name="Path 1355" transform="translate(0 569.921)"/>
    </g>
</svg>
