<svg xmlns="http://www.w3.org/2000/svg" xmlns:xlink="http://www.w3.org/1999/xlink" width="252.371" height="289.972" viewBox="0 0 252.371 289.972">
    <defs>
        <style>
            .cls-1{fill:#b0bec5}.cls-2{fill:url(#linear-gradient)}.cls-3{fill:#eceff1}.cls-4{fill:#db353a}.cls-5{opacity:.7}.cls-6{opacity:.6}.cls-7{opacity:.5}.cls-8{opacity:.4}.cls-9{opacity:.3}.cls-10{fill:#6c63ff}.cls-11{fill:url(#linear-gradient-3)}.cls-12{fill:url(#linear-gradient-4)}.cls-13{fill:url(#linear-gradient-5)}.cls-14{fill:url(#linear-gradient-6)}.cls-15{fill:url(#linear-gradient-7)}.cls-16{fill:url(#linear-gradient-9)}.cls-17,.cls-32{opacity:.2}.cls-18{fill:url(#linear-gradient-11)}.cls-19{fill:url(#linear-gradient-12)}.cls-20{fill:url(#linear-gradient-13)}.cls-21{fill:url(#linear-gradient-14)}.cls-22{fill:url(#linear-gradient-15)}.cls-23{fill:url(#linear-gradient-16)}.cls-24{fill:url(#linear-gradient-17)}.cls-25{fill:url(#linear-gradient-18)}.cls-26{fill:url(#linear-gradient-20)}.cls-27{fill:url(#linear-gradient-21)}.cls-28{fill:url(#linear-gradient-22)}.cls-29{fill:#ca7070}.cls-30{fill:#263238}.cls-31{fill:#5caade}.cls-32,.cls-33{fill:#fff}.cls-34{fill:url(#linear-gradient-25)}
        </style>
        <linearGradient id="linear-gradient" x1=".5" x2=".5" y1="1" gradientUnits="objectBoundingBox">
            <stop offset="0" stop-color="gray" stop-opacity=".251"/>
            <stop offset=".54" stop-color="gray" stop-opacity=".122"/>
            <stop offset="1" stop-color="gray" stop-opacity=".102"/>
        </linearGradient>
        <linearGradient id="linear-gradient-3" x1=".5" x2=".5" y1="1" y2=".002" xlink:href="#linear-gradient"/>
        <linearGradient id="linear-gradient-4" x1=".5" x2=".5" y1="1" xlink:href="#linear-gradient"/>
        <linearGradient id="linear-gradient-5" x1=".5" x2=".5" y1="1" xlink:href="#linear-gradient"/>
        <linearGradient id="linear-gradient-6" x1=".5" x2=".5" y1="1" xlink:href="#linear-gradient"/>
        <linearGradient id="linear-gradient-7" x1=".5" x2=".5" y1="1" xlink:href="#linear-gradient"/>
        <linearGradient id="linear-gradient-9" x1=".5" x2=".5" y1="1" xlink:href="#linear-gradient"/>
        <linearGradient id="linear-gradient-11" x1=".5" x2=".5" y1="1" xlink:href="#linear-gradient"/>
        <linearGradient id="linear-gradient-12" x1=".5" x2=".5" y1="1" xlink:href="#linear-gradient"/>
        <linearGradient id="linear-gradient-13" x1=".501" x2=".501" y1="1.001" y2=".001" xlink:href="#linear-gradient"/>
        <linearGradient id="linear-gradient-14" x1=".5" x2=".5" y1="1" xlink:href="#linear-gradient"/>
        <linearGradient id="linear-gradient-15" x1=".5" x2=".5" y1="1" xlink:href="#linear-gradient"/>
        <linearGradient id="linear-gradient-16" x1=".5" x2=".5" y1="1" xlink:href="#linear-gradient"/>
        <linearGradient id="linear-gradient-17" x1=".5" x2=".5" y1="1" xlink:href="#linear-gradient"/>
        <linearGradient id="linear-gradient-18" x1=".5" x2=".5" y1="1" xlink:href="#linear-gradient"/>
        <linearGradient id="linear-gradient-20" x1=".5" x2=".5" y1="1" xlink:href="#linear-gradient"/>
        <linearGradient id="linear-gradient-21" x1=".5" x2=".5" y1="1" xlink:href="#linear-gradient"/>
        <linearGradient id="linear-gradient-22" x1=".5" x2=".5" y1="1" xlink:href="#linear-gradient"/>
        <linearGradient id="linear-gradient-25" x1=".5" x2=".5" y1="1" xlink:href="#linear-gradient"/>
    </defs>
    <g id="undraw_maintenance_cn7j" transform="translate(.02)">
        <path id="Rectangle_1473" d="M0 0h3.6v2.401H0z" class="cls-1" data-name="Rectangle 1473" transform="translate(126.723 106.414)"/>
        <path id="Rectangle_1474" d="M0 0h3.6v2.401H0z" class="cls-1" data-name="Rectangle 1474" transform="translate(131.521 106.414)"/>
        <path id="Rectangle_1475" d="M0 0h3.6v2.401H0z" class="cls-1" data-name="Rectangle 1475" transform="translate(136.324 106.414)"/>
        <path id="Rectangle_1476" d="M0 0h3.6v2.401H0z" class="cls-1" data-name="Rectangle 1476" transform="translate(141.122 106.414)"/>
        <path id="Rectangle_1477" d="M0 0h3.6v2.401H0z" class="cls-1" data-name="Rectangle 1477" transform="translate(145.925 106.414)"/>
        <path id="Rectangle_1478" d="M0 0h3.6v2.401H0z" class="cls-1" data-name="Rectangle 1478" transform="translate(150.727 106.414)"/>
        <path id="Rectangle_1479" d="M0 0h3.6v2.401H0z" class="cls-1" data-name="Rectangle 1479" transform="translate(155.526 106.414)"/>
        <path id="Rectangle_1480" d="M0 0h3.6v2.401H0z" class="cls-1" data-name="Rectangle 1480" transform="translate(160.328 106.414)"/>
        <path id="Rectangle_1481" d="M0 0h3.6v2.401H0z" class="cls-1" data-name="Rectangle 1481" transform="translate(165.127 106.414)"/>
        <path id="Rectangle_1482" d="M0 0h3.6v2.401H0z" class="cls-1" data-name="Rectangle 1482" transform="translate(169.929 106.414)"/>
        <path id="Rectangle_1483" d="M0 0h154.891v172.876H0z" class="cls-2" data-name="Rectangle 1483" transform="translate(97.459 108.081)"/>
        <path id="Rectangle_1484" d="M0 0h149.773v53.69H0z" class="cls-3" data-name="Rectangle 1484" transform="translate(100.02 223.503)"/>
        <path id="Rectangle_1485" d="M0 0h5.803v27.509H0z" class="cls-4" data-name="Rectangle 1485" transform="translate(112.312 236.24)"/>
        <g id="Group_9606" class="cls-5" data-name="Group 9606" transform="translate(123.77 236.24)">
            <path id="Rectangle_1486" d="M0 0h5.803v27.509H0z" class="cls-4" data-name="Rectangle 1486"/>
        </g>
        <g id="Group_9607" class="cls-6" data-name="Group 9607" transform="translate(135.228 236.24)">
            <path id="Rectangle_1487" d="M0 0h5.803v27.509H0z" class="cls-4" data-name="Rectangle 1487"/>
        </g>
        <g id="Group_9608" class="cls-7" data-name="Group 9608" transform="translate(146.686 236.24)">
            <path id="Rectangle_1488" d="M0 0h5.803v27.509H0z" class="cls-4" data-name="Rectangle 1488"/>
        </g>
        <g id="Group_9609" class="cls-7" data-name="Group 9609" transform="translate(158.144 236.24)">
            <path id="Rectangle_1489" d="M0 0h5.803v27.509H0z" class="cls-4" data-name="Rectangle 1489"/>
        </g>
        <g id="Group_9610" class="cls-8" data-name="Group 9610" transform="translate(169.602 236.24)">
            <path id="Rectangle_1490" d="M0 0h5.803v27.509H0z" class="cls-4" data-name="Rectangle 1490"/>
        </g>
        <g id="Group_9611" class="cls-9" data-name="Group 9611" transform="translate(181.056 236.24)">
            <path id="Rectangle_1491" d="M0 0h5.803v27.509H0z" class="cls-4" data-name="Rectangle 1491"/>
        </g>
        <circle id="Ellipse_243" cx="14.004" cy="14.004" r="14.004" class="cls-10" data-name="Ellipse 243" transform="translate(214.582 235.813)"/>
        <path id="Rectangle_1492" d="M0 0h149.773v53.69H0z" class="cls-3" data-name="Rectangle 1492" transform="translate(100.02 167.723)"/>
        <path id="Rectangle_1493" d="M0 0h5.803v27.509H0z" class="cls-4" data-name="Rectangle 1493" transform="translate(112.312 180.46)"/>
        <g id="Group_9612" class="cls-5" data-name="Group 9612" transform="translate(123.77 180.46)">
            <path id="Rectangle_1494" d="M0 0h5.803v27.509H0z" class="cls-4" data-name="Rectangle 1494"/>
        </g>
        <g id="Group_9613" class="cls-6" data-name="Group 9613" transform="translate(135.228 180.46)">
            <path id="Rectangle_1495" d="M0 0h5.803v27.509H0z" class="cls-4" data-name="Rectangle 1495"/>
        </g>
        <g id="Group_9614" class="cls-7" data-name="Group 9614" transform="translate(146.686 180.46)">
            <path id="Rectangle_1496" d="M0 0h5.803v27.509H0z" class="cls-4" data-name="Rectangle 1496"/>
        </g>
        <g id="Group_9615" class="cls-7" data-name="Group 9615" transform="translate(158.144 180.46)">
            <path id="Rectangle_1497" d="M0 0h5.803v27.509H0z" class="cls-4" data-name="Rectangle 1497"/>
        </g>
        <g id="Group_9616" class="cls-8" data-name="Group 9616" transform="translate(169.602 180.46)">
            <path id="Rectangle_1498" d="M0 0h5.803v27.509H0z" class="cls-4" data-name="Rectangle 1498"/>
        </g>
        <g id="Group_9617" class="cls-9" data-name="Group 9617" transform="translate(181.056 180.46)">
            <path id="Rectangle_1499" d="M0 0h5.803v27.509H0z" class="cls-4" data-name="Rectangle 1499"/>
        </g>
        <circle id="Ellipse_244" cx="14.004" cy="14.004" r="14.004" class="cls-10" data-name="Ellipse 244" transform="translate(214.582 180.038)"/>
        <path id="Rectangle_1500" d="M0 0h149.773v53.69H0z" class="cls-3" data-name="Rectangle 1500" transform="translate(100.02 111.947)"/>
        <path id="Rectangle_1501" d="M0 0h5.803v27.509H0z" class="cls-4" data-name="Rectangle 1501" transform="translate(112.312 124.68)"/>
        <g id="Group_9618" class="cls-5" data-name="Group 9618" transform="translate(123.77 124.68)">
            <path id="Rectangle_1502" d="M0 0h5.803v27.509H0z" class="cls-4" data-name="Rectangle 1502"/>
        </g>
        <g id="Group_9619" class="cls-6" data-name="Group 9619" transform="translate(135.228 124.68)">
            <path id="Rectangle_1503" d="M0 0h5.803v27.509H0z" class="cls-4" data-name="Rectangle 1503"/>
        </g>
        <g id="Group_9620" class="cls-7" data-name="Group 9620" transform="translate(146.686 124.68)">
            <path id="Rectangle_1504" d="M0 0h5.803v27.509H0z" class="cls-4" data-name="Rectangle 1504"/>
        </g>
        <g id="Group_9621" class="cls-7" data-name="Group 9621" transform="translate(158.144 124.68)">
            <path id="Rectangle_1505" d="M0 0h5.803v27.509H0z" class="cls-4" data-name="Rectangle 1505"/>
        </g>
        <g id="Group_9622" class="cls-8" data-name="Group 9622" transform="translate(169.602 124.68)">
            <path id="Rectangle_1506" d="M0 0h5.803v27.509H0z" class="cls-4" data-name="Rectangle 1506"/>
        </g>
        <g id="Group_9623" class="cls-9" data-name="Group 9623" transform="translate(181.056 124.68)">
            <path id="Rectangle_1507" d="M0 0h5.803v27.509H0z" class="cls-4" data-name="Rectangle 1507"/>
        </g>
        <circle id="Ellipse_245" cx="15.096" cy="15.096" r="15.096" class="cls-2" data-name="Ellipse 245" transform="translate(213.49 123.166)"/>
        <circle id="Ellipse_246" cx="15.096" cy="15.096" r="15.096" class="cls-10" data-name="Ellipse 246" transform="translate(213.49 179.318)"/>
        <circle id="Ellipse_247" cx="15.096" cy="15.096" r="15.096" class="cls-10" data-name="Ellipse 247" transform="translate(213.49 235.094)"/>
        <circle id="Ellipse_248" cx="14.004" cy="14.004" r="14.004" class="cls-10" data-name="Ellipse 248" transform="translate(214.582 124.258)"/>
        <path id="Path_1356" d="M647.078 358.569h-55.315a1.9 1.9 0 0 1-1.9-1.9v-3.014a1.9 1.9 0 0 1 1.9-1.9h55.315z" class="cls-11" data-name="Path 1356" transform="translate(-467.548 -244.152)"/>
        <path id="Path_1357" d="M648.707 358.411h-54.314a1.9 1.9 0 0 1-1.9-1.9v-1.815a1.9 1.9 0 0 1 1.9-1.9h54.315z" class="cls-1" data-name="Path 1357" transform="translate(-469.177 -244.796)"/>
        <path id="Path_1358" d="M365.317 248.954l39.957 35.346 46.426-9.806-3.6-10.461-35.976 4.247-36-31.585a8.178 8.178 0 0 0-12.071 1.423 8.178 8.178 0 0 0 1.264 10.836z" class="cls-12" data-name="Path 1358" transform="translate(-326.746 -171.62)"/>
        <path id="Path_1359" d="M590.886 321.67s11.842.327 16.219-6.21-19.815-4.251-19.815-4.251z" class="cls-13" data-name="Path 1359" transform="translate(-465.956 -218.799)"/>
        <circle id="Ellipse_249" cx="20.595" cy="20.595" r="20.595" class="cls-14" data-name="Ellipse 249" transform="translate(12.736 13.106)"/>
        <path id="Path_1360" d="M293.243 213.652s-26.448 17.809-19.731 72.866a48.2 48.2 0 0 1-1.7 19.815L268.39 317.6s58.185 1.309 59.817 0c1.012-.811.225-21.558-2.614-50.338-1.739-17.63 3.714-42.156-15.035-55.559z" class="cls-15" data-name="Path 1360" transform="translate(-268.41 -157.397)"/>
        <path id="Path_1361" d="M59.817 419.27l25.823 54.589 2.942 55.566h-18.3l-7.847-57.53-15.69-27.783-15.69 85.313h-18.3l5.545-63.413L0 419.925z" class="cls-2" data-name="Path 1361" transform="translate(-.012 -259.721)"/>
        <path id="Path_1362" d="M469.273 777.74l5.556 8.5s18.646 7.19 10.461 11.76h-35.63v-20.26z" class="cls-16" data-name="Path 1362" transform="translate(-380.699 -508.036)"/>
        <path id="Path_1363" d="M317.233 777.74l5.556 8.5s18.646 7.19 10.461 11.76h-35.63v-20.26z" class="cls-16" data-name="Path 1363" transform="translate(-286.517 -508.036)"/>
        <g id="Group_9624" class="cls-17" data-name="Group 9624" transform="translate(23.513 12.771)">
            <path id="Path_1364" d="M340.375 102.571a20.492 20.492 0 0 0-10.145 2.664 20.591 20.591 0 0 1 18.331 36.817 20.595 20.595 0 0 0-8.185-39.493z" class="cls-18" data-name="Path 1364" transform="translate(-330.23 -102.56)"/>
        </g>
        <path id="Path_1365" d="M334.588 69l-5.731 8.752c-2.059 3.147-5.05 6.72-8.752 5.99-1.72-.339-3.1-1.579-4.471-2.664a26.12 26.12 0 0 0-15.792-6.024C294.1 75.02 288.231 77.6 285 82.342c-2.394 3.5-3.219 7.812-3.691 12.021-.948 8.418 0 18.353 7.029 23.08a3.3 3.3 0 0 0 1.994.719 3.512 3.512 0 0 0 1.948-1.012c8.8-7.371 13.7-19.358 24.294-24.419 4.677-2.23 11.481-2.249 15.252-6.039 5.556-5.572-.594-12.566 2.762-17.692z" class="cls-19" data-name="Path 1365" transform="translate(-276.222 -69)"/>
        <g id="Group_9625" class="cls-17" data-name="Group 9625" transform="translate(12.808)">
            <path id="Path_1366" d="M342.058 90.922c1.374 1.092 2.748 2.333 4.471 2.664a4.947 4.947 0 0 0 2.116-.042c-1.64-.381-2.968-1.579-4.3-2.63a26.12 26.12 0 0 0-15.792-6.024c-.4 0-.8 0-1.206.034a26.62 26.62 0 0 1 14.711 5.998z" class="cls-20" data-name="Path 1366" transform="translate(-317.741 -78.843)"/>
            <path id="Path_1367" d="M347.658 69l-3.307 5.057c.316 4.159 2.142 8.752-1.731 12.634-3.775 3.805-10.579 3.805-15.252 6.039-10.606 5.061-15.5 17.052-24.294 24.419a6.277 6.277 0 0 1-.974.7 2.553 2.553 0 0 0 1.313.312 3.511 3.511 0 0 0 1.948-1.012c8.8-7.371 13.7-19.358 24.294-24.419 4.677-2.23 11.481-2.249 15.252-6.039 5.544-5.571-.607-12.565 2.751-17.691z" class="cls-21" data-name="Path 1367" transform="translate(-302.1 -69)"/>
        </g>
        <g id="Group_9626" class="cls-17" data-name="Group 9626" transform="translate(38.19 54.307)">
            <path id="Path_1368" d="M387.8 267.269c-1.739-17.63 3.714-42.156-15.035-55.559l-3.969.449c18.019 13.5 12.71 37.673 14.43 55.117 2.839 28.78 3.63 49.527 2.614 50.338-.5.381-6.256.556-14.015.578 9.982.027 18-.1 18.593-.578 1.013-.814.221-21.565-2.618-50.345z" class="cls-22" data-name="Path 1368" transform="translate(-368.8 -211.71)"/>
        </g>
        <path id="Path_1369" d="M335.047 267.336L375 302.681l46.426-9.807-3.63-10.457-35.957 4.251-36-31.585a8.178 8.178 0 0 0-12.071 1.423 8.178 8.178 0 0 0 1.279 10.83z" class="cls-23" data-name="Path 1369" transform="translate(-307.992 -183.012)"/>
        <path id="Path_1370" d="M560.607 340.05s11.842.327 16.219-6.21S557 329.589 557 329.589z" class="cls-24" data-name="Path 1370" transform="translate(-447.192 -230.184)"/>
        <rect id="Rectangle_1508" width="17.649" height="17.649" class="cls-25" data-name="Rectangle 1508" rx="8.825" transform="translate(24.502 45.471)"/>
        <g id="Group_9627" class="cls-17" data-name="Group 9627" transform="translate(27.444 159.549)">
            <path id="Path_1371" d="M87.84 484.55l-15.69 85.313h3.6l14.807-80.511z" class="cls-2" data-name="Path 1371" transform="translate(-72.15 -459.708)"/>
            <path id="Path_1372" d="M177.191 473.859l-25.824-54.589-3.577.038 25.8 54.55 2.942 55.566h3.6z" class="cls-26" data-name="Path 1372" transform="translate(-119.006 -419.27)"/>
        </g>
        <g id="Group_9628" class="cls-17" data-name="Group 9628" transform="translate(86.937 269.708)">
            <path id="Path_1373" d="M504.092 786.247l-5.556-8.5H496.9l5.556 8.5s18.635 7.2 10.465 11.766h1.633c8.169-4.566-10.462-11.766-10.462-11.766z" class="cls-27" data-name="Path 1373" transform="translate(-496.9 -777.75)"/>
        </g>
        <g id="Group_9629" class="cls-17" data-name="Group 9629" transform="translate(30.72 269.708)">
            <path id="Path_1374" d="M356.358 786.247l-5.556-8.5h-1.632l5.556 8.5s18.646 7.192 10.461 11.766h1.633c8.162-4.566-10.462-11.766-10.462-11.766z" class="cls-28" data-name="Path 1374" transform="translate(-349.17 -777.75)"/>
        </g>
        <g id="Group_9630" class="cls-17" data-name="Group 9630" transform="translate(81.693 99.078)">
            <path id="Path_1375" d="M248.761 262.384l-.7-2.024-33.351 3.94z" class="cls-2" data-name="Path 1375" transform="translate(-214.71 -260.36)"/>
        </g>
        <path id="Path_1376" d="M43.17 186.429l11.108-20.979 18.509 6.994-18.509 26.737z" class="cls-21" data-name="Path 1376" transform="translate(-26.754 -102.49)"/>
        <path id="Path_1377" d="M367.763 254.454l38.849 34.378 45.143-9.536-3.5-10.172-34.972 4.133-35.01-30.732a7.953 7.953 0 0 0-11.74 1.385 7.953 7.953 0 0 0 1.23 10.544z" class="cls-29" data-name="Path 1377" transform="translate(-328.306 -175.267)"/>
        <path id="Path_1378" d="M587.157 325.187s11.519.32 15.773-6.039-19.271-4.133-19.271-4.133z" class="cls-29" data-name="Path 1378" transform="translate(-463.707 -221.163)"/>
        <circle id="Ellipse_250" cx="20.028" cy="20.028" r="20.028" class="cls-29" data-name="Ellipse 250" transform="translate(14.33 16.725)"/>
        <path id="Path_1379" d="M297.671 220.135s-25.725 17.322-19.191 70.872a46.879 46.879 0 0 1-1.652 19.274l-3.318 10.956s56.59 1.271 58.181 0c.986-.788.217-20.968-2.542-48.96-1.69-17.147 3.611-41-14.624-54.037z" class="cls-30" data-name="Path 1379" transform="translate(-271.582 -161.448)"/>
        <path id="Path_1380" d="M63.281 418.22L88.4 471.313l2.858 54.044h-17.8l-7.63-55.951-15.265-27.026L35.3 525.357H17.5l5.4-61.674-17.8-44.828z" class="cls-31" data-name="Path 1380" transform="translate(-3.172 -259.07)"/>
        <path id="Path_1381" d="M468.866 768.76l5.4 8.265s18.121 6.994 10.172 11.447H449.79V768.76z" class="cls-30" data-name="Path 1381" transform="translate(-380.78 -502.473)"/>
        <path id="Path_1382" d="M320.977 768.76l5.4 8.265s18.121 6.994 10.172 11.447H301.92V768.76z" class="cls-30" data-name="Path 1382" transform="translate(-289.18 -502.473)"/>
        <path id="Path_1383" d="M343.507 112.085a19.929 19.929 0 0 0-9.867 2.6 20.028 20.028 0 0 1 17.828 35.79 20.032 20.032 0 0 0-7.961-38.408z" class="cls-32" data-name="Path 1383" transform="translate(-308.83 -95.68)"/>
        <path id="Path_1384" d="M337.884 79.44l-5.571 8.52c-2 3.044-4.909 6.534-8.5 5.826-1.674-.331-3.01-1.522-4.346-2.6a25.427 25.427 0 0 0-15.343-5.86c-5.564-.034-11.291 2.481-14.461 7.086-2.325 3.4-3.128 7.611-3.592 11.694-.921 8.185 0 17.851 6.85 22.452a3.216 3.216 0 0 0 1.937.7 3.52 3.52 0 0 0 1.9-.986c8.555-7.166 13.319-18.829 23.632-23.75 4.547-2.169 11.165-2.188 14.841-5.872 5.369-5.421-.608-12.225 2.653-17.21z" class="cls-30" data-name="Path 1384" transform="translate(-279.179 -75.467)"/>
        <g id="Group_9631" class="cls-17" data-name="Group 9631" transform="translate(14.38 3.973)">
            <path id="Path_1385" d="M345.206 100.77c1.336 1.062 2.664 2.283 4.346 2.6a4.829 4.829 0 0 0 2.059-.038 11.377 11.377 0 0 1-4.186-2.557 25.349 25.349 0 0 0-15.332-5.864c-.381 0-.78 0-1.172.034a25.8 25.8 0 0 1 14.285 5.825z" class="cls-33" data-name="Path 1385" transform="translate(-321.524 -89.023)"/>
            <path id="Path_1386" d="M350.555 79.44l-3.219 4.92c.3 4.045 2.085 8.5-1.686 12.288-3.672 3.684-10.275 3.7-14.841 5.872-10.316 4.92-15.073 16.584-23.632 23.75a6.087 6.087 0 0 1-.948.681 2.481 2.481 0 0 0 1.275.3 3.521 3.521 0 0 0 1.9-.986c8.555-7.166 13.319-18.829 23.632-23.75 4.547-2.169 11.165-2.188 14.841-5.872 5.399-5.414-.583-12.218 2.678-17.203z" class="cls-33" data-name="Path 1386" transform="translate(-306.23 -79.44)"/>
        </g>
        <path id="Path_1387" d="M389.633 272.267c-1.69-17.147 3.611-41-14.624-54.037l-3.859.438c17.524 13.132 12.36 36.65 14.034 53.611 2.759 27.993 3.528 48.173 2.542 48.96-.483.381-6.089.54-13.631.563 9.711.027 17.5-.1 18.083-.563.986-.8.222-20.976-2.545-48.972z" class="cls-32" data-name="Path 1387" transform="translate(-332.066 -161.442)"/>
        <path id="Path_1388" d="M338.312 272.339l38.849 34.361 45.144-9.536-3.5-10.172-34.972 4.133-35.01-30.732a7.953 7.953 0 0 0-11.74 1.385 7.953 7.953 0 0 0 1.229 10.561z" class="cls-29" data-name="Path 1388" transform="translate(-310.058 -186.337)"/>
        <path id="Path_1389" d="M557.717 343.057s11.519.32 15.773-6.039-19.271-4.133-19.271-4.133z" class="cls-29" data-name="Path 1389" transform="translate(-445.47 -232.232)"/>
        <rect id="Rectangle_1509" width="17.166" height="17.166" class="cls-29" data-name="Rectangle 1509" rx="8.583" transform="translate(25.773 48.195)"/>
        <g id="Group_9632" class="cls-17" data-name="Group 9632" transform="translate(28.635 159.15)">
            <path id="Path_1390" d="M90.54 481.71l-15.26 82.977h3.5l14.4-78.3z" class="cls-33" data-name="Path 1390" transform="translate(-75.28 -457.549)"/>
            <path id="Path_1391" d="M177.438 471.313l-25.116-53.093-3.482.038 25.1 53.055 2.858 54.044h3.5z" class="cls-33" data-name="Path 1391" transform="translate(-120.847 -418.22)"/>
        </g>
        <path id="Path_1392" d="M502.734 777.035l-5.4-8.265h-1.594l5.4 8.265s18.121 6.994 10.172 11.447h1.591c7.953-4.452-10.169-11.447-10.169-11.447z" class="cls-32" data-name="Path 1392" transform="translate(-409.244 -502.479)"/>
        <path id="Path_1393" d="M359.013 777.035l-5.4-8.265H352l5.4 8.265s18.121 6.994 10.172 11.447h1.591c7.953-4.452-10.15-11.447-10.15-11.447z" class="cls-32" data-name="Path 1393" transform="translate(-320.203 -502.479)"/>
        <path id="Path_1394" d="M247.045 265.637l-.674-1.967-32.441 3.83z" class="cls-32" data-name="Path 1394" transform="translate(-132.533 -163.333)"/>
        <path id="Path_1395" d="M47.09 191.761l10.8-20.4 18 6.8-18 26z" class="cls-30" data-name="Path 1395" transform="translate(-29.183 -106.151)"/>
        <path id="Path_1396" d="M730.24 280.658l32.726-44.5a1.9 1.9 0 0 1 2.664-.4l1.522 1.123a1.9 1.9 0 0 1 .4 2.664l-32.726 44.5z" class="cls-34" data-name="Path 1396" transform="translate(-554.507 -172.066)"/>
        <path id="Path_1397" d="M731.95 283.109l32.171-43.762a1.9 1.9 0 0 1 2.664-.4l.156.114a1.9 1.9 0 0 1 .4 2.664l-32.171 43.762z" class="cls-1" data-name="Path 1397" transform="translate(-555.567 -174.043)"/>
    </g>
</svg>
