<svg xmlns="http://www.w3.org/2000/svg" width="387.344" height="264.51" viewBox="0 0 387.344 264.51">
    <defs>
        <style>
            .cls-1{fill:rgba(53,76,152,.05)}.cls-2,.cls-3,.cls-4{fill:none;stroke:#d3d3d3;stroke-linecap:round;stroke-miterlimit:10}.cls-2{stroke-width:2.1px}.cls-3{stroke-width:2.094px}.cls-4{stroke-width:2.11px}.cls-5{fill:#0a9cb7}.cls-6{fill:#569db1}.cls-7{fill:#fff}.cls-8{fill:#fac42c}.cls-9{fill:#db353a}.cls-10{fill:#16b0a6}.cls-11{fill:#085347}.cls-12{fill:#ffd765}.cls-13{fill:#fff7e2}.cls-14{fill:#e30613}.cls-15{fill:#0090bb}.cls-16{fill:#07627f}.cls-17{fill:#6cb1cb}.cls-18{fill:#a0110a}.cls-19{fill:#ded4a9}.cls-20{fill:rgba(53,76,152,.1)}.cls-21{fill:url(#linear-gradient)}.cls-22,.cls-23{fill:#228fa9;opacity:.56}.cls-23{fill:#354c98}.cls-24{fill:#b1cecd;opacity:.5}.cls-25{fill:#d20a11}.cls-26{fill:#ad1310}.cls-27{fill:#ef9200}.cls-28{fill:#cc6a09}.cls-29{fill:#eab92e}.cls-30{fill:#e1811f}.cls-31{fill:#c8621b}
        </style>
        <linearGradient id="linear-gradient" x2="1" y1=".5" y2=".5" gradientUnits="objectBoundingBox">
            <stop offset="0" stop-color="#0a9cb7"/>
            <stop offset="1" stop-color="#0077b5"/>
        </linearGradient>
    </defs>
    <g id="art_svg">
        <path id="Path_1" d="M91.631 112.106C225.25 87.991 157.293-3.411 210.911-14.5c65.583-13.566 127.632 31.539 127.632 31.539v230.425H-48.8s6.812-111.243 140.431-135.358z" class="cls-1" data-name="Path 1" transform="translate(48.802 17.046)"/>
        <g id="education" transform="translate(55.273 4.835)">
            <g id="BACKGROUND" transform="translate(0 25.456)">
                <path id="Path_3" d="M390.23 197.124a9.289 9.289 0 1 1-5.819-11.769 9.289 9.289 0 0 1 5.819 11.769z" class="cls-2" data-name="Path 3" transform="translate(-129.158 -141.603)"/>
                <path id="Path_4" d="M388.784 197.527a6.342 6.342 0 1 1-3.985-8.039 6.342 6.342 0 0 1 3.985 8.039z" class="cls-2" data-name="Path 4" transform="translate(-130.503 -142.946)"/>
                <rect id="Rectangle_22" width="12.518" height="5.605" class="cls-3" data-name="Rectangle 22" rx="1.536" transform="rotate(74.291 88.462 202.75)"/>
                <path id="Path_5" d="M390.009 210.73l.776 2.638-2.336.687-.77-2.645" class="cls-2" data-name="Path 5" transform="translate(-134.022 -149.698)"/>
                <rect id="Rectangle_23" width="31.921" height="9.729" class="cls-2" data-name="Rectangle 23" rx="1.91" transform="rotate(69.51 81.363 185.177)"/>
                <path id="Line_11" d="M0 1.175L3.215 0" class="cls-2" data-name="Line 11" transform="translate(218.762 50.335)"/>
                <path id="Line_12" d="M0 1.182L3.222 0" class="cls-2" data-name="Line 12" transform="translate(220.115 53.99)"/>
                <path id="Line_13" d="M0 1.182L3.215 0" class="cls-2" data-name="Line 13" transform="translate(221.476 57.652)"/>
                <path id="Line_14" d="M0 1.182L3.222 0" class="cls-2" data-name="Line 14" transform="translate(222.829 61.314)"/>
                <path id="Line_15" d="M0 1.182L3.215 0" class="cls-2" data-name="Line 15" transform="translate(224.189 64.976)"/>
                <path id="Line_16" d="M0 1.175L3.222 0" class="cls-2" data-name="Line 16" transform="translate(225.543 68.638)"/>
                <path id="Line_17" d="M0 1.175L3.215 0" class="cls-2" data-name="Line 17" transform="translate(226.903 72.3)"/>
                <path id="Path_6" d="M338.56 152.672c-4.157 6.087-9.8 9.468-12.594 7.558s-1.7-8.4 2.46-14.483 9.8-9.461 12.594-7.558 1.724 8.402-2.46 14.483z" class="cls-2" data-name="Path 6" transform="translate(-114.226 -126.831)"/>
                <path id="Path_7" d="M332.807 157.533c-7.242 1.374-13.625-.234-14.25-3.566s4.734-7.132 11.976-8.5 13.625.24 14.25 3.573-4.734 7.132-11.976 8.493z" class="cls-2" data-name="Path 7" transform="translate(-112.376 -129.123)"/>
                <path id="Path_8" d="M340.727 147.343c1.374 7.242-.234 13.625-3.566 14.25s-7.132-4.741-8.492-11.982.234-13.618 3.566-14.243 7.131 4.732 8.492 11.975z" class="cls-2" data-name="Path 8" transform="translate(-115.404 -126.099)"/>
                <path id="Path_9" d="M338.656 154.767a2.666 2.666 0 1 1-.687-3.71 2.666 2.666 0 0 1 .687 3.71z" class="cls-2" data-name="Path 9" transform="translate(-117.16 -130.878)"/>
                <ellipse id="Ellipse_2" cx="13.343" cy="7.64" class="cls-2" data-name="Ellipse 2" rx="13.343" ry="7.64" transform="rotate(-43.02 54.427 -47.224)"/>
                <path id="Path_10" d="M102.19 155.954c-8.245-1.189-15.115-5.249-15.425-9.062s6.184-5.95 14.428-4.761 15.115 5.242 15.425 9.062-6.197 5.95-14.428 4.761z" class="cls-2" data-name="Path 10" transform="translate(-39.853 -128.128)"/>
                <path id="Path_11" d="M112.162 146.471c.618 8.293-1.951 14.58-5.744 14.037s-7.352-7.7-7.97-16.016 1.951-14.58 5.744-14.037 7.359 7.716 7.97 16.016z" class="cls-2" data-name="Path 11" transform="translate(-43.483 -124.567)"/>
                <path id="Path_12" d="M109.379 153.381c-1.079 1.01-2.968.735-4.219-.6s-1.374-3.243-.316-4.253 2.968-.728 4.219.611 1.394 3.239.316 4.242z" class="cls-2" data-name="Path 12" transform="translate(-45.29 -130.041)"/>
                <path id="Path_13" d="M427.232 208.37a122.511 122.511 0 0 1 8.327 9.269c1.773 2.274-1.024 7.709-5.215 3.607s-10.024-10.375-12.367-13.116c-3.957-4.651 2.686-10.505 6.754-6.266 2.748 2.879 12.5 13.741 15.061 16.929 3.985 4.919-5.1 12.161-9.619 6.871s-11.392-12.656-11.392-12.656" class="cls-2" data-name="Path 13" transform="translate(-143.124 -146.465)"/>
                <path id="Path_14" d="M395 268.074a9.289 9.289 0 1 1-3 12.793 9.289 9.289 0 0 1 3-12.793z" class="cls-2" data-name="Path 14" transform="translate(-134.939 -167.206)"/>
                <path id="Path_15" d="M397.878 271.929a6.335 6.335 0 1 1-2.843 3.938 6.342 6.342 0 0 1 2.843-3.938z" class="cls-2" data-name="Path 15" transform="translate(-136.271 -168.553)"/>
                <rect id="Rectangle_24" width="12.553" height="5.62" class="cls-2" data-name="Rectangle 24" rx="1.54" transform="rotate(-65.94 207.993 -157.512)"/>
                <path id="Path_16" d="M407.81 266.088l1.086-2.528 2.233.955-1.086 2.535" class="cls-2" data-name="Path 16" transform="translate(-140.322 -166.23)"/>
                <rect id="Rectangle_25" width="31.921" height="9.729" class="cls-2" data-name="Rectangle 25" rx="1.91" transform="rotate(124.03 103.036 143.155)"/>
                <path id="Line_18" d="M0 0l2.824 1.931" class="cls-2" data-name="Line 18" transform="translate(268.945 136.005)"/>
                <path id="Line_19" d="M0 0l2.831 1.938" class="cls-2" data-name="Line 19" transform="translate(266.746 139.234)"/>
                <path id="Line_20" d="M0 0l2.831 1.938" class="cls-2" data-name="Line 20" transform="translate(264.555 142.463)"/>
                <path id="Line_21" d="M0 0l2.824 1.938" class="cls-2" data-name="Line 21" transform="translate(262.363 145.693)"/>
                <path id="Line_22" d="M0 0l2.824 1.938" class="cls-2" data-name="Line 22" transform="translate(260.171 148.922)"/>
                <path id="Line_23" d="M0 0l2.831 1.938" class="cls-2" data-name="Line 23" transform="translate(257.973 152.151)"/>
                <path id="Line_24" d="M0 0l2.831 1.938" class="cls-2" data-name="Line 24" transform="translate(255.781 155.38)"/>
                <path id="Path_17" d="M368.464 308.127c-2.116 7.056-6.472 11.989-9.715 10.993s-4.157-7.489-2.061-14.545 6.479-11.989 9.722-10.993 4.177 7.489 2.054 14.545z" class="cls-2" data-name="Path 17" transform="translate(-123.972 -175.585)"/>
                <path id="Path_18" d="M363.163 313.861c-6.493 3.49-13.054 3.9-14.655.914s2.35-8.245 8.843-11.728 13.054-3.9 14.655-.907-2.336 8.21-8.843 11.721z" class="cls-2" data-name="Path 18" transform="translate(-121.653 -177.677)"/>
                <path id="Path_19" d="M367.41 303.811c3.49 6.493 3.9 13.054.914 14.655s-8.245-2.35-11.728-8.843-3.9-13.054-.914-14.655 8.238 2.364 11.728 8.843z" class="cls-2" data-name="Path 19" transform="translate(-123.385 -175.948)"/>
                <path id="Path_20" d="M367.133 311.794a2.666 2.666 0 1 1-1.786-3.325 2.666 2.666 0 0 1 1.786 3.325z" class="cls-2" data-name="Path 20" transform="translate(-125.96 -180.248)"/>
                <path id="Path_21" d="M38.766 243.077a121.189 121.189 0 0 1-12.436-.818c-2.865-.385-4.651-6.225 1.209-6.184s14.428.412 18.008.742c6.087.557 5.421 9.392-.453 9.2-3.978-.131-18.551-1.113-22.6-1.587-6.287-.735-4.851-12.264 2.061-11.68s16.991 1.092 16.991 1.092" class="cls-2" data-name="Path 21" transform="translate(-18.491 -156.582)"/>
                <path id="Path_22" d="M319.65 199.467l-.453 3.188a.474.474 0 0 0 .144.419l2.37 2.185a.474.474 0 0 1-.24.818l-3.174.557a.488.488 0 0 0-.35.275l-1.34 2.927a.481.481 0 0 1-.859 0l-1.5-2.844a.474.474 0 0 0-.371-.247l-3.2-.371a.481.481 0 0 1-.282-.811l2.24-2.315a.481.481 0 0 0 .124-.426l-.611-3.154a.481.481 0 0 1 .687-.529l2.893 1.422a.488.488 0 0 0 .447 0l2.81-1.58a.474.474 0 0 1 .673.488z" class="cls-2" data-name="Path 22" transform="translate(-109.793 -146.006)"/>
                <path id="Path_23" d="M361.342 254.826l1.965 2.556a.488.488 0 0 0 .405.185l3.215-.172a.481.481 0 0 1 .419.749l-1.821 2.659a.453.453 0 0 0-.048.44l1.154 3a.481.481 0 0 1-.584.632l-3.085-.907a.481.481 0 0 0-.44.082l-2.5 2.061a.474.474 0 0 1-.776-.357l-.089-3.222a.481.481 0 0 0-.22-.385l-2.7-1.766a.474.474 0 0 1 .1-.852l3.037-1.079a.5.5 0 0 0 .3-.33l.831-3.112a.474.474 0 0 1 .838-.186z" class="cls-2" data-name="Path 23" transform="translate(-124.113 -163.439)"/>
                <path id="Path_24" d="M59.162 183.064l-1.141 3.016a.481.481 0 0 0 .055.44l1.834 2.645a.474.474 0 0 1-.412.749l-3.222-.151a.481.481 0 0 0-.4.186l-1.951 2.57a.474.474 0 0 1-.838-.165l-.852-3.106a.5.5 0 0 0-.3-.33l-3.078-1.058a.481.481 0 0 1-.1-.852l2.693-1.766a.474.474 0 0 0 .213-.392l.069-3.222a.474.474 0 0 1 .776-.357l2.535 2.013a.481.481 0 0 0 .44.082l3.078-.941a.474.474 0 0 1 .6.639z" class="cls-2" data-name="Path 24" transform="translate(-27.894 -140.445)"/>
                <path id="Path_25" d="M165.058 188.058a9.289 9.289 0 1 1 6.48 2.936 9.289 9.289 0 0 1-6.48-2.936z" class="cls-2" data-name="Path 25" transform="translate(-63.572 -137.709)"/>
                <path id="Path_26" d="M168.539 187.371a6.349 6.349 0 1 1 8.932.289 6.349 6.349 0 0 1-8.932-.289z" class="cls-2" data-name="Path 26" transform="translate(-64.902 -139.036)"/>
                <rect id="Rectangle_26" width="12.553" height="5.62" class="cls-2" data-name="Rectangle 26" rx="1.54" transform="rotate(-167.29 50.442 16.84)"/>
                <path id="Path_27" d="M161.413 183.521l-2.693-.563.495-2.377 2.693.563" class="cls-2" data-name="Path 27" transform="translate(-62.373 -140.263)"/>
                <path id="Path_28" d="M125.507 331.806a9.282 9.282 0 1 1 3.062-6.416 9.289 9.289 0 0 1-3.062 6.416z" class="cls-2" data-name="Path 28" transform="translate(-47.127 -182.52)"/>
                <path id="Path_29" d="M124.883 330.97a6.342 6.342 0 1 1 .467-8.932 6.342 6.342 0 0 1-.467 8.932z" class="cls-2" data-name="Path 29" transform="translate(-48.468 -183.869)"/>
                <rect id="Rectangle_27" width="12.553" height="5.62" class="cls-2" data-name="Rectangle 27" rx="1.54" transform="rotate(103.84 -24.467 105.681)"/>
                <path id="Path_30" d="M120.832 342.3l-.618 2.68-2.364-.543.618-2.686" class="cls-2" data-name="Path 30" transform="translate(-49.584 -190.698)"/>
                <path id="Path_31" d="M111.373 205.625a17.4 17.4 0 1 0 2.123 31.791" class="cls-2" data-name="Path 31" transform="translate(-40.255 -147.774)"/>
                <circle id="Ellipse_3" cx="13.982" cy="13.982" r="13.982" class="cls-2" data-name="Ellipse 3" transform="rotate(-5.88 625.03 -456.434)"/>
                <path id="Path_32" d="M113.81 209.69c9.344 3.964 13.961 20.186 1.979 27.524" class="cls-2" data-name="Path 32" transform="translate(-48.319 -149.372)"/>
                <path id="Path_33" d="M107.876 237.352c-6.4-3.586-10.869-18.077-1.463-27.132" class="cls-2" data-name="Path 33" transform="translate(-44.316 -149.538)"/>
                <path id="Line_25" d="M2.041 27.441L0 0" class="cls-2" data-name="Line 25" transform="translate(63.993 60.51)"/>
                <path id="Line_26" d="M23.099 0L0 1.477" class="cls-2" data-name="Line 26" transform="translate(54.45 81.053)"/>
                <path id="Line_27" d="M23.099 0L0 1.47" class="cls-2" data-name="Line 27" transform="translate(53.364 65.67)"/>
                <path id="Line_28" d="M27.861 0L0 1.711" class="cls-2" data-name="Line 28" transform="translate(51.557 73.2)"/>
                <path id="Path_34" d="M103.832 196.62l-13.542 5.222a8.162 8.162 0 0 0 8.671 1.745c4.184-1.574 4.871-6.967 4.871-6.967z" class="cls-2" data-name="Path 34" transform="translate(-40.959 -145.282)"/>
                <path id="Path_35" d="M85.853 275.193c3.6 6.431 4.122 12.986 1.168 14.641s-8.245-2.212-11.879-8.643-4.122-12.979-1.161-14.634 8.272 2.243 11.872 8.636z" class="cls-2" data-name="Path 35" transform="translate(-35.251 -167.049)"/>
                <path id="Path_36" d="M87.1 279.434c-2.02 7.1-6.266 12.1-9.523 11.179s-4.291-7.413-2.292-14.513 6.266-12.092 9.53-11.172 4.285 7.416 2.285 14.506z" class="cls-2" data-name="Path 36" transform="translate(-35.944 -166.625)"/>
                <path id="Path_37" d="M80.114 274.6c7.091 2 12.092 6.266 11.179 9.53s-7.42 4.287-14.511 2.288-12.092-6.266-11.172-9.53 7.414-4.283 14.504-2.288z" class="cls-2" data-name="Path 37" transform="translate(-33.202 -169.366)"/>
                <path id="Path_38" d="M85.456 281.149a2.666 2.666 0 1 1-3.628-1.024 2.666 2.666 0 0 1 3.628 1.024z" class="cls-2" data-name="Path 38" transform="translate(-37.884 -171.307)"/>
                <path id="Path_39" d="M157.98 218.677l2.652 1.828a.488.488 0 0 0 .447.048l3-1.154a.481.481 0 0 1 .632.584l-.914 3.092a.467.467 0 0 0 .082.433l2.061 2.508a.474.474 0 0 1-.357.776l-3.215.082a.5.5 0 0 0-.392.22l-1.752 2.7a.481.481 0 0 1-.852-.1l-1.1-3.037a.467.467 0 0 0-.323-.3l-3.112-.838a.481.481 0 0 1-.172-.838l2.556-1.965a.467.467 0 0 0 .186-.405l-.165-3.215a.481.481 0 0 1 .735-.419z" class="cls-2" data-name="Path 39" transform="translate(-61.049 -152.162)"/>
                <path id="Path_40" d="M127.02 266.753l2.659 1.821a.481.481 0 0 0 .44.055l3.009-1.154a.474.474 0 0 1 .625.577l-.914 3.092a.488.488 0 0 0 .089.433l2.061 2.508a.474.474 0 0 1-.357.776l-3.222.089a.453.453 0 0 0-.385.213l-1.793 2.721a.474.474 0 0 1-.852-.1l-1.072-3.037a.481.481 0 0 0-.33-.3l-3.14-.859a.474.474 0 0 1-.165-.838l2.556-1.958a.488.488 0 0 0 .186-.405l-.172-3.215a.481.481 0 0 1 .776-.419z" class="cls-2" data-name="Path 40" transform="translate(-51.346 -167.197)"/>
                <path id="Path_41" d="M401.936 160.186a17.4 17.4 0 1 0-15.686-27.73" class="cls-2" data-name="Path 41" transform="translate(-133.575 -123.016)"/>
                <circle id="Ellipse_4" cx="14.052" cy="14.052" r="14.052" class="cls-4" data-name="Ellipse 4" transform="rotate(-58.87 145.54 -208.145)"/>
                <path id="Path_42" d="M407.5 158.348c-10.141.474-21.3-12.147-13.707-23.958" class="cls-2" data-name="Path 42" transform="translate(-135.151 -125.809)"/>
                <path id="Path_43" d="M400.05 132c7.317.453 17.63 11.584 13.054 23.821" class="cls-2" data-name="Path 43" transform="translate(-137.893 -125.061)"/>
                <path id="Line_29" d="M0 0l13.728 23.848" class="cls-2" data-name="Line 29" transform="translate(259.883 7.867)"/>
                <path id="Line_30" d="M0 11.343L20.179 0" class="cls-2" data-name="Line 30" transform="translate(252.497 7.73)"/>
                <path id="Line_31" d="M0 11.343L20.179 0" class="cls-2" data-name="Line 31" transform="translate(260.144 21.127)"/>
                <path id="Line_32" d="M0 13.618L24.37 0" class="cls-2" data-name="Line 32" transform="translate(254.214 13.343)"/>
                <path id="Path_44" d="M423.782 174.357l9.962-10.553a8.162 8.162 0 0 0-8.588 2.164c-3.098 3.243-1.374 8.389-1.374 8.389z" class="cls-2" data-name="Path 44" transform="translate(-145.17 -134.878)"/>
                <path id="Path_45" d="M153.3 144.467l-1.25-2.968a.488.488 0 0 0-.344-.282l-3.161-.646a.481.481 0 0 1-.213-.831l2.432-2.109a.481.481 0 0 0 .165-.412l-.357-3.2a.481.481 0 0 1 .721-.467l2.748 1.67a.474.474 0 0 0 .44 0l2.934-1.333a.481.481 0 0 1 .687.543l-.735 3.14a.481.481 0 0 0 .117.433l2.171 2.377a.481.481 0 0 1-.316.8l-3.209.275a.488.488 0 0 0-.378.24l-1.587 2.8a.481.481 0 0 1-.866-.027z" class="cls-2" data-name="Path 45" transform="translate(-59.072 -125.525)"/>
                <path id="Path_46" d="M429.478 291.769l2.948-1.3a.488.488 0 0 0 .282-.35l.6-3.161a.474.474 0 0 1 .825-.234l2.151 2.4a.447.447 0 0 0 .412.158l3.195-.405a.481.481 0 0 1 .474.687l-1.615 2.748a.453.453 0 0 0 0 .44l1.374 2.913a.474.474 0 0 1-.529.687l-3.154-.687a.467.467 0 0 0-.426.124l-2.343 2.205a.474.474 0 0 1-.8-.3l-.33-3.2a.474.474 0 0 0-.247-.371l-2.824-1.546a.481.481 0 0 1 .014-.8z" class="cls-2" data-name="Path 46" transform="translate(-147.032 -173.429)"/>
            </g>
            <g id="OBJECTS" transform="translate(45.812)">
                <circle id="Ellipse_5" cx="17.746" cy="17.746" r="17.746" class="cls-5" data-name="Ellipse 5" transform="rotate(-67.775 138.611 14.857)"/>
                <circle id="Ellipse_6" cx="8.746" cy="8.746" r="8.746" class="cls-5" data-name="Ellipse 6" transform="rotate(-45 186.399 -9.594)"/>
                <path id="Path_47" d="M197.284 251.852a1.752 1.752 0 1 1-1.752-1.752 1.752 1.752 0 0 1 1.752 1.752z" class="cls-5" data-name="Path 47" transform="translate(-119.157 -136.562)"/>
                <circle id="Ellipse_7" cx="6.706" cy="6.706" r="6.706" class="cls-6" data-name="Ellipse 7" transform="translate(60.051 133.078)"/>
                <circle id="Ellipse_8" cx="12.244" cy="12.244" r="12.244" class="cls-5" data-name="Ellipse 8" transform="translate(45.471 131.91)"/>
                <path id="Path_48" d="M174.58 269.993a2.913 2.913 0 1 1-.856-2.062 2.92 2.92 0 0 1 .856 2.062z" class="cls-5" data-name="Path 48" transform="translate(-111.321 -141.876)"/>
                <circle id="Ellipse_9" cx="14.291" cy="14.291" r="14.291" class="cls-5" data-name="Ellipse 9" transform="rotate(-76.6 141.021 -.698)"/>
                <path id="Path_49" d="M296.537 260.949a3.209 3.209 0 1 1-3.209-3.209 3.209 3.209 0 0 1 3.209 3.209z" class="cls-6" data-name="Path 49" transform="translate(-149.305 -138.953)"/>
                <circle id="Ellipse_10" cx="12.965" cy="12.965" r="12.965" class="cls-5" data-name="Ellipse 10" transform="translate(133.395 121.858)"/>
                <path id="Path_50" d="M305.872 254.129a2.336 2.336 0 1 1-2.329-2.329 2.336 2.336 0 0 1 2.329 2.329z" class="cls-5" data-name="Path 50" transform="translate(-152.772 -137.094)"/>
                <circle id="Ellipse_11" cx="9.33" cy="9.33" r="9.33" class="cls-6" data-name="Ellipse 11" transform="rotate(-45 245.702 -112.947)"/>
                <circle id="Ellipse_12" cx="7.578" cy="7.578" r="7.578" class="cls-6" data-name="Ellipse 12" transform="translate(163.564 137.455)"/>
                <circle id="Ellipse_13" cx="7.001" cy="7.001" r="7.001" class="cls-5" data-name="Ellipse 13" transform="rotate(-45 231.117 -126.525)"/>
                <path id="Path_51" d="M344.179 259.515a2.625 2.625 0 1 1-2.625-2.625 2.625 2.625 0 0 1 2.625 2.625z" class="cls-5" data-name="Path 51" transform="translate(-164.579 -138.687)"/>
                <path id="Rectangle_28" d="M0 0h15.026v40.935H0z" class="cls-6" data-name="Rectangle 28" transform="translate(106.847 86.935)"/>
                <path id="Rectangle_29" d="M0 0h10.402v50.046H0z" class="cls-7" data-name="Rectangle 29" transform="translate(109.217 94.616)"/>
                <circle id="Ellipse_14" cx="8.966" cy="8.966" r="8.966" class="cls-7" data-name="Ellipse 14" transform="rotate(-45 211.069 -46.17)"/>
                <path id="Path_52" d="M228.282 284.751a3.614 3.614 0 1 1-1.056-2.56 3.621 3.621 0 0 1 1.056 2.56z" class="cls-7" data-name="Path 52" transform="translate(-127.687 -146.272)"/>
                <circle id="Ellipse_15" cx="8.623" cy="8.623" r="8.623" class="cls-7" data-name="Ellipse 15" transform="rotate(-23.94 355.176 -113.53)"/>
                <circle id="Ellipse_16" cx="11.55" cy="11.55" r="11.55" class="cls-7" data-name="Ellipse 16" transform="rotate(-76.52 131.604 37.497)"/>
                <circle id="Ellipse_17" cx="7.929" cy="7.929" r="7.929" class="cls-7" data-name="Ellipse 17" transform="rotate(-45 204.705 12.75)"/>
                <circle id="Ellipse_18" cx="9.701" cy="9.701" r="9.701" class="cls-7" data-name="Ellipse 18" transform="rotate(-46.61 211.79 -59.442)"/>
                <circle id="Ellipse_19" cx="15.17" cy="15.17" r="15.17" class="cls-7" data-name="Ellipse 19" transform="rotate(-48.48 222.82 -55.164)"/>
                <path id="Path_53" d="M317.1 296.8a6.369 6.369 0 1 1-1.865-4.511 6.376 6.376 0 0 1 1.865 4.511z" class="cls-7" data-name="Path 53" transform="translate(-153.758 -149.18)"/>
                <circle id="Ellipse_20" cx="9.138" cy="9.138" r="9.138" class="cls-7" data-name="Ellipse 20" transform="rotate(-45 254.47 -109.766)"/>
                <path id="Path_54" d="M253.985 290.829s-10.265-4.775-19.657-4.631-21.388 2.893-23.12 4.775-4.775 9.392-4.487 9.825 47.552 0 47.552 0z" class="cls-7" data-name="Path 54" transform="translate(-123.2 -147.858)"/>
                <circle id="Ellipse_21" cx="1.58" cy="1.58" r="1.58" class="cls-7" data-name="Ellipse 21" transform="translate(133.203 125.898)"/>
                <circle id="Ellipse_22" cx="4.734" cy="4.734" r="4.734" class="cls-7" data-name="Ellipse 22" transform="translate(145.831 127.485)"/>
                <path id="Path_55" d="M222.069 271.523a.879.879 0 1 1-.873-.873.88.88 0 0 1 .873.873z" class="cls-7" data-name="Path 55" transform="translate(-127.459 -142.993)"/>
                <path id="Path_56" d="M198.416 276.673a5.263 5.263 0 1 1-5.263-5.263 5.263 5.263 0 0 1 5.263 5.263z" class="cls-7" data-name="Path 56" transform="translate(-117.313 -143.231)"/>
                <path id="Path_57" d="M202.252 265.831a1.051 1.051 0 1 1-1.051-1.051 1.051 1.051 0 0 1 1.051 1.051z" class="cls-7" data-name="Path 57" transform="translate(-121.15 -141.156)"/>
                <path id="Path_58" d="M338.708 282.1a1.759 1.759 0 1 1-1.752-1.752 1.759 1.759 0 0 1 1.752 1.752z" class="cls-7" data-name="Path 58" transform="translate(-163.408 -146.028)"/>
                <path id="Path_59" d="M175.29 282.34a1.23 1.23 0 1 1-1.23-1.23 1.23 1.23 0 0 1 1.23 1.23z" class="cls-7" data-name="Path 59" transform="translate(-112.601 -146.266)"/>
                <path id="Rectangle_30" d="M0 0h3.277v52.389H0z" class="cls-8" data-name="Rectangle 30" transform="translate(112.948 98.876)"/>
                <circle id="Ellipse_23" cx="11.027" cy="11.027" r="11.027" class="cls-8" data-name="Ellipse 23" transform="translate(100.031 134.583)"/>
                <circle id="Ellipse_24" cx="5.4" cy="5.4" r="5.4" class="cls-8" data-name="Ellipse 24" transform="rotate(-80.8 136.322 23.012)"/>
                <circle id="Ellipse_25" cx="8.554" cy="8.554" r="8.554" class="cls-8" data-name="Ellipse 25" transform="translate(79.316 135.703)"/>
                <circle id="Ellipse_26" cx="2.7" cy="2.7" r="2.7" class="cls-8" data-name="Ellipse 26" transform="translate(76.616 137.056)"/>
                <path id="Path_60" d="M199.615 298.087a7.207 7.207 0 1 1-7.2-7.207 7.207 7.207 0 0 1 7.2 7.207z" class="cls-8" data-name="Path 60" transform="translate(-116.472 -149.324)"/>
                <circle id="Ellipse_27" cx="6.527" cy="6.527" r="6.527" class="cls-8" data-name="Ellipse 27" transform="translate(57.261 143.583)"/>
                <circle id="Ellipse_28" cx="4.274" cy="4.274" r="4.274" class="cls-8" data-name="Ellipse 28" transform="translate(117.139 135.256)"/>
                <circle id="Ellipse_29" cx="11.481" cy="11.481" r="11.481" class="cls-8" data-name="Ellipse 29" transform="rotate(-76.64 157.416 3.888)"/>
                <circle id="Ellipse_30" cx="5.4" cy="5.4" r="5.4" class="cls-8" data-name="Ellipse 30" transform="rotate(-22.39 437.487 -276.318)"/>
                <path id="Path_61" d="M315.068 301.434a5.627 5.627 0 1 1-1.648-3.986 5.634 5.634 0 0 1 1.648 3.986z" class="cls-8" data-name="Path 61" transform="translate(-153.585 -150.863)"/>
                <circle id="Ellipse_31" cx="5.696" cy="5.696" r="5.696" class="cls-8" data-name="Ellipse 31" transform="rotate(-45 256.905 -115.643)"/>
                <path id="Path_62" d="M256.421 210.008c0 5.8-8.32 22.914-8.32 22.914s-8.32-17.115-8.32-22.914 3.724-10.5 8.32-10.5 8.32 4.702 8.32 10.5z" class="cls-9" data-name="Path 62" transform="translate(-133.551 -120.731)"/>
                <path id="Path_63" d="M254.463 208.242c0 3.875-4.761 15.322-4.761 15.322s-4.761-11.447-4.761-15.322 2.13-7.022 4.761-7.022 4.761 3.14 4.761 7.022z" class="cls-8" data-name="Path 63" transform="translate(-135.166 -121.266)"/>
                <path id="Path_64" d="M253.719 199.52h-13.838a2.205 2.205 0 0 1-2.061-1.374l-2.59-6.136h23.079l-2.549 6.177a2.205 2.205 0 0 1-2.041 1.333z" class="cls-10" data-name="Path 64" transform="translate(-132.128 -118.384)"/>
                <path id="Path_65" d="M257.3 198.07h-19.468l-.192-.46h19.849z" class="cls-11" data-name="Path 65" transform="translate(-132.882 -120.136)"/>
                <path id="Path_66" d="M217.813 175.865h-19.238a1.7 1.7 0 0 1-1.409-2.659l16.1-23.786c-.187 5.98-.208 17.692 4.547 26.445z" class="cls-12" data-name="Path 66" transform="translate(-120.125 -105.056)"/>
                <path id="Path_67" d="M276.15 175.853h19.238a1.7 1.7 0 0 0 1.409-2.686l-16.1-23.786c.159 6.787-.697 19.793-4.547 26.472z" class="cls-12" data-name="Path 67" transform="translate(-144.933 -105.044)"/>
                <path id="Path_68" d="M216.367 149.42l-3.435 5.043c1.2 5.9 2.151 17-6.122 21.4h14.078c-4.727-8.751-4.706-20.463-4.521-26.443z" class="cls-8" data-name="Path 68" transform="translate(-123.234 -105.056)"/>
                <path id="Path_69" d="M285.147 156l-4.466-6.589c.172 6.761-.687 19.767-4.542 26.445h12.271c-4.616-2.749-6.045-10.822-3.263-19.856z" class="cls-8" data-name="Path 69" transform="translate(-144.93 -105.053)"/>
                <path id="Path_70" d="M246.381 84.85c-3.586 0-7.943 3.119-12.161 10.636h25.133c-3.126-6.019-7.331-10.636-12.972-10.636z" class="cls-9" data-name="Path 70" transform="translate(-131.812 -84.85)"/>
                <path id="Path_71" d="M260.034 115.99a78.23 78.23 0 0 0-5.661-15.59h-25.134a87 87 0 0 0-7.427 19.286c-3.538 12.944-3.7 21.842-2.886 27.991h44.735c1.175-10.45-1.061-22.014-3.627-31.687z" class="cls-13" data-name="Path 71" transform="translate(-126.9 -89.716)"/>
                <path id="Path_72" d="M219.21 169.14a44.131 44.131 0 0 0 2.26 9.138 28.724 28.724 0 0 0 2.357 5.256 4.486 4.486 0 0 0 3.133 2.144c7.063 1.086 19.238 2 29.269 0a4.156 4.156 0 0 0 3.112-2.35 33.873 33.873 0 0 0 4.6-14.188z" class="cls-9" data-name="Path 72" transform="translate(-127.114 -111.227)"/>
                <circle id="Ellipse_32" cx="9.33" cy="9.33" r="9.33" class="cls-14" data-name="Ellipse 32" transform="rotate(-80.74 71.2 -44.418)"/>
                <circle id="Ellipse_33" cx="7.015" cy="7.015" r="7.015" class="cls-15" data-name="Ellipse 33" transform="translate(107.273 18.276)"/>
                <path id="Path_73" d="M250.665 111.447a7.152 7.152 0 0 0-1.855.254 7.015 7.015 0 0 1 1.779 13.776h.076a7.022 7.022 0 0 0 0-14.037z" class="cls-16" data-name="Path 73" transform="translate(-136.377 -93.171)"/>
                <path id="Path_74" d="M246.027 117.6c-.852 1.828-2.061 3.057-2.748 2.748s-.5-2.061.35-3.861 2.061-3.051 2.748-2.748.502 2.041-.35 3.861z" class="cls-17" data-name="Path 74" transform="translate(-134.515 -93.876)"/>
                <path id="Path_75" d="M260.945 95.5h4.315c-2.968-5.716-6.871-10.155-12.12-10.595 2.906 1.846 5.627 5.309 7.805 10.595z" class="cls-18" data-name="Path 75" transform="translate(-137.732 -84.869)"/>
                <path id="Path_76" d="M274.462 115.9a78.689 78.689 0 0 0-5.668-15.59H264.5c2.494 6.053 4.28 14.477 4.809 25.586a103.233 103.233 0 0 1-.914 21.691h9.705c1.172-10.387-1.061-22-3.638-31.687z" class="cls-19" data-name="Path 76" transform="translate(-141.287 -89.688)"/>
                <path id="Path_77" d="M259.09 186.77a64.394 64.394 0 0 0 9.619-1.092 4.144 4.144 0 0 0 3.112-2.35 33.776 33.776 0 0 0 4.6-14.188h-9.691c-1.395 8.389-4.06 14.25-7.64 17.63z" class="cls-18" data-name="Path 77" transform="translate(-139.594 -111.227)"/>
                <path id="Path_78" d="M248.859 146c-2.254 2.205-3.971 9.523-3.566 15.926h4.383c-.219-7.681-.817-15.926-.817-15.926z" class="cls-19" data-name="Path 78" transform="translate(-135.258 -103.986)"/>
                <path id="Path_79" d="M245.32 169.15c.282 4.37 1.539 8.314 4.287 9.921a98.248 98.248 0 0 0 .1-9.921z" class="cls-18" data-name="Path 79" transform="translate(-135.285 -111.23)"/>
                <path id="Path_80" d="M251.42 172.617a1.45 1.45 0 0 1-1.45-1.457v-25.153a1.45 1.45 0 0 1 1.45-1.457 1.457 1.457 0 0 1 1.457 1.457v25.153a1.457 1.457 0 0 1-1.457 1.457z" class="cls-8" data-name="Path 80" transform="translate(-136.74 -103.532)"/>
                <path id="Path_81" d="M360.5 422.626c0-6-50.571-10.876-112.953-10.876s-112.957 4.781-112.957 10.876 50.571 10.853 112.953 10.853S360.5 428.626 360.5 422.626z" class="cls-20" data-name="Path 81" transform="translate(-134.59 -191.957)"/>
                <rect id="Rectangle_31" width="139.262" height="39.122" class="cls-21" data-name="Rectangle 31" rx="6.25" transform="translate(42.737 188.943)"/>
                <path id="Path_82" d="M282.185 359.85H151.959a4.521 4.521 0 0 0-4.329 3.236h138.884a4.514 4.514 0 0 0-4.329-3.236z" class="cls-22" data-name="Path 82" transform="translate(-104.715 -170.907)"/>
                <path id="Path_83" d="M147.37 392.85v11.934a4.514 4.514 0 0 0 4.514 4.514h130.227a4.521 4.521 0 0 0 4.521-4.514V392.85z" class="cls-23" data-name="Path 83" transform="translate(-104.633 -181.233)"/>
                <path id="Rectangle_32" d="M0 0h5.764v32.821H0z" class="cls-24" data-name="Rectangle 32" transform="translate(169.075 191.809)"/>
                <path id="Rectangle_33" d="M0 0h5.764v32.821H0z" class="cls-24" data-name="Rectangle 33" transform="translate(51.249 191.809)"/>
                <path id="Rectangle_34" d="M0 0h1.491v32.821H0z" class="cls-24" data-name="Rectangle 34" transform="translate(175.959 191.809)"/>
                <path id="Rectangle_35" d="M0 0h1.491v32.821H0z" class="cls-24" data-name="Rectangle 35" transform="translate(165.749 191.809)"/>
                <path id="Rectangle_36" d="M0 0h1.491v32.821H0z" class="cls-24" data-name="Rectangle 36" transform="translate(48.213 191.809)"/>
                <path id="Rectangle_37" d="M0 0h5.764v13.109H0z" class="cls-24" data-name="Rectangle 37" transform="translate(169.075 211.52)"/>
                <path id="Rectangle_38" d="M0 0h5.764v13.02H0z" class="cls-24" data-name="Rectangle 38" transform="translate(51.249 211.617)"/>
                <path id="Rectangle_39" d="M0 0h1.491v13.109H0z" class="cls-24" data-name="Rectangle 39" transform="translate(175.959 211.52)"/>
                <path id="Rectangle_40" d="M0 0h1.491v13.109H0z" class="cls-24" data-name="Rectangle 40" transform="translate(165.749 211.52)"/>
                <path id="Rectangle_41" d="M0 0h1.491v13.02H0z" class="cls-24" data-name="Rectangle 41" transform="translate(48.213 211.617)"/>
                <rect id="Rectangle_42" width="114.816" height="23.759" class="cls-25" data-name="Rectangle 42" rx="3.6" transform="translate(54.953 150.31)"/>
                <path id="Path_84" d="M165.15 324v7.324a2.46 2.46 0 0 0 2.46 2.46h109.93a2.453 2.453 0 0 0 2.453-2.46V324z" class="cls-26" data-name="Path 84" transform="translate(-110.197 -159.688)"/>
                <path id="Rectangle_43" d="M0 0h5.964v20.014H0z" class="cls-27" data-name="Rectangle 43" transform="translate(153.897 152.22)"/>
                <path id="Rectangle_44" d="M0 0h1.608v20.014H0z" class="cls-27" data-name="Rectangle 44" transform="translate(150.799 152.22)"/>
                <path id="Rectangle_45" d="M0 0h1.608v20.014H0z" class="cls-27" data-name="Rectangle 45" transform="translate(67.162 152.22)"/>
                <path id="Rectangle_46" d="M0 0h1.608v20.014H0z" class="cls-27" data-name="Rectangle 46" transform="translate(64.214 152.22)"/>
                <path id="Rectangle_47" d="M0 0h5.964v7.956H0z" class="cls-28" data-name="Rectangle 47" transform="translate(153.897 164.278)"/>
                <path id="Rectangle_48" d="M0 0h1.608v7.956H0z" class="cls-28" data-name="Rectangle 48" transform="translate(150.799 164.278)"/>
                <path id="Rectangle_49" d="M0 0h1.608v7.956H0z" class="cls-28" data-name="Rectangle 49" transform="translate(67.162 164.278)"/>
                <path id="Rectangle_50" d="M0 0h1.608v7.956H0z" class="cls-28" data-name="Rectangle 50" transform="translate(64.214 164.278)"/>
                <rect id="Rectangle_51" width="125.527" height="14.868" class="cls-8" data-name="Rectangle 51" rx="4.94" transform="translate(49.6 174.055)"/>
                <path id="Path_85" d="M157.36 351.33v2.247a3.593 3.593 0 0 0 3.593 3.593h118.34a3.593 3.593 0 0 0 3.593-3.593v-2.247z" class="cls-29" data-name="Path 85" transform="translate(-107.76 -168.24)"/>
                <path id="Path_86" d="M279.579 338.18H161.238a3.593 3.593 0 0 0-2.968 1.566h124.277a3.607 3.607 0 0 0-2.968-1.566z" class="cls-29" data-name="Path 86" transform="translate(-108.044 -164.125)"/>
                <path id="Rectangle_52" d="M0 0h2.975v12.731H0z" class="cls-30" data-name="Rectangle 52" transform="translate(167.432 175.01)"/>
                <path id="Rectangle_53" d="M0 0h1.086v12.731H0z" class="cls-30" data-name="Rectangle 53" transform="translate(165.701 175.01)"/>
                <path id="Rectangle_54" d="M0 0h1.086v12.731H0z" class="cls-30" data-name="Rectangle 54" transform="translate(55.221 175.01)"/>
                <path id="Rectangle_55" d="M0 0h1.099v4.658H0z" class="cls-31" data-name="Rectangle 55" transform="translate(55.221 183.09)"/>
                <path id="Rectangle_56" d="M0 0h2.975v4.59H0z" class="cls-31" data-name="Rectangle 56" transform="translate(167.432 183.151)"/>
                <path id="Rectangle_57" d="M0 0h1.086v4.59H0z" class="cls-31" data-name="Rectangle 57" transform="translate(165.701 183.151)"/>
            </g>
        </g>
    </g>
</svg>
