<svg xmlns="http://www.w3.org/2000/svg" width="13.117" height="19.484" viewBox="0 0 13.117 19.484">
    <defs>
        <style>
            .cls-1{fill:#262626}
        </style>
    </defs>
    <g id="noun_Certificate_426773" transform="translate(-349.815 -413.494)">
        <path id="Path_873" d="M24.723 6.018a3 3 0 1 0 3 3 3.008 3.008 0 0 0-3-3zM24.95 9.8l-.679.679-.679-.679-.658-.658.679-.679.658.658 1.564-1.564.679.679zm5.782-1.626a.863.863 0 0 1-.226-.967l.123-.309a.85.85 0 0 0-.556-1.152l-.329-.082a.859.859 0 0 1-.617-.782v-.35a.852.852 0 0 0-.988-.8l-.329.068a.815.815 0 0 1-.885-.432l-.165-.288a.848.848 0 0 0-1.235-.288l-.267.185a.867.867 0 0 1-.988 0l-.27-.21a.856.856 0 0 0-1.255.288l-.165.288a.857.857 0 0 1-.905.432l-.329-.062a.87.87 0 0 0-1.008.8l-.021.329a.859.859 0 0 1-.617.782l-.329.1a.85.85 0 0 0-.556 1.152l.123.309a.863.863 0 0 1-.226.967l-.247.226a.84.84 0 0 0 0 1.276l.247.226a.863.863 0 0 1 .226.967l-.123.309a.85.85 0 0 0 .556 1.152l.329.082a.859.859 0 0 1 .617.782l.021.329a.852.852 0 0 0 .988.8l.329-.062a.815.815 0 0 1 .885.432l.165.288a.848.848 0 0 0 1.235.288l.267-.185a.867.867 0 0 1 .988 0l.267.206a.856.856 0 0 0 1.255-.288l.165-.288a.857.857 0 0 1 .905-.432l.329.062a.87.87 0 0 0 1.008-.8l.021-.329a.859.859 0 0 1 .617-.782l.329-.082a.85.85 0 0 0 .556-1.152l-.123-.309a.863.863 0 0 1 .226-.967L31 9.68a.84.84 0 0 0 0-1.28zM24.723 13.2a4.156 4.156 0 1 1 4.157-4.157 4.158 4.158 0 0 1-4.157 4.157zm-6.461 7.243l2.017-5.043a2.147 2.147 0 0 0 .885.206 2.268 2.268 0 0 0 .37-.041h.041l.021.041a2.086 2.086 0 0 0 1.852 1.07 2.043 2.043 0 0 0 .617-.1L21.946 21.9a.2.2 0 0 1-.37.021l-1.008-1.77a.138.138 0 0 0-.165-.062l-1.893.6a.19.19 0 0 1-.248-.247zm9.238 1.522l-2.14-5.35a2.155 2.155 0 0 0 .617.1 2.088 2.088 0 0 0 1.852-1.091l.021-.041h.041a2.268 2.268 0 0 0 .37.041 2.243 2.243 0 0 0 .905-.206l2.018 5.082a.2.2 0 0 1-.247.267l-1.893-.6a.138.138 0 0 0-.165.062l-1.008 1.77a.223.223 0 0 1-.371-.034z" class="cls-1" data-name="Path 873" transform="translate(331.64 410.892)"/>
    </g>
</svg>
