<svg id="undraw_report_mx0a" xmlns="http://www.w3.org/2000/svg" xmlns:xlink="http://www.w3.org/1999/xlink" width="190.941" height="147.798" viewBox="0 0 190.941 147.798">
  <defs>
    <style>
      .cls-1, .cls-3 {
        fill: #db353a;
      }

      .cls-1, .cls-12, .cls-2 {
        opacity: 0.1;
      }

      .cls-4 {
        fill: url(#linear-gradient);
      }

      .cls-5 {
        fill: #535461;
      }

      .cls-6 {
        fill: #f6f7f9;
      }

      .cls-18, .cls-7 {
        opacity: 0.2;
      }

      .cls-8 {
        fill: #dce0ed;
      }

      .cls-9 {
        fill: url(#linear-gradient-2);
      }

      .cls-10 {
        fill: #65617d;
      }

      .cls-11 {
        fill: #a27772;
      }

      .cls-13 {
        fill: #fbbebe;
      }

      .cls-14 {
        opacity: 0.05;
      }

      .cls-15 {
        fill: #7c5c5c;
      }

      .cls-16 {
        fill: #ffd037;
      }

      .cls-17 {
        fill: #a8a8a8;
      }
    </style>
    <linearGradient id="linear-gradient" x1="0.5" y1="1" x2="0.5" gradientUnits="objectBoundingBox">
      <stop offset="0" stop-color="gray" stop-opacity="0.251"/>
      <stop offset="0.54" stop-color="gray" stop-opacity="0.122"/>
      <stop offset="1" stop-color="gray" stop-opacity="0.102"/>
    </linearGradient>
    <linearGradient id="linear-gradient-2" x1="0.5" y1="1" x2="0.5" y2="0" xlink:href="#linear-gradient"/>
  </defs>
  <path id="Path_1241" data-name="Path 1241" class="cls-1" d="M100.927,31.744c-6.14-.226-12.553-.385-18.1,2.247S72.978,43,74.84,48.862a28.332,28.332,0,0,0,2.789,5.317,30.657,30.657,0,0,1,.6,28.848c-3.561,6.852-9.6,12.066-13.942,18.449s-6.814,15.231-2.54,21.662c2.927,4.4,8.358,6.546,13.62,7.065s10.554-.3,15.839-.509a68.224,68.224,0,0,1,29.953,5.665c12.981,5.691,24.163,15.427,37.831,19.184a11.431,11.431,0,0,0,5.034.509c2.976-.542,5.14-3,7.47-4.946,7.438-6.159,17.736-7.309,27.39-7.6s19.71-.065,28.438-4.211c7.62-3.619,13.486-10.352,17.133-17.958s5.232-16.058,5.829-24.474c.353-5.009.341-10.181-1.452-14.871-2.015-5.272-6.1-9.471-10.39-13.141-4.479-3.836-9.362-7.313-14.892-9.383-6.606-2.473-13.777-2.826-20.811-3.413a285.88,285.88,0,0,1-42.809-6.875C146.568,44.992,131.9,41.5,119.734,35,113.628,31.732,107.81,31.992,100.927,31.744Z" transform="translate(-59.52 -31.629)"/>
  <g id="Group_149" data-name="Group 149" class="cls-2" transform="translate(122.862 80.599)">
    <path id="Path_1242" data-name="Path 1242" class="cls-3" d="M773.4,544.451s.625-8.763,5.557-13.541a13.305,13.305,0,0,0,3.932-7.445,22.5,22.5,0,0,0,.265-4.085" transform="translate(-770.167 -513.826)"/>
    <path id="Path_1243" data-name="Path 1243" class="cls-3" d="M829.293,490.462c-.362.968-3.162,3.119-3.162,3.119s-.707-3.46-.341-4.428a1.87,1.87,0,1,1,3.5,1.309Z" transform="translate(-813.217 -487.938)"/>
    <path id="Path_1244" data-name="Path 1244" class="cls-3" d="M830.9,523.114c-.83.615-4.349.9-4.349.9s1.289-3.287,2.12-3.9a1.871,1.871,0,0,1,2.229,3Z" transform="translate(-813.929 -514.147)"/>
    <path id="Path_1245" data-name="Path 1245" class="cls-3" d="M811.459,572.966c-1.028.113-4.209-1.413-4.209-1.413s2.773-2.187,3.8-2.3a1.869,1.869,0,0,1,.41,3.709Z" transform="translate(-798.038 -554.891)"/>
    <path id="Path_1246" data-name="Path 1246" class="cls-3" d="M786.638,608.7c-.993.284-4.388-.687-4.388-.687s2.363-2.623,3.356-2.907a1.871,1.871,0,1,1,1.032,3.594Z" transform="translate(-777.454 -584.341)"/>
    <path id="Path_1247" data-name="Path 1247" class="cls-3" d="M804.592,524.841c.442.933,3.413,2.838,3.413,2.838s.41-3.506-.034-4.441a1.871,1.871,0,0,0-3.379,1.6Z" transform="translate(-795.719 -516.163)"/>
    <path id="Path_1248" data-name="Path 1248" class="cls-3" d="M775.482,564.421c.706.758,4.107,1.689,4.107,1.689s-.659-3.469-1.36-4.229a1.871,1.871,0,1,0-2.747,2.54Z" transform="translate(-771.472 -548.325)"/>
    <path id="Path_1249" data-name="Path 1249" class="cls-3" d="M755.371,610.276c.562.865,3.762,2.358,3.762,2.358s-.064-3.533-.627-4.4a1.871,1.871,0,0,0-3.135,2.038Z" transform="translate(-755.097 -586.324)"/>
    <path id="Path_1250" data-name="Path 1250" class="cls-3" d="M829.293,490.462c-.362.968-3.162,3.119-3.162,3.119s-.707-3.46-.341-4.428a1.87,1.87,0,1,1,3.5,1.309Z" transform="translate(-813.217 -487.938)"/>
    <path id="Path_1251" data-name="Path 1251" class="cls-3" d="M830.9,523.114c-.83.615-4.349.9-4.349.9s1.289-3.287,2.12-3.9a1.871,1.871,0,0,1,2.229,3Z" transform="translate(-813.929 -514.147)"/>
    <path id="Path_1252" data-name="Path 1252" class="cls-3" d="M811.459,572.966c-1.028.113-4.209-1.413-4.209-1.413s2.773-2.187,3.8-2.3a1.869,1.869,0,0,1,.41,3.709Z" transform="translate(-798.038 -554.891)"/>
    <path id="Path_1253" data-name="Path 1253" class="cls-3" d="M786.638,608.7c-.993.284-4.388-.687-4.388-.687s2.363-2.623,3.356-2.907a1.871,1.871,0,1,1,1.032,3.594Z" transform="translate(-777.454 -584.341)"/>
    <path id="Path_1254" data-name="Path 1254" class="cls-3" d="M804.592,524.841c.442.933,3.413,2.838,3.413,2.838s.41-3.506-.034-4.441a1.871,1.871,0,0,0-3.379,1.6Z" transform="translate(-795.719 -516.163)"/>
    <path id="Path_1255" data-name="Path 1255" class="cls-3" d="M775.482,564.421c.706.758,4.107,1.689,4.107,1.689s-.659-3.469-1.36-4.229a1.871,1.871,0,1,0-2.747,2.54Z" transform="translate(-771.472 -548.325)"/>
    <path id="Path_1256" data-name="Path 1256" class="cls-3" d="M755.371,610.276c.562.865,3.762,2.358,3.762,2.358s-.064-3.533-.627-4.4a1.871,1.871,0,0,0-3.135,2.038Z" transform="translate(-755.097 -586.324)"/>
  </g>
  <g id="Group_150" data-name="Group 150" class="cls-2" transform="translate(124.535 47.431)">
    <path id="Path_1257" data-name="Path 1257" class="cls-3" d="M783.2,356.671s.625-8.763,5.557-13.541a13.318,13.318,0,0,0,3.932-7.445,22.187,22.187,0,0,0,.265-4.086" transform="translate(-779.91 -326.046)"/>
    <path id="Path_1258" data-name="Path 1258" class="cls-3" d="M839.1,302.682c-.353.966-3.16,3.118-3.16,3.118s-.706-3.46-.343-4.426a1.87,1.87,0,0,1,3.5,1.309Z" transform="translate(-822.964 -300.158)"/>
    <path id="Path_1259" data-name="Path 1259" class="cls-3" d="M840.729,335.051c-.828.616-4.349.9-4.349.9s1.289-3.285,2.12-3.9a1.871,1.871,0,1,1,2.229,3Z" transform="translate(-823.696 -326.086)"/>
    <path id="Path_1260" data-name="Path 1260" class="cls-3" d="M821.267,385.146c-1.026.113-4.207-1.413-4.207-1.413s2.773-2.185,3.8-2.3a1.87,1.87,0,1,1,.408,3.718Z" transform="translate(-807.789 -367.071)"/>
    <path id="Path_1261" data-name="Path 1261" class="cls-3" d="M796.438,420.987c-.993.284-4.387-.687-4.387-.687s2.365-2.623,3.356-2.909a1.87,1.87,0,1,1,1.03,3.6Z" transform="translate(-787.197 -396.623)"/>
    <path id="Path_1262" data-name="Path 1262" class="cls-3" d="M814.288,336.829c.442.934,3.414,2.84,3.414,2.84s.408-3.508-.034-4.441a1.87,1.87,0,1,0-3.381,1.6Z" transform="translate(-805.358 -328.152)"/>
    <path id="Path_1263" data-name="Path 1263" class="cls-3" d="M785.434,376.8c.707.76,4.108,1.689,4.108,1.689s-.661-3.469-1.362-4.227a1.871,1.871,0,0,0-2.747,2.538Z" transform="translate(-781.367 -360.706)"/>
    <path id="Path_1264" data-name="Path 1264" class="cls-3" d="M764.9,422.083c.563.865,3.762,2.358,3.762,2.358s-.064-3.533-.627-4.4a1.871,1.871,0,1,0-3.135,2.038Z" transform="translate(-764.572 -398.131)"/>
    <path id="Path_1265" data-name="Path 1265" class="cls-3" d="M839.1,302.682c-.353.966-3.16,3.118-3.16,3.118s-.706-3.46-.343-4.426a1.87,1.87,0,0,1,3.5,1.309Z" transform="translate(-822.964 -300.158)"/>
    <path id="Path_1266" data-name="Path 1266" class="cls-3" d="M840.729,335.051c-.828.616-4.349.9-4.349.9s1.289-3.285,2.12-3.9a1.871,1.871,0,1,1,2.229,3Z" transform="translate(-823.696 -326.086)"/>
    <path id="Path_1267" data-name="Path 1267" class="cls-3" d="M821.267,385.146c-1.026.113-4.207-1.413-4.207-1.413s2.773-2.185,3.8-2.3a1.87,1.87,0,1,1,.408,3.718Z" transform="translate(-807.789 -367.071)"/>
    <path id="Path_1268" data-name="Path 1268" class="cls-3" d="M796.438,420.987c-.993.284-4.387-.687-4.387-.687s2.365-2.623,3.356-2.909a1.87,1.87,0,1,1,1.03,3.6Z" transform="translate(-787.197 -396.623)"/>
    <path id="Path_1269" data-name="Path 1269" class="cls-3" d="M814.288,336.829c.442.934,3.414,2.84,3.414,2.84s.408-3.508-.034-4.441a1.87,1.87,0,1,0-3.381,1.6Z" transform="translate(-805.358 -328.152)"/>
    <path id="Path_1270" data-name="Path 1270" class="cls-3" d="M785.434,376.8c.707.76,4.108,1.689,4.108,1.689s-.661-3.469-1.362-4.227a1.871,1.871,0,0,0-2.747,2.538Z" transform="translate(-781.367 -360.706)"/>
    <path id="Path_1271" data-name="Path 1271" class="cls-3" d="M764.9,422.083c.563.865,3.762,2.358,3.762,2.358s-.064-3.533-.627-4.4a1.871,1.871,0,1,0-3.135,2.038Z" transform="translate(-764.572 -398.131)"/>
  </g>
  <g id="Group_151" data-name="Group 151" class="cls-2" transform="translate(11.588 64.87)">
    <path id="Path_1272" data-name="Path 1272" class="cls-3" d="M168.743,445.409s-7.544-4.5-9.6-11.047a13.293,13.293,0,0,0-4.882-6.859,22.269,22.269,0,0,0-3.533-2.074" transform="translate(-146.207 -420.742)"/>
    <path id="Path_1273" data-name="Path 1273" class="cls-3" d="M128.33,399.451c.707.758,1.365,4.227,1.365,4.227s-3.407-.927-4.108-1.685a1.871,1.871,0,0,1,2.743-2.542Z" transform="translate(-125.123 -398.889)"/>
    <path id="Path_1274" data-name="Path 1274" class="cls-3" d="M160.786,406.562c.177,1.017-1.152,4.289-1.152,4.289s-2.356-2.63-2.533-3.647a1.871,1.871,0,1,1,3.685-.641Z" transform="translate(-151.423 -403.893)"/>
    <path id="Path_1275" data-name="Path 1275" class="cls-3" d="M198.353,443.088c-.353.968-3.16,3.121-3.16,3.121s-.707-3.46-.344-4.426a1.871,1.871,0,1,1,3.5,1.305Z" transform="translate(-182.448 -433.163)"/>
    <path id="Path_1276" data-name="Path 1276" class="cls-3" d="M218.962,482.217c-.191,1.016-2.586,3.619-2.586,3.619s-1.281-3.291-1.088-4.3a1.869,1.869,0,0,1,3.674.694Z" transform="translate(-199.346 -465.681)"/>
    <path id="Path_1277" data-name="Path 1277" class="cls-3" d="M147.556,436.751c1.032.025,4.071-1.766,4.071-1.766s-2.95-1.943-3.983-1.968a1.87,1.87,0,1,0-.088,3.74Z" transform="translate(-142.09 -426.989)"/>
    <path id="Path_1278" data-name="Path 1278" class="cls-3" d="M170.275,480.628c.993-.286,3.356-2.911,3.356-2.911s-3.395-.97-4.388-.684a1.871,1.871,0,0,0,1.033,3.594Z" transform="translate(-160.37 -463.187)"/>
    <path id="Path_1279" data-name="Path 1279" class="cls-3" d="M201.276,519.2c1.028-.113,3.8-2.3,3.8-2.3s-3.179-1.53-4.209-1.413a1.869,1.869,0,1,0,.41,3.709Z" transform="translate(-186.033 -494.89)"/>
    <path id="Path_1280" data-name="Path 1280" class="cls-3" d="M128.33,399.451c.707.758,1.365,4.227,1.365,4.227s-3.407-.927-4.108-1.685a1.871,1.871,0,0,1,2.743-2.542Z" transform="translate(-125.123 -398.889)"/>
    <path id="Path_1281" data-name="Path 1281" class="cls-3" d="M160.786,406.562c.177,1.017-1.152,4.289-1.152,4.289s-2.356-2.63-2.533-3.647a1.871,1.871,0,1,1,3.685-.641Z" transform="translate(-151.423 -403.893)"/>
    <path id="Path_1282" data-name="Path 1282" class="cls-3" d="M198.353,443.088c-.353.968-3.16,3.121-3.16,3.121s-.707-3.46-.344-4.426a1.871,1.871,0,1,1,3.5,1.305Z" transform="translate(-182.448 -433.163)"/>
    <path id="Path_1283" data-name="Path 1283" class="cls-3" d="M218.962,482.217c-.191,1.016-2.586,3.619-2.586,3.619s-1.281-3.291-1.088-4.3a1.869,1.869,0,0,1,3.674.694Z" transform="translate(-199.346 -465.681)"/>
    <path id="Path_1284" data-name="Path 1284" class="cls-3" d="M147.556,436.751c1.032.025,4.071-1.766,4.071-1.766s-2.95-1.943-3.983-1.968a1.87,1.87,0,1,0-.088,3.74Z" transform="translate(-142.09 -426.989)"/>
    <path id="Path_1285" data-name="Path 1285" class="cls-3" d="M170.275,480.628c.993-.286,3.356-2.911,3.356-2.911s-3.395-.97-4.388-.684a1.871,1.871,0,0,0,1.033,3.594Z" transform="translate(-160.37 -463.187)"/>
    <path id="Path_1286" data-name="Path 1286" class="cls-3" d="M201.276,519.2c1.028-.113,3.8-2.3,3.8-2.3s-3.179-1.53-4.209-1.413a1.869,1.869,0,1,0,.41,3.709Z" transform="translate(-186.033 -494.89)"/>
  </g>
  <path id="Path_1287" data-name="Path 1287" class="cls-1" d="M776.25,806.479c5.071,2.206,11.259.864,17.013,1.019a4.657,4.657,0,0,1,2.252.468,5.769,5.769,0,0,1,1.376,1.528c1.613,1.968,4.917,2.6,7.805,2.266s5.536-1.44,8.261-2.28c4.711-1.455,10.095-2.12,14.742-.53a3.045,3.045,0,0,0,1.332.254c1.019-.129,1.323-1.185,2.035-1.787,1.286-1.09,4.08-.793,4.645-2.229.33-.841-.431-1.7-1.261-2.277-3.179-2.2-7.719-2.559-11.875-2.22s-8.242,1.273-12.419,1.277c-5.205,0-10.234-1.434-15.388-2.022a24.59,24.59,0,0,0-10.813.843C780.327,802.081,779.528,804.993,776.25,806.479Z" transform="translate(-649.652 -664.047)"/>
  <path id="Path_1288" data-name="Path 1288" class="cls-1" d="M232.93,764.074c8.655,2.492,19.218.975,29.038,1.152a11.482,11.482,0,0,1,3.847.53,8.55,8.55,0,0,1,2.349,1.728c2.752,2.224,8.392,2.939,13.32,2.561s9.45-1.627,14.1-2.577c8.04-1.645,17.232-2.393,25.163-.6a7.524,7.524,0,0,0,2.275.288c1.738-.147,2.256-1.339,3.473-2.021,2.2-1.236,6.963-.9,7.927-2.517.565-.95-.735-1.925-2.151-2.573-5.419-2.482-13.173-2.891-20.269-2.508s-14.069,1.438-21.2,1.443c-8.885,0-17.469-1.62-26.267-2.286-6.094-.459-12.744-.4-18.458.954C239.889,759.111,238.524,762.4,232.93,764.074Z" transform="translate(-202.3 -628.409)"/>
  <path id="Path_1289" data-name="Path 1289" class="cls-1" d="M101.77,812.97c2.473,1.487,5.476.583,8.277.687a1.759,1.759,0,0,1,1.1.314,3.722,3.722,0,0,1,.669,1.031,3.652,3.652,0,0,0,3.8,1.528,17.819,17.819,0,0,0,4.02-1.539c2.3-.98,4.912-1.427,7.171-.353a1.127,1.127,0,0,0,.65.177c.495-.088.643-.8.989-1.206.625-.735,1.985-.53,2.259-1.5a1.653,1.653,0,0,0-.613-1.535,7.022,7.022,0,0,0-5.778-1.5,54.683,54.683,0,0,1-6.043.846c-2.531,0-4.978-.966-7.486-1.364a8.77,8.77,0,0,0-5.262.569C103.754,810.008,103.365,811.973,101.77,812.97Z" transform="translate(-94.307 -671.198)"/>
  <path id="Path_1290" data-name="Path 1290" class="cls-4" d="M337.355,67.32H255.288a7.516,7.516,0,0,0-7.528,7.505v113.7a7.516,7.516,0,0,0,7.528,7.5h82.067a7.516,7.516,0,0,0,7.528-7.505V74.825A7.516,7.516,0,0,0,337.355,67.32Z" transform="translate(-214.511 -61.016)"/>
  <rect id="Rectangle_951" data-name="Rectangle 951" class="cls-5" width="94.802" height="126.017" rx="20" transform="translate(34.406 7.846)"/>
  <rect id="Rectangle_952" data-name="Rectangle 952" class="cls-6" width="85.169" height="102.177" transform="translate(39.223 19.765)"/>
  <ellipse id="Ellipse_92" data-name="Ellipse 92" class="cls-6" cx="1.157" cy="1.157" rx="1.157" ry="1.157" transform="translate(80.265 12.469)"/>
  <ellipse id="Ellipse_93" data-name="Ellipse 93" class="cls-6" cx="3.469" cy="3.469" rx="3.469" ry="3.469" transform="translate(77.953 124.228)"/>
  <g id="Group_152" data-name="Group 152" class="cls-7" transform="translate(39.223 19.765)">
    <rect id="Rectangle_953" data-name="Rectangle 953" class="cls-3" width="85.169" height="5.092"/>
  </g>
  <circle id="Ellipse_94" data-name="Ellipse 94" class="cls-6" cx="1.086" cy="1.086" r="1.086" transform="translate(40.8 21.226)"/>
  <circle id="Ellipse_95" data-name="Ellipse 95" class="cls-6" cx="1.086" cy="1.086" r="1.086" transform="translate(43.568 21.226)"/>
  <circle id="Ellipse_96" data-name="Ellipse 96" class="cls-6" cx="1.086" cy="1.086" r="1.086" transform="translate(46.334 21.226)"/>
  <rect id="Rectangle_954" data-name="Rectangle 954" class="cls-8" width="79.31" height="0.265" transform="translate(41.766 49.802)"/>
  <rect id="Rectangle_955" data-name="Rectangle 955" class="cls-8" width="79.31" height="0.265" transform="translate(41.766 55.954)"/>
  <rect id="Rectangle_956" data-name="Rectangle 956" class="cls-8" width="79.31" height="0.265" transform="translate(41.766 62.108)"/>
  <rect id="Rectangle_957" data-name="Rectangle 957" class="cls-8" width="79.31" height="0.265" transform="translate(41.766 68.26)"/>
  <rect id="Rectangle_958" data-name="Rectangle 958" class="cls-8" width="79.31" height="0.265" transform="translate(41.766 74.412)"/>
  <g id="Group_153" data-name="Group 153" class="cls-7" transform="translate(41.669 53.555)">
    <path id="Path_1291" data-name="Path 1291" class="cls-3" d="M315.317,324.3H235.91V312.2l7.283,3.589,7.537,1.023,6.613-1.994,7.978-6.187,4.013-2.317,2.934-.565,2.807.15,4.615,2.28,6.276,4,4.925.632,3.9-1.346,8.277-6.777,4.225-1.507,4.421.684,3.6,2.079Z" transform="translate(-235.91 -303.18)"/>
  </g>
  <path id="Path_1292" data-name="Path 1292" class="cls-3" d="M309.263,348.252c-7.152,0-13.76-4.373-13.843-4.43l.2-.293c.1.069,10.273,6.8,18.916,3.427a26.2,26.2,0,0,0,7.565-4.99c2.266-1.931,4.405-3.753,7.323-4.545a10.954,10.954,0,0,1,9.78,2.2c2.376,1.952,7.106,5.085,12.1,4.149,2.547-.479,4.693-2.339,6.966-4.308,4.357-3.776,8.865-7.682,16.662-2.079l-.207.286c-7.57-5.44-11.969-1.627-16.224,2.06-2.31,2-4.492,3.886-7.132,4.388-5.14.964-9.969-2.233-12.393-4.223a10.61,10.61,0,0,0-9.464-2.128c-2.84.77-4.946,2.568-7.187,4.472a26.3,26.3,0,0,1-7.664,5.05A14.786,14.786,0,0,1,309.263,348.252Z" transform="translate(-253.752 -281.066)"/>
  <ellipse id="Ellipse_97" data-name="Ellipse 97" class="cls-3" cx="1.966" cy="1.966" rx="1.966" ry="1.966" transform="translate(77.964 54.142)"/>
  <g id="Group_154" data-name="Group 154" class="cls-7" transform="translate(80.371 30.093)">
    <path id="Path_1293" data-name="Path 1293" class="cls-3" d="M539.742,202h-24.8a.4.4,0,0,0-.4.4v16.771a.4.4,0,0,0,.7.276l4.3-4.584a.4.4,0,0,1,.293-.127h19.915a.4.4,0,0,0,.4-.4V202.4A.4.4,0,0,0,539.742,202Z" transform="translate(-514.54 -202)"/>
  </g>
  <rect id="Rectangle_959" data-name="Rectangle 959" class="cls-6" width="14.122" height="1.766" transform="translate(86.112 33.198)"/>
  <rect id="Rectangle_960" data-name="Rectangle 960" class="cls-6" width="3.877" height="1.766" transform="translate(86.112 37.112)"/>
  <g id="Group_155" data-name="Group 155" class="cls-7" transform="translate(48.464 87.317)">
    <rect id="Rectangle_961" data-name="Rectangle 961" class="cls-3" width="3.877" height="1.766"/>
  </g>
  <g id="Group_156" data-name="Group 156" class="cls-7" transform="translate(48.464 90.731)">
    <rect id="Rectangle_962" data-name="Rectangle 962" class="cls-3" width="3.877" height="1.766"/>
  </g>
  <g id="Group_157" data-name="Group 157" class="cls-7" transform="translate(48.464 94.145)">
    <rect id="Rectangle_963" data-name="Rectangle 963" class="cls-3" width="3.877" height="1.766"/>
  </g>
  <g id="Group_158" data-name="Group 158" class="cls-7" transform="translate(48.464 97.561)">
    <rect id="Rectangle_964" data-name="Rectangle 964" class="cls-3" width="3.877" height="1.766"/>
  </g>
  <g id="Group_159" data-name="Group 159" class="cls-7" transform="translate(48.464 100.976)">
    <rect id="Rectangle_965" data-name="Rectangle 965" class="cls-3" width="3.877" height="1.766"/>
  </g>
  <g id="Group_160" data-name="Group 160" class="cls-7" transform="translate(48.464 104.39)">
    <rect id="Rectangle_966" data-name="Rectangle 966" class="cls-3" width="3.877" height="1.766"/>
  </g>
  <g id="Group_161" data-name="Group 161" class="cls-7" transform="translate(48.464 107.806)">
    <rect id="Rectangle_967" data-name="Rectangle 967" class="cls-3" width="3.877" height="1.766"/>
  </g>
  <g id="Group_162" data-name="Group 162" class="cls-7" transform="translate(48.464 111.22)">
    <rect id="Rectangle_968" data-name="Rectangle 968" class="cls-3" width="3.877" height="1.766"/>
  </g>
  <g id="Group_163" data-name="Group 163" class="cls-7" transform="translate(55.765 112.987)">
    <rect id="Rectangle_969" data-name="Rectangle 969" class="cls-3" width="3.877" height="1.766"/>
  </g>
  <g id="Group_164" data-name="Group 164" class="cls-7" transform="translate(62.595 112.987)">
    <rect id="Rectangle_970" data-name="Rectangle 970" class="cls-3" width="3.877" height="1.766"/>
  </g>
  <g id="Group_165" data-name="Group 165" class="cls-7" transform="translate(69.425 112.987)">
    <rect id="Rectangle_971" data-name="Rectangle 971" class="cls-3" width="3.877" height="1.766"/>
  </g>
  <g id="Group_166" data-name="Group 166" class="cls-7" transform="translate(76.254 112.987)">
    <rect id="Rectangle_972" data-name="Rectangle 972" class="cls-3" width="3.877" height="1.766"/>
  </g>
  <g id="Group_167" data-name="Group 167" class="cls-7" transform="translate(83.084 112.987)">
    <rect id="Rectangle_973" data-name="Rectangle 973" class="cls-3" width="3.877" height="1.766"/>
  </g>
  <g id="Group_168" data-name="Group 168" class="cls-7" transform="translate(89.915 112.987)">
    <rect id="Rectangle_974" data-name="Rectangle 974" class="cls-3" width="3.877" height="1.766"/>
  </g>
  <g id="Group_169" data-name="Group 169" class="cls-7" transform="translate(96.743 112.987)">
    <rect id="Rectangle_975" data-name="Rectangle 975" class="cls-3" width="3.877" height="1.766"/>
  </g>
  <g id="Group_170" data-name="Group 170" class="cls-7" transform="translate(103.574 112.987)">
    <rect id="Rectangle_976" data-name="Rectangle 976" class="cls-3" width="3.877" height="1.766"/>
  </g>
  <g id="Group_171" data-name="Group 171" class="cls-7" transform="translate(110.404 112.987)">
    <rect id="Rectangle_977" data-name="Rectangle 977" class="cls-3" width="3.877" height="1.766"/>
  </g>
  <rect id="Rectangle_978" data-name="Rectangle 978" class="cls-6" width="5.887" height="1.766" transform="translate(94.346 37.112)"/>
  <rect id="Rectangle_979" data-name="Rectangle 979" class="cls-3" width="3.877" height="11.07" transform="translate(55.765 100.151)"/>
  <rect id="Rectangle_980" data-name="Rectangle 980" class="cls-3" width="3.877" height="16.192" transform="translate(62.595 95.028)"/>
  <rect id="Rectangle_981" data-name="Rectangle 981" class="cls-3" width="3.877" height="20.489" transform="translate(69.425 90.731)"/>
  <rect id="Rectangle_982" data-name="Rectangle 982" class="cls-3" width="3.877" height="18.26" transform="translate(76.254 92.958)"/>
  <rect id="Rectangle_983" data-name="Rectangle 983" class="cls-3" width="3.877" height="22.137" transform="translate(83.084 89.083)"/>
  <g id="Group_172" data-name="Group 172" class="cls-7" transform="translate(89.915 97.561)">
    <rect id="Rectangle_984" data-name="Rectangle 984" class="cls-3" width="3.877" height="13.659"/>
  </g>
  <g id="Group_173" data-name="Group 173" class="cls-7" transform="translate(96.743 97.561)">
    <rect id="Rectangle_985" data-name="Rectangle 985" class="cls-3" width="3.877" height="13.659"/>
  </g>
  <g id="Group_174" data-name="Group 174" class="cls-7" transform="translate(103.574 97.561)">
    <rect id="Rectangle_986" data-name="Rectangle 986" class="cls-3" width="3.877" height="13.659"/>
  </g>
  <g id="Group_175" data-name="Group 175" class="cls-7" transform="translate(110.404 97.561)">
    <rect id="Rectangle_987" data-name="Rectangle 987" class="cls-3" width="3.877" height="13.659"/>
  </g>
  <path id="Path_1294" data-name="Path 1294" class="cls-9" d="M871.927,200.176a48.494,48.494,0,0,0-5.794-3.017l-.085-.062a3.508,3.508,0,0,1-1.06-1.337v-.26a6.338,6.338,0,0,1,1.84-3.458l2.206-2.6a2.521,2.521,0,0,0,.569-.9,2.011,2.011,0,0,0,.06-.553v-.226c-.011-.645-.03-1.291-.053-1.943-.021-.563-.166-1.274-.729-1.39-.293-.06-.68.046-.835-.207a.481.481,0,0,1-.037-.334.142.142,0,0,0,0,.027v-.032a7.477,7.477,0,0,0,.21-1.327,1.844,1.844,0,0,0-.092-.671c-.327-.936-1.45-1.319-2.445-1.5a4.285,4.285,0,0,1-2.731-1.106,8.153,8.153,0,0,0-.542-.747,2.154,2.154,0,0,0-1.016-.5,5.739,5.739,0,0,0-3.7.321,3.326,3.326,0,0,1-1.489.472c-.526-.032-1.016-.412-1.556-.5a2.22,2.22,0,0,0-2.137,1.251,3.054,3.054,0,0,0-.4,1.477v.087h0a2.153,2.153,0,0,0,.567,1.507c.376.39.938.659,1.093,1.173.064.208.048.435.1.646a.25.25,0,0,0,.025.078l-.028.037a6.544,6.544,0,0,0-1.385,4.041,6.694,6.694,0,0,0,4.7,6.348v.2a2.842,2.842,0,0,1-.913,2.222l-5.945,2.392s-3.584-.426-4.877,4.813a8.854,8.854,0,0,0-.223,2.658,7.792,7.792,0,0,1-.98,3.981c-1.471,2.879-1.136,9.489,1.871,10.144a9.938,9.938,0,0,0,4.063.33v.115c-.046,1.236-.5,11.939-2.134,13.233-.452.353-.367.6,0,.763,0,0,0,.069-.011.193-.049.782-.3,3.762-1.4,5.458-1.27,1.962-1.138,13.286-1.138,13.286l-.853,6.682s.53,4.123,0,4.843c-.477.641-1.113,15.9-1.236,19.2h-.057a1.606,1.606,0,0,0-1.284.782,22.6,22.6,0,0,1-3.162,3.248c-.53.758-2.506,1.482-3.55,1.825a2.153,2.153,0,0,0-.4.177,2.12,2.12,0,0,0-.9.943,1.021,1.021,0,0,0-.1.788c.268.654,5.815,1.111,7.217.457a47.693,47.693,0,0,1,7.29-1.457,1.5,1.5,0,0,0,1.3-1.3.856.856,0,0,0-.177-.65h0a5.712,5.712,0,0,1-.606-2.372,1.566,1.566,0,0,0,.408-.242,17.4,17.4,0,0,1,1-7c1.337-3.533,1.738-10.08,1.413-14.334,0,0,4.077-17.54,7.284-19.177h0c.049.062,1.606,2.061,1.8,8.245a25.021,25.021,0,0,0,2.473,10.405s-1,10.669,0,14.661l-1.312,6.3c-.1-.083-.157-.147-.157-.147s.039.177.094.456l-.028.132.057.014a12.416,12.416,0,0,1,.279,2.966c-.053.457-.177,1.086-.268,1.7-.138.97-.177,1.909.334,2.12.836.336,5.748.795,6.583-.284a1.551,1.551,0,0,0,.244-1.618,1.648,1.648,0,0,0-.244-.412s-1.3-2.132-.936-3.635a1.1,1.1,0,0,0-.155-.864A43.962,43.962,0,0,1,869,280.164c.835-3.149,2.6-10.054,1.3-14.6h0c-.049-.177-.106-.353-.166-.53a19.566,19.566,0,0,1-.735-7.657,15.6,15.6,0,0,1,0-6.677c.8-3.665,1.362-7.265,1.362-7.265a45.856,45.856,0,0,0,.057-7.811l-.027-.191.212-.048s-1.136-5.039-1.537-8.245c-.1-.758-.219-1.717-.353-2.741a6.644,6.644,0,0,0,1.09-.27c3.6-1.249,4.727-12.5,4.727-12.5v-3.568S876.138,202.6,871.927,200.176Zm-26.883,86.916c-.111-.057-.177-.094-.177-.094h0Z" transform="translate(-697.153 -152.04)"/>
  <path id="Path_1295" data-name="Path 1295" class="cls-10" d="M915.083,522.8c1.565,4.5-.261,11.8-1.109,15.065a45.6,45.6,0,0,0-1.109,7.177,15.1,15.1,0,0,1-5.739-.132l1.369-6.712c-.979-3.978,0-14.609,0-14.609a25.343,25.343,0,0,1-2.413-10.37c-.193-6.164-1.712-8.155-1.766-8.217h0c-3.13,1.63-7.109,19.112-7.109,19.112.327,4.239-.065,10.76-1.369,14.283a17.7,17.7,0,0,0-.979,6.979,2.152,2.152,0,0,1-1.775.341A12.256,12.256,0,0,1,889,543.8s.707-19.043,1.236-19.762,0-4.827,0-4.827l.846-6.652s-.129-11.285,1.109-13.247a13.442,13.442,0,0,0,1.364-5.439,1.41,1.41,0,0,1,.011-.193l1.886-2.261s18.264-1.369,19.633,0a3.906,3.906,0,0,1,.668,2.063,46.835,46.835,0,0,1-.055,7.784s-.548,3.587-1.33,7.242a15.822,15.822,0,0,0,0,6.652A19.876,19.876,0,0,0,915.083,522.8Z" transform="translate(-742.487 -409.708)"/>
  <path id="Path_1296" data-name="Path 1296" class="cls-11" d="M998.132,796.239c-.816,1.076-5.61.618-6.426.284-.5-.207-.459-1.143-.325-2.109.085-.615.21-1.237.261-1.7a15.584,15.584,0,0,0-.392-3.556s1.077,1.141,1.337,0a1.245,1.245,0,0,1,.931-.883,2.446,2.446,0,0,1,1.694.106c.846.367,2.261,1.152,2.007,2.211-.353,1.5.913,3.623.913,3.623a1.654,1.654,0,0,1,.237.41A1.568,1.568,0,0,1,998.132,796.239Z" transform="translate(-826.676 -654.544)"/>
  <path id="Path_1297" data-name="Path 1297" class="cls-12" d="M998.333,825.325c-.816,1.076-5.61.618-6.426.284-.5-.207-.459-1.143-.325-2.109a5.544,5.544,0,0,0,2.849.306,8.286,8.286,0,0,1,1.026-.032,23.668,23.668,0,0,0,3.112-.062A1.568,1.568,0,0,1,998.333,825.325Z" transform="translate(-826.878 -683.63)"/>
  <path id="Path_1298" data-name="Path 1298" class="cls-12" d="M916.273,584.366c.327,4.239-.065,10.76-1.369,14.282a17.7,17.7,0,0,0-.979,6.979,2.153,2.153,0,0,1-1.775.341c.394-2.755,2.07-14.6,3.153-23.967a39.138,39.138,0,0,1,6.938-18l1.141,1.256C920.249,566.884,916.273,584.366,916.273,584.366Z" transform="translate(-761.548 -469.966)"/>
  <path id="Path_1299" data-name="Path 1299" class="cls-13" d="M957.177,254.685l-.8,3.912-3.9,6.555-4.81-2.054s-6.535-6.848-2.429-7.827a3.6,3.6,0,0,0,1.364-.608,2.8,2.8,0,0,0,1.06-2.358A7.374,7.374,0,0,0,947,249.5l8.413-2.649a13.437,13.437,0,0,0-.6,3.409c-.064,2.3.788,3.42,1.486,3.958A2.551,2.551,0,0,0,957.177,254.685Z" transform="translate(-787.679 -208.835)"/>
  <path id="Path_1300" data-name="Path 1300" class="cls-12" d="M969.943,246.9a13.44,13.44,0,0,0-.6,3.409,6.16,6.16,0,0,1-.489.519,6.654,6.654,0,0,1-6.652,1.519,7.376,7.376,0,0,0-.668-2.807Z" transform="translate(-802.206 -208.876)"/>
  <path id="Path_1301" data-name="Path 1301" class="cls-13" d="M952.6,209.794a6.624,6.624,0,1,1-1.937-4.711A6.652,6.652,0,0,1,952.6,209.794Z" transform="translate(-783.902 -172.846)"/>
  <path id="Path_1302" data-name="Path 1302" class="cls-12" d="M957.177,289.069l-.8,3.912-3.9,6.555-4.81-2.054s-6.535-6.848-2.429-7.827a3.6,3.6,0,0,0,1.364-.608c-.742,2.04,2.321,6.283,2.321,6.283.353.53,1.175.194,1.175.194,1.971-.3,5.6-5.972,6.2-6.915A2.55,2.55,0,0,0,957.177,289.069Z" transform="translate(-787.679 -243.219)"/>
  <path id="Path_1303" data-name="Path 1303" class="cls-12" d="M936.977,493.547c-1.157.263-7.565,1.683-10,1.328-2.672-.392-7.873-.652-7.873-.652s-3.31.177-4.329-.286a1.4,1.4,0,0,1,.011-.193l1.886-2.261s18.264-1.369,19.633,0A3.882,3.882,0,0,1,936.977,493.547Z" transform="translate(-763.713 -409.758)"/>
  <path id="Path_1304" data-name="Path 1304" class="cls-3" d="M903.765,295.846s-3.441-4.769-2.144-6.622l-5.813,2.383s-3.5-.424-4.769,4.8a9.03,9.03,0,0,0-.217,2.649,7.9,7.9,0,0,1-.957,3.967c-1.436,2.87-1.109,9.457,1.826,10.11s3.978.325,3.978.325-.39,11.937-2.086,13.306,4.322,1.044,4.322,1.044,5.2.261,7.874.652,10.174-1.369,10.174-1.369-1.109-5.023-1.5-8.219-1.305-10-1.305-10l6.654-9.008s1.173-5.446-2.936-7.858a46.348,46.348,0,0,0-5.652-3s-4.123,6.712-6.274,7.042C904.94,296.042,904.122,296.371,903.765,295.846Z" transform="translate(-742.517 -243.54)"/>
  <path id="Path_1305" data-name="Path 1305" class="cls-12" d="M924.049,338.47a9.813,9.813,0,0,0,.325,3c.39.85,1.826,5.544,1.826,5.544H922.94s1.766-1.892,1.63-2.8S924.049,338.47,924.049,338.47Z" transform="translate(-770.432 -284.272)"/>
  <path id="Path_1306" data-name="Path 1306" class="cls-13" d="M935.4,387.8s-7.2-1.766-7.874-3.262S925,379.684,925,379.684l.76-1.024,3.5,2.75s4.174,3.326,6.131,3.653S935.4,387.8,935.4,387.8Z" transform="translate(-772.128 -317.363)"/>
  <path id="Path_1307" data-name="Path 1307" class="cls-14" d="M935.4,387.8s-7.2-1.766-7.874-3.262S925,379.684,925,379.684l.76-1.024,3.5,2.75s4.174,3.326,6.131,3.653S935.4,387.8,935.4,387.8Z" transform="translate(-772.128 -317.363)"/>
  <path id="Path_1308" data-name="Path 1308" class="cls-13" d="M958.473,382.265v3.907h-.629a18.286,18.286,0,0,0-8.866,2.294l-1.179.655-.316.177-2.022-4.554,1.892-1.7h.1a11.345,11.345,0,0,0,3.312-.074,5.363,5.363,0,0,1,4.177-.53c1.169.3,2.167,1.609,3.3,1.2Z" transform="translate(-788.974 -320.303)"/>
  <path id="Path_1309" data-name="Path 1309" class="cls-12" d="M988.557,321.482l1.305,1.466V326.5s-1.109,11.218-4.631,12.458-9.808-.719-9.808-.719-1.625-4.3-.865-4.564,6.712-1.833,6.712-1.833-.083-6.581,1.22-8.538c0,0-.848-6.129,2.088-6.26S988.557,321.482,988.557,321.482Z" transform="translate(-812.766 -266.631)"/>
  <path id="Path_1310" data-name="Path 1310" class="cls-3" d="M989.634,321.482l1.305,1.466V326.5s-1.106,11.218-4.638,12.458-9.81-.719-9.81-.719-1.623-4.3-.864-4.564,6.712-1.833,6.712-1.833-.085-6.581,1.221-8.538c0,0-.848-6.129,2.088-6.26S989.634,321.482,989.634,321.482Z" transform="translate(-813.646 -266.631)"/>
  <path id="Path_1311" data-name="Path 1311" class="cls-12" d="M957.119,212.626a2.589,2.589,0,0,0-.148-1.27.984.984,0,0,0-1.035-.6c-.558.131-.8.857-1.346,1.032a1.06,1.06,0,0,1-1.183-.611,3.128,3.128,0,0,1-.228-1.413v-1.634a2.7,2.7,0,0,0-.385-1.7,3,3,0,0,0-2.236-.811,1.894,1.894,0,0,0-1.277.516,1.647,1.647,0,0,1-1.344.477,1.16,1.16,0,0,1-.936-.809v-.021a6.652,6.652,0,1,1,9.891,8.832A17.781,17.781,0,0,0,957.119,212.626Z" transform="translate(-790.242 -172.851)"/>
  <path id="Path_1312" data-name="Path 1312" class="cls-15" d="M939.911,187.477a1.162,1.162,0,0,1-.936-.811c-.055-.21-.041-.435-.1-.645-.152-.512-.707-.779-1.06-1.168a2.623,2.623,0,0,1-.166-3,2.164,2.164,0,0,1,2.086-1.247c.53.092.984.468,1.519.5a3.094,3.094,0,0,0,1.454-.47,5.476,5.476,0,0,1,3.605-.32,2.1,2.1,0,0,1,.993.5,8.833,8.833,0,0,1,.53.744,4.136,4.136,0,0,0,2.667,1.1c.97.175,2.065.558,2.385,1.491a3.928,3.928,0,0,1-.115,1.932.558.558,0,0,0,.025.4c.152.251.53.147.816.207.551.115.692.823.706,1.385q.035.964.053,1.929a1.9,1.9,0,0,1-.613,1.613L951.6,194.2c-.956,1.148-1.969,2.485-1.777,3.965a.92.92,0,0,1-1.138-.662,2.967,2.967,0,0,1,.071-1.468,17.986,17.986,0,0,0,.341-2.547,2.589,2.589,0,0,0-.148-1.27.974.974,0,0,0-1.035-.6c-.558.131-.8.857-1.346,1.032a1.061,1.061,0,0,1-1.183-.611,3.128,3.128,0,0,1-.228-1.413v-1.636a2.7,2.7,0,0,0-.385-1.7,3,3,0,0,0-2.236-.811,1.9,1.9,0,0,0-1.277.516A1.677,1.677,0,0,1,939.911,187.477Z" transform="translate(-782.221 -153.915)"/>
  <path id="Path_1313" data-name="Path 1313" class="cls-12" d="M960.79,337.55l2.042,8.39S964.443,345.931,960.79,337.55Z" transform="translate(-801.596 -283.514)"/>
  <path id="Path_1314" data-name="Path 1314" class="cls-12" d="M991.573,329.61s-2.674,4.38-1.63,8.908l.5.037S989.551,336.458,991.573,329.61Z" transform="translate(-825.401 -276.977)"/>
  <path id="Path_1315" data-name="Path 1315" class="cls-12" d="M1009.9,468.845s3.284-1.086,3.522,1.434C1013.422,470.279,1012.8,468.552,1009.9,468.845Z" transform="translate(-842.032 -391.427)"/>
  <path id="Path_1316" data-name="Path 1316" class="cls-12" d="M930.028,388s-.652,4.566.53,6.392a14.32,14.32,0,0,1-5.741.782l-.4-7.175Z" transform="translate(-771.651 -325.053)"/>
  <path id="Path_1317" data-name="Path 1317" class="cls-12" d="M947.8,392.923l-.316.177-2.022-4.554,1.892-1.7h.1C947.419,387.069,946.893,390.99,947.8,392.923Z" transform="translate(-788.974 -324.106)"/>
  <path id="Path_1318" data-name="Path 1318" class="cls-3" d="M921.243,386.85s-.652,4.564.53,6.391a14.32,14.32,0,0,1-5.741.782l-2.282-7.173Z" transform="translate(-762.865 -324.106)"/>
  <path id="Path_1319" data-name="Path 1319" class="cls-11" d="M852.147,792.693a1.475,1.475,0,0,1-1.266,1.291,46.124,46.124,0,0,0-7.115,1.452c-1.369.652-6.783.2-7.044-.456a1.035,1.035,0,0,1,.094-.784,2.1,2.1,0,0,1,.883-.941,2.158,2.158,0,0,1,.392-.177c1.019-.341,2.944-1.06,3.466-1.819a22.044,22.044,0,0,0,3.084-3.236,1.571,1.571,0,0,1,1.254-.781c.572-.026,1.208.261,1.468,1.514,0,0,3.13,1.786,3.976.219,0,0,.131,2.406.65,3.063h0A.872.872,0,0,1,852.147,792.693Z" transform="translate(-699.411 -653.775)"/>
  <path id="Path_1320" data-name="Path 1320" class="cls-12" d="M852.147,815.072a1.475,1.475,0,0,1-1.266,1.291,46.11,46.11,0,0,0-7.115,1.452c-1.369.652-6.783.2-7.044-.456a1.035,1.035,0,0,1,.094-.784,2.1,2.1,0,0,1,.883-.942c.883.586,2.842,1.159,7.152.486a31.457,31.457,0,0,0,7.138-1.7h0A.872.872,0,0,1,852.147,815.072Z" transform="translate(-699.411 -676.154)"/>
  <g id="Group_176" data-name="Group 176" class="cls-2" transform="translate(155.037 29.332)">
    <path id="Path_1321" data-name="Path 1321" d="M1024.914,207.244v-.032a6.036,6.036,0,0,0,.2-1.482,9.486,9.486,0,0,1-.2,1.189A.723.723,0,0,0,1024.914,207.244Z" transform="translate(-1009.416 -204.31)"/>
    <path id="Path_1322" data-name="Path 1322" d="M948.949,206.728a1.921,1.921,0,0,1,.161.745,2.222,2.222,0,0,0-.161-1.039.973.973,0,0,0-1.033-.6c-.558.131-.8.857-1.346,1.032a1.063,1.063,0,0,1-1.185-.611,3.1,3.1,0,0,1-.226-1.413v-1.636a2.7,2.7,0,0,0-.385-1.7,3,3,0,0,0-2.236-.811,1.894,1.894,0,0,0-1.277.516,1.651,1.651,0,0,1-1.344.479,1.162,1.162,0,0,1-.936-.811c-.055-.21-.041-.435-.1-.645-.154-.512-.707-.779-1.06-1.168a2.12,2.12,0,0,1-.549-1.379,2.222,2.222,0,0,0,.549,1.673c.367.389.913.657,1.06,1.169.062.208.048.433.1.643a1.162,1.162,0,0,0,.936.811,1.641,1.641,0,0,0,1.344-.479,1.894,1.894,0,0,1,1.277-.516,3.013,3.013,0,0,1,2.236.811,2.716,2.716,0,0,1,.385,1.7v1.636a2.979,2.979,0,0,0,.226,1.413,1.077,1.077,0,0,0,1.185.611c.548-.177.788-.9,1.346-1.032A.976.976,0,0,1,948.949,206.728Z" transform="translate(-937.259 -197.69)"/>
    <path id="Path_1323" data-name="Path 1323" d="M1012.777,236.763a2.5,2.5,0,0,1-.555.9q-1.076,1.295-2.153,2.588c-.906,1.09-1.867,2.351-1.8,3.741a6.361,6.361,0,0,1,1.8-3.448l2.153-2.586a2.525,2.525,0,0,0,.555-.9,2.427,2.427,0,0,0,.057-.707A1.7,1.7,0,0,1,1012.777,236.763Z" transform="translate(-995.727 -229.521)"/>
    <path id="Path_1324" data-name="Path 1324" d="M1001.674,275.473a1.544,1.544,0,0,1-.064-.353,1.766,1.766,0,0,0,.064.643.921.921,0,0,0,1.139.661c-.012-.1-.019-.191-.023-.286A.912.912,0,0,1,1001.674,275.473Z" transform="translate(-990.238 -261.443)"/>
  </g>
  <path id="Path_1325" data-name="Path 1325" class="cls-12" d="M879.26,795s.682,1.2,3.151.143" transform="translate(-734.467 -660.164)"/>
  <path id="Path_1326" data-name="Path 1326" class="cls-12" d="M997.5,796.67s2.13,2.508,4.815.821" transform="translate(-831.822 -661.539)"/>
  <path id="Path_1327" data-name="Path 1327" class="cls-12" d="M1025.355,628.7s-1.507.941-1.554,1.48.777-.392.777-.392Z" transform="translate(-853.476 -523.238)"/>
  <path id="Path_1328" data-name="Path 1328" class="cls-12" d="M1023.4,669.53a3.145,3.145,0,0,1-1.855.724c-1.125.049-1.032,1.517-.3,1.076A18.765,18.765,0,0,0,1023.4,669.53Z" transform="translate(-850.924 -556.856)"/>
  <path id="Path_1329" data-name="Path 1329" class="cls-12" d="M1031.489,674.86s-.722,3.55-1.309,2.865" transform="translate(-858.73 -561.245)"/>
  <path id="Path_1330" data-name="Path 1330" class="cls-3" d="M183.82,768.36s.97,1.268-.449,3.179-2.588,3.533-2.12,4.727c0,0,2.139-3.557,3.886-3.607S185.736,770.5,183.82,768.36Z" transform="translate(-159.663 -638.229)"/>
  <path id="Path_1331" data-name="Path 1331" class="cls-12" d="M184.094,768.36a1.524,1.524,0,0,1,.2.4c1.7,2,2.605,3.859.971,3.907-1.521.042-3.356,2.764-3.783,3.451a1.607,1.607,0,0,0,.051.155s2.139-3.557,3.886-3.607S186.011,770.5,184.094,768.36Z" transform="translate(-159.938 -638.229)"/>
  <path id="Path_1332" data-name="Path 1332" class="cls-16" d="M205.444,776.181c0,.447-.049.809-.111.809s-.113-.362-.113-.809.064-.235.125-.235S205.444,775.737,205.444,776.181Z" transform="translate(-179.485 -644.434)"/>
  <path id="Path_1333" data-name="Path 1333" class="cls-16" d="M206.425,779.107c-.392.214-.735.343-.765.29s.265-.272.657-.486.237-.058.267,0S206.817,778.893,206.425,779.107Z" transform="translate(-179.845 -646.826)"/>
  <path id="Path_1334" data-name="Path 1334" class="cls-3" d="M157.1,768.36s-.97,1.268.449,3.179,2.588,3.533,2.12,4.727c0,0-2.139-3.557-3.886-3.607S155.188,770.5,157.1,768.36Z" transform="translate(-138.073 -638.229)"/>
  <path id="Path_1335" data-name="Path 1335" class="cls-12" d="M157.085,768.36a1.589,1.589,0,0,0-.2.4c-1.7,2-2.605,3.859-.971,3.907,1.523.042,3.356,2.764,3.783,3.451a1.243,1.243,0,0,1-.051.155s-2.139-3.557-3.886-3.607S155.171,770.5,157.085,768.36Z" transform="translate(-138.055 -638.229)"/>
  <path id="Path_1336" data-name="Path 1336" class="cls-16" d="M157.05,776.181c0,.447.049.809.111.809s.113-.362.113-.809-.064-.235-.125-.235S157.05,775.737,157.05,776.181Z" transform="translate(-139.823 -644.434)"/>
  <path id="Path_1337" data-name="Path 1337" class="cls-16" d="M152.436,779.107c.392.214.733.343.763.29s-.265-.272-.657-.486-.237-.058-.267,0S152.044,778.893,152.436,779.107Z" transform="translate(-135.827 -646.826)"/>
  <path id="Path_1338" data-name="Path 1338" class="cls-17" d="M158.8,805.377s2.713-.083,3.533-.666,4.172-1.277,4.375-.343,4.077,4.644,1.014,4.668-7.117-.477-7.933-.975S158.8,805.377,158.8,805.377Z" transform="translate(-141.264 -667.501)"/>
  <path id="Path_1339" data-name="Path 1339" class="cls-18" d="M167.775,815.528c-3.063.025-7.117-.477-7.933-.975-.622-.378-.869-1.736-.952-2.363h-.09s.177,2.188.987,2.685,4.87,1,7.933.975c.883,0,1.191-.322,1.173-.788C168.771,815.346,168.434,815.523,167.775,815.528Z" transform="translate(-141.264 -674.318)"/>
</svg>
