<svg xmlns="http://www.w3.org/2000/svg" width="19.429" height="19.53" viewBox="0 0 19.429 19.53">
    <defs>
        <style>
            .cls-1{fill:#db353a}
        </style>
    </defs>
    <g id="noun_Download_1563391" transform="translate(-1.979 -2.073)">
        <path id="Path_1352" d="M16.4 6.13A5.7 5.7 0 0 0 5.24 7.759v.081a4.072 4.072 0 0 0 .815 8.06H8.5a.814.814 0 1 0 0-1.629H6.055a2.443 2.443 0 1 1-.039-4.886h.1a.875.875 0 0 0 .631-.285.814.814 0 0 0 .185-.666 4.072 4.072 0 1 1 8.031-1.283.814.814 0 0 0 .979.676 3.3 3.3 0 0 1 .7-.071 3.257 3.257 0 0 1 0 6.515h-1.63a.814.814 0 1 0 0 1.629h1.629a4.888 4.888 0 0 0-.241-9.77z" class="cls-1" data-name="Path 1352"/>
        <path id="Path_1353" d="M37.256 46a.814.814 0 0 0-.814.814v6.991l-1.053-1.053a.815.815 0 1 0-1.152 1.152l2.443 2.443a.814.814 0 0 0 1.152 0l2.443-2.443a.815.815 0 1 0-1.152-1.152l-1.053 1.053v-6.991a.814.814 0 0 0-.814-.814z" class="cls-1" data-name="Path 1353" transform="translate(-25.5 -34.984)"/>
    </g>
</svg>
