<svg xmlns="http://www.w3.org/2000/svg" width="51.257" height="53.02" viewBox="0 0 51.257 53.02">
    <path d="M11.658 0v5.66H0v47.36h51.257V5.653H39.599V0H38.27v5.66H12.983V0zM1.325 51.694V18.789h48.606v32.905zM38.27 6.979v5.66h1.325v-5.66h10.336v10.484H1.325V6.979h10.333v5.66h1.325v-5.66z" data-name="Path 1494"/>
    <path d="M6.74 32.598h8.616v-8.62H6.74zm1.325-7.29h5.965v5.96H8.065z" data-name="Path 1495"/>
    <path d="M21.32 32.598h8.616v-8.62H21.32zm1.325-7.29h5.965v5.96h-5.965z" data-name="Path 1496"/>
    <path d="M35.901 32.598h8.616v-8.62h-8.616zm1.325-7.29h5.965v5.96h-5.965z" data-name="Path 1497"/>
    <path d="M6.74 46.516h8.616v-8.62H6.74zm1.325-7.29h5.965v5.96H8.065z" data-name="Path 1498"/>
    <path d="M21.32 46.516h8.616v-8.62H21.32zm1.325-7.29h5.965v5.96h-5.965z" data-name="Path 1499"/>
    <path d="M35.901 46.516h8.616v-8.62h-8.616zm1.325-7.29h5.965v5.96h-5.965z" data-name="Path 1500"/>
</svg>
