<svg xmlns="http://www.w3.org/2000/svg" width="73.999" height="74" viewBox="0 0 73.999 74">
    <defs>
        <style>
            .cls-1{fill:#ed347d}
        </style>
    </defs>
    <g id="noun_feedback_1453124" transform="translate(-682.6 -265)">
        <g id="Group_212" data-name="Group 212" transform="translate(682.6 265)">
            <g id="Group_207" data-name="Group 207">
                <g id="Group_206" data-name="Group 206">
                    <g id="Group_191" data-name="Group 191" transform="translate(29.699)">
                        <g id="Group_190" data-name="Group 190">
                            <path id="Path_1340" d="M64.368 7.541a.837.837 0 0 1-.3.6 85.218 85.218 0 0 1-2.41 1.989.488.488 0 0 0-.181.6c.241.964.482 1.928.723 2.953a.772.772 0 0 1-.3.9.918.918 0 0 1-.964 0 67.16 67.16 0 0 1-2.651-1.687.367.367 0 0 0-.482 0c-.844.542-1.687 1.085-2.531 1.567a.914.914 0 0 1-.783.181.774.774 0 0 1-.542-.964c.241-1.085.542-2.109.783-3.194.06-.181 0-.241-.121-.362-.783-.6-1.507-1.265-2.23-1.928a.941.941 0 0 1-.482-.9.7.7 0 0 1 .723-.723c1.085-.06 2.23-.121 3.314-.241.181 0 .241-.121.3-.241.362-.9.723-1.808 1.145-2.772.06-.06.06-.181.121-.241a.869.869 0 0 1 .783-.482.709.709 0 0 1 .717.546c.422.964.783 1.989 1.205 2.953-.121.241 0 .362.241.362l2.892.181a1.025 1.025 0 0 1 .422.06.906.906 0 0 1 .608.843z" class="cls-1" data-name="Path 1340" transform="translate(-51.885 -2.6)"/>
                        </g>
                    </g>
                    <g id="Group_193" data-name="Group 193" transform="translate(51.159 8.775)">
                        <g id="Group_192" data-name="Group 192">
                            <path id="Path_1341" d="M99.611 26.4a.68.68 0 0 1-.663.181c-1.024-.121-2.049-.181-3.073-.3-.3-.06-.422.06-.542.3a57.985 57.985 0 0 1-1.567 2.591.809.809 0 0 1-.844.422.774.774 0 0 1-.663-.723c-.241-1.024-.482-2.049-.663-3.073-.06-.241-.121-.3-.362-.362-.964-.241-1.928-.482-2.953-.663a.869.869 0 0 1-.663-.422.755.755 0 0 1 .3-1.085c.964-.542 1.868-1.145 2.832-1.687a.331.331 0 0 0 .181-.3c-.06-.964-.181-1.989-.241-2.953a.937.937 0 0 1 .241-.964.747.747 0 0 1 1.024 0 91.037 91.037 0 0 1 2.471 2.169c.121.121.241.06.362.06.9-.362 1.808-.783 2.772-1.145.06-.06.181-.06.241-.121a.863.863 0 0 1 .9.181.819.819 0 0 1 .181.9c-.422.964-.844 1.928-1.265 2.953a.472.472 0 0 0 .06.482c.663.723 1.265 1.446 1.928 2.23a1.261 1.261 0 0 1 .241.362.877.877 0 0 1-.235.967z" class="cls-1" data-name="Path 1341" transform="translate(-87.496 -17.161)"/>
                        </g>
                    </g>
                    <g id="Group_195" data-name="Group 195" transform="translate(61.872 29.699)">
                        <g id="Group_194" data-name="Group 194">
                            <path id="Path_1342" d="M112.461 64.368a.837.837 0 0 1-.6-.3 85.218 85.218 0 0 1-1.989-2.41.488.488 0 0 0-.6-.181c-.964.241-1.928.482-2.953.723a.772.772 0 0 1-.9-.3.918.918 0 0 1 0-.964 67.16 67.16 0 0 1 1.687-2.651.367.367 0 0 0 0-.482c-.542-.844-1.085-1.687-1.567-2.531a.914.914 0 0 1-.181-.783.774.774 0 0 1 .964-.542c1.085.241 2.109.542 3.194.783.181.06.241 0 .362-.121.6-.783 1.265-1.507 1.928-2.23a.941.941 0 0 1 .9-.482.7.7 0 0 1 .723.723c.06 1.085.121 2.23.241 3.314 0 .181.121.241.241.3.9.362 1.808.723 2.772 1.145.06.06.181.06.241.121a.869.869 0 0 1 .482.783.709.709 0 0 1-.542.723c-.964.422-1.989.783-2.953 1.205a.4.4 0 0 0-.3.422l-.181 2.892a1.026 1.026 0 0 1-.06.422 1.42 1.42 0 0 1-.909.421z" class="cls-1" data-name="Path 1342" transform="translate(-105.275 -51.885)"/>
                        </g>
                    </g>
                    <g id="Group_197" data-name="Group 197" transform="translate(52.776 51.159)">
                        <g id="Group_196" data-name="Group 196">
                            <path id="Path_1343" d="M93.386 99.611a.68.68 0 0 1-.181-.663c.121-1.024.181-2.049.3-3.073.06-.3-.06-.422-.3-.542a57.985 57.985 0 0 1-2.591-1.567.809.809 0 0 1-.422-.844.774.774 0 0 1 .723-.663c1.024-.241 2.049-.482 3.073-.663.241-.06.3-.121.362-.362.241-.964.482-1.928.663-2.953a.869.869 0 0 1 .422-.663.755.755 0 0 1 1.085.3c.542.964 1.145 1.868 1.687 2.832a.331.331 0 0 0 .3.181c.964-.06 1.989-.181 2.953-.241a.937.937 0 0 1 .964.241.747.747 0 0 1 0 1.024 91.037 91.037 0 0 1-2.169 2.471c-.121.121-.06.241-.06.362.362.9.783 1.808 1.145 2.772.06.06.06.181.121.241a.863.863 0 0 1-.181.9.819.819 0 0 1-.9.181c-.964-.422-1.928-.844-2.953-1.265a.472.472 0 0 0-.482.06c-.723.663-1.446 1.265-2.23 1.928a1.261 1.261 0 0 1-.362.241.877.877 0 0 1-.967-.235z" class="cls-1" data-name="Path 1343" transform="translate(-90.181 -87.496)"/>
                        </g>
                    </g>
                    <g id="Group_199" data-name="Group 199" transform="translate(31.817 61.872)">
                        <g id="Group_198" data-name="Group 198">
                            <path id="Path_1344" d="M55.4 112.461a.837.837 0 0 1 .3-.6 85.218 85.218 0 0 1 2.41-1.989.488.488 0 0 0 .181-.6c-.241-.964-.482-1.928-.723-2.953a.772.772 0 0 1 .3-.9.918.918 0 0 1 .964 0 67.16 67.16 0 0 1 2.651 1.687.367.367 0 0 0 .482 0c.844-.542 1.687-1.085 2.531-1.567a.914.914 0 0 1 .783-.181.774.774 0 0 1 .542.964c-.241 1.085-.542 2.109-.783 3.194-.06.181 0 .241.121.362.783.6 1.507 1.265 2.23 1.928a.941.941 0 0 1 .482.9.7.7 0 0 1-.723.723c-1.085.06-2.23.121-3.314.241-.181 0-.241.121-.3.241-.362.9-.723 1.808-1.145 2.772-.06.06-.06.181-.121.241a.869.869 0 0 1-.783.482.709.709 0 0 1-.723-.542c-.422-.964-.783-1.989-1.205-2.953a.4.4 0 0 0-.422-.3l-2.892-.181a1.026 1.026 0 0 1-.422-.06 1.42 1.42 0 0 1-.421-.909z" class="cls-1" data-name="Path 1344" transform="translate(-55.4 -105.275)"/>
                        </g>
                    </g>
                    <g id="Group_201" data-name="Group 201" transform="translate(10.427 52.776)">
                        <g id="Group_200" data-name="Group 200">
                            <path id="Path_1345" d="M20.2 93.386a.68.68 0 0 1 .663-.181c1.024.121 2.049.181 3.073.3.3.06.422-.06.542-.3a57.985 57.985 0 0 1 1.567-2.591.809.809 0 0 1 .844-.422.774.774 0 0 1 .663.723c.241 1.024.482 2.049.663 3.073.06.241.121.3.362.362.964.241 1.928.482 2.953.663a.869.869 0 0 1 .663.422.755.755 0 0 1-.3 1.085c-.964.542-1.868 1.145-2.832 1.687a.331.331 0 0 0-.181.3c.06.964.181 1.989.241 2.953a.937.937 0 0 1-.241.964.747.747 0 0 1-1.024 0 91.037 91.037 0 0 1-2.471-2.169c-.121-.121-.241-.06-.362-.06-.9.362-1.808.783-2.772 1.145-.06.06-.181.06-.241.121a.863.863 0 0 1-.9-.181.819.819 0 0 1-.181-.9c.422-.964.844-1.928 1.265-2.953a.472.472 0 0 0-.06-.482c-.663-.723-1.265-1.446-1.928-2.23a1.261 1.261 0 0 1-.241-.362.877.877 0 0 1 .235-.967z" class="cls-1" data-name="Path 1345" transform="translate(-19.903 -90.181)"/>
                        </g>
                    </g>
                    <g id="Group_203" data-name="Group 203" transform="translate(0 31.817)">
                        <g id="Group_202" data-name="Group 202">
                            <path id="Path_1346" d="M7.541 55.4a.837.837 0 0 1 .6.3 85.218 85.218 0 0 1 1.989 2.41.488.488 0 0 0 .6.181c.964-.241 1.928-.482 2.953-.723a.772.772 0 0 1 .9.3.918.918 0 0 1 0 .964 67.16 67.16 0 0 1-1.687 2.651.367.367 0 0 0 0 .482c.542.844 1.085 1.687 1.567 2.531a.914.914 0 0 1 .181.783.774.774 0 0 1-.964.542c-1.085-.241-2.109-.542-3.194-.783-.181-.06-.241 0-.362.121-.6.783-1.265 1.507-1.928 2.23a.941.941 0 0 1-.9.482.7.7 0 0 1-.723-.723c-.06-1.085-.121-2.23-.241-3.314 0-.181-.121-.241-.241-.3-.9-.362-1.808-.723-2.772-1.145-.06-.06-.181-.06-.241-.121a.869.869 0 0 1-.482-.783.709.709 0 0 1 .542-.723c.964-.422 1.989-.783 2.953-1.205.241.121.362 0 .362-.241l.181-2.892A1.026 1.026 0 0 1 6.7 56a.906.906 0 0 1 .841-.6z" class="cls-1" data-name="Path 1346" transform="translate(-2.6 -55.4)"/>
                        </g>
                    </g>
                    <g id="Group_205" data-name="Group 205" transform="translate(8.775 10.427)">
                        <g id="Group_204" data-name="Group 204">
                            <path id="Path_1347" d="M26.4 20.2a.68.68 0 0 1 .181.663c-.121 1.024-.181 2.049-.3 3.073-.06.3.06.422.3.542a57.985 57.985 0 0 1 2.591 1.567.809.809 0 0 1 .422.844.774.774 0 0 1-.723.663c-1.024.241-2.049.482-3.073.663-.241.06-.3.121-.362.362-.241.964-.482 1.928-.663 2.953a.869.869 0 0 1-.422.663.755.755 0 0 1-1.085-.3c-.542-.964-1.145-1.868-1.687-2.832a.331.331 0 0 0-.3-.181c-.964.06-1.989.181-2.953.241a.937.937 0 0 1-.964-.241.747.747 0 0 1 0-1.024 91.037 91.037 0 0 1 2.169-2.471c.121-.121.06-.241.06-.362-.362-.9-.783-1.808-1.145-2.772-.06-.06-.06-.181-.121-.241a.863.863 0 0 1 .181-.9.819.819 0 0 1 .9-.181c.964.422 1.928.844 2.953 1.265a.472.472 0 0 0 .482-.06c.723-.663 1.446-1.265 2.23-1.928a1.261 1.261 0 0 1 .362-.241.877.877 0 0 1 .967.235z" class="cls-1" data-name="Path 1347" transform="translate(-17.161 -19.903)"/>
                        </g>
                    </g>
                </g>
            </g>
            <g id="Group_211" data-name="Group 211" transform="translate(19.645 17.837)">
                <g id="Group_210" data-name="Group 210">
                    <g id="Group_208" data-name="Group 208" transform="translate(10.124)">
                        <path id="Path_1348" d="M75.321 43.951l-.121-.121c-.06-.06-.06-.06-.121-.06l-.06-.06a.059.059 0 0 1-.06-.06l-.181-.06c-.06-.06-.181-.06-.241-.121a11.125 11.125 0 0 0-4.459-.121h-1.265a5.184 5.184 0 0 0-.964.06h-.6c-.181 0-.362.06-.482.06h-.121a.059.059 0 0 1-.06-.06L67 41.962c.241-.9.542-1.808.783-2.712a7.487 7.487 0 0 0 .422-3.314 4.251 4.251 0 0 0-1.984-3.136 4.063 4.063 0 0 0-2.049-.6h-.181a1.094 1.094 0 0 0-1.145 1.085c-.06.844-.181 1.627-.3 2.41a8.594 8.594 0 0 1-1.085 3.314 6.487 6.487 0 0 1-1.085 1.446q-.814.9-1.808 1.989l-1.507 1.687c-.362.422-.723.783-1.085 1.145a1.314 1.314 0 0 1-.3.241 2.528 2.528 0 0 1-.844.542 5.025 5.025 0 0 1-.723.241c-1.265.362-1.989.723-2.049 1.446 0 .422-.06.783-.06 1.145v12.957h2.109a47.34 47.34 0 0 0 2.29.362l.422.06c1.748.3 3.435.542 5.062.783 4.037.482 8.858 1.627 11.811-1.989 1.205-1.507 1.326-3.616 1.567-5.423.422-2.953.964-5.966 1.386-8.919a3.332 3.332 0 0 0-1.326-2.771z" class="cls-1" data-name="Path 1348" transform="translate(-52 -32.2)"/>
                    </g>
                    <g id="Group_209" data-name="Group 209" transform="translate(0 12.655)">
                        <path id="Path_1349" d="M41.829 53.2h-5.364a1.236 1.236 0 0 0-1.265 1.265v15.849a1.236 1.236 0 0 0 1.265 1.265h5.363a1.236 1.236 0 0 0 1.265-1.265V54.465a1.236 1.236 0 0 0-1.264-1.265z" class="cls-1" data-name="Path 1349" transform="translate(-35.2 -53.2)"/>
                    </g>
                </g>
            </g>
        </g>
    </g>
</svg>
