<svg xmlns="http://www.w3.org/2000/svg" width="120.186" height="28" viewBox="0 0 120.186 28">
  <defs>
    <style>
      .cls-1 {
        fill: #4d4d4d;
      }

      .cls-2, .cls-5 {
        fill: #da2128;
      }

      .cls-2, .cls-3 {
        fill-rule: evenodd;
      }

      .cls-3 {
        fill: #fff;
      }

      .cls-4 {
        fill: none;
        stroke: #4d4d4d;
        stroke-miterlimit: 2.613;
      }
    </style>
  </defs>
  <g id="Flex_20on_20light" data-name="Flex%20on%20light" transform="translate(-818 -423)">
    <path id="Path_909" data-name="Path 909" class="cls-1" d="M305.734,357.745v-2.2H294.707c-3.038,0-4.589,1.315-4.589,4.11V375.1c0,2.1,1.354,3.09,3.335,3.09h3.037v-8.548h5.183a2.685,2.685,0,0,0,2.707-2.827s-.033-1.052,0-1.94h-8.023v-4.208h6.075a3.073,3.073,0,0,0,3.3-2.926Z" transform="translate(583.954 70.71)"/>
    <path id="Path_910" data-name="Path 910" class="cls-1" d="M365.426,370.753v-2.17h-1.387c-1.75,0-2.641-.493-2.641-2.1V353.356c0-3.059-1.321-4.308-4.061-4.308h-2.212V367.4c0,4.275,2.873,6.248,6.207,6.248,1.981,0,4.094-.691,4.094-2.894Z" transform="translate(535.749 75.52)"/>
    <path id="Path_911" data-name="Path 911" class="cls-1" d="M415.008,378.374c0-4.622-3.7-7.3-8.452-7.3-5.613,0-9.343,4.49-9.343,10,0,5.018,3.3,9.244,9.575,9.244,5.183,0,7.065-2.08,7.065-4.391v-1.453h-.231c-1.023.693-2.839,1.155-5.745,1.155-2.608,0-4.094-.858-4.457-2.674h2.707c6.141,0,8.881-.958,8.881-4.589Zm-5.811-.693c0,.792-.528,1.255-3.5,1.255h-2.443c.165-1.75,1.09-3.169,3.3-3.169,1.816,0,2.641.99,2.641,1.915Z" transform="translate(504.51 59.106)"/>
    <path id="Path_912" data-name="Path 912" class="cls-2" d="M87.048,343A14,14,0,1,1,73,357a14.024,14.024,0,0,1,14.048-14Zm4.65,4.386a4.091,4.091,0,1,1-4.105,4.091,4.1,4.1,0,0,1,4.105-4.091Z" transform="translate(745 80)"/>
    <path id="Path_913" data-name="Path 913" class="cls-3" d="M133.524,359.9a4.084,4.084,0,1,1-4.084,4.084,4.084,4.084,0,0,1,4.084-4.084Z" transform="translate(703.194 67.464)"/>
    <line id="Line_2" data-name="Line 2" class="cls-4" y2="18.049" transform="translate(859.778 427.975)"/>
    <path id="Path_914" data-name="Path 914" class="cls-5" d="M471.192,392.967c-2.179,0-3.6-1.057-3.6-3,1.816-.5,2.443-.957,4.424-3.731l1.618-2.278c-1.024-1.123-2.014-2.113-2.74-3.037a7.025,7.025,0,0,1-1.882-3.995,2.269,2.269,0,0,1,2.509-2.278h2.146c.132,1.354.858,2.707,3.136,5.183.264-.363.792-1.123,1.354-1.915a16.629,16.629,0,0,1,1.684-2.08,3.815,3.815,0,0,1,2.674-1.189h3.368a5.955,5.955,0,0,1-.925,3.1c-1.155,1.882-2.509,3.566-3.83,5.348l1.123,1.123c2.641,2.641,3.533,4.391,3.533,6.438a2.332,2.332,0,0,1-2.476,2.146h-2.542a8.716,8.716,0,0,0-2.773-5.447c-.5.693-.958,1.42-1.453,2.113-1.354,1.915-2.74,3.5-5.348,3.5Z" transform="translate(452.302 56.465)"/>
  </g>
</svg>
