<svg xmlns="http://www.w3.org/2000/svg" width="332.027" height="310.002" viewBox="0 0 332.027 310.002">
    <defs>
        <style>
            .cls-1{fill:#262626}.cls-2{fill:#ab192d}
        </style>
    </defs>
    <g id="noun_Forbidden_1722611" transform="translate(-2.498 -5.7)">
        <g id="Group_9663" data-name="Group 9663" transform="translate(2.498 5.7)">
            <circle id="Ellipse_285" cx="56.269" cy="56.269" r="56.269" class="cls-1" data-name="Ellipse 285" transform="translate(57.674)"/>
            <path id="Path_1455" d="M261.132 107.857c-9.436 1.4-33.2 2.1-45.434-3.495-6.99-3.145-14.329-20.97-17.475-28.659q-2.621-5.767-4.194-9.436C188.437 55.782 177.253 43.2 153.837 43.2h-71.3c-18.523 0-32.853 9.087-42.638 27.261l-2.446 4.194c-9.435 17.474-18.871 35.645-22.716 49.278C11.242 138.612 3.2 179.154 2.855 180.9a21.823 21.823 0 0 0 17.125 25.514c1.4 0 2.8.349 4.194.349a21.656 21.656 0 0 0 21.319-17.475c0-.349 8.038-41.24 11.533-54.172 1.4-5.242 4.893-13.281 9.087-20.97l-2.8 94.014a13.51 13.51 0 0 0 13.63 13.98h79.685a13.51 13.51 0 0 0 13.63-13.98l-2.8-96.81c6.64 12.582 16.077 25.513 30.406 32.5 26.911 12.582 65.006 7.689 69.55 6.99a21.664 21.664 0 0 0 18.523-24.465 22.468 22.468 0 0 0-24.805-18.518z" class="cls-1" data-name="Path 1455" transform="translate(-2.498 87.861)"/>
            <path id="Path_1456" d="M123.662 21A61.229 61.229 0 0 0 62.5 82.162c0 33.552 27.261 61.511 61.162 61.511a61.229 61.229 0 0 0 61.162-61.162C184.823 48.96 157.213 21 123.662 21zm39.493 61.162a39.269 39.269 0 0 1-4.893 19.222l-53.823-53.822a39.269 39.269 0 0 1 19.222-4.893 39.677 39.677 0 0 1 39.494 39.493zm-79.335 0a39.269 39.269 0 0 1 4.893-19.222l53.822 53.822a39.269 39.269 0 0 1-19.222 4.893c-21.669.345-39.494-17.475-39.494-39.493z" class="cls-2" data-name="Path 1456" transform="translate(147.204 32.473)"/>
        </g>
    </g>
</svg>
