<svg xmlns="http://www.w3.org/2000/svg" width="53" height="53.001" viewBox="0 0 53 53.001">
    <g data-name="Group 9672">
        <path d="M26.5 53A26.5 26.5 0 1 1 53 26.5 26.53 26.53 0 0 1 26.5 53zm0-50.793A24.292 24.292 0 1 0 50.792 26.5 24.319 24.319 0 0 0 26.5 2.208z" data-name="Path 1501"/>
        <path d="M37.556 42.772a1.1 1.1 0 0 1-.649-.211L26.5 35.016l-10.408 7.55a1.1 1.1 0 0 1-1.7-1.232l3.974-12.218L7.96 21.561a1.1 1.1 0 0 1 .649-1.995h12.864L25.448 7.35a1.105 1.105 0 0 1 2.1 0l3.977 12.216H44.39a1.1 1.1 0 0 1 .649 1.995l-10.407 7.555 3.975 12.217a1.1 1.1 0 0 1-1.051 1.443zm-25.548-21l8.306 6.027a1.1 1.1 0 0 1 .4 1.232l-3.173 9.75 8.309-6.025a1.1 1.1 0 0 1 1.3 0l8.306 6.026-3.173-9.75a1.1 1.1 0 0 1 .4-1.232l8.306-6.027H30.722a1.1 1.1 0 0 1-1.051-.763L26.5 11.26l-3.173 9.749a1.1 1.1 0 0 1-1.051.763z" data-name="Path 1502"/>
    </g>
</svg>
