<svg xmlns="http://www.w3.org/2000/svg" width="32.843" height="53.824" viewBox="0 0 32.843 53.824">
    <path d="M29.185 4.912h3.658V0H0v4.912h3.657c.162 10.7 4.933 19.483 11.266 20.706v2.376C8.548 29.227 3.756 38.121 3.654 48.911H0v4.912h32.842v-4.911h-3.654c-.1-10.79-4.894-19.685-11.269-20.917v-2.378C24.149 24.4 29.017 15.43 29.185 4.912zM1.123 3.789V1.123h30.6v2.666zm30.6 46.245V52.7h-30.6v-2.666zM17.36 28.9c5.967.829 10.7 9.532 10.847 19.875H4.634C4.78 38.433 9.514 29.729 15.482 28.9l.423-.059v-4.067l-.423-.059c-5.954-.826-10.679-9.491-10.846-19.8h23.571c-.166 10.313-4.891 18.978-10.845 19.8l-.424.059v4.065z" data-name="Path 1458"/>
</svg>
