<svg xmlns="http://www.w3.org/2000/svg" width="12.72" height="12.084" viewBox="0 0 12.72 12.084">
    <defs>
        <style>
            .cls-1{fill:#262626}
        </style>
    </defs>
    <path id="ic_work_24px" d="M13.448 4.544H10.9V3.272A1.268 1.268 0 0 0 9.632 2H7.088a1.268 1.268 0 0 0-1.272 1.272v1.272H3.272a1.262 1.262 0 0 0-1.266 1.272l-.006 7a1.268 1.268 0 0 0 1.272 1.272h10.176a1.268 1.268 0 0 0 1.272-1.272v-7a1.268 1.268 0 0 0-1.272-1.272zm-3.816 0H7.088V3.272h2.544z" class="cls-1" transform="translate(-2 -2)"/>
</svg>
