<svg xmlns="http://www.w3.org/2000/svg" width="14.132" height="13.559" viewBox="0 0 14.132 13.559">
    <defs>
        <style>
            .cls-1{fill:#db353a}
        </style>
    </defs>
    <g id="noun_Taks_List_57047" data-name="noun_Taks List_57047" transform="translate(-29.847 -30.455)">
        <g id="Group_134" data-name="Group 134" transform="translate(29.847 30.48)">
            <path id="Path_1077" d="M36.426 38.883h-4.334a2.247 2.247 0 0 1-2.245-2.245v-3.866a2.248 2.248 0 0 1 2.245-2.245h2.767a.521.521 0 1 1 0 1.041h-2.767a1.205 1.205 0 0 0-1.2 1.2v3.866a1.2 1.2 0 0 0 1.2 1.2h4.334a1.2 1.2 0 0 0 1.2-1.2V34.9a.521.521 0 0 1 1.041 0v1.734a2.248 2.248 0 0 1-2.241 2.249z" class="cls-1" data-name="Path 1077" transform="translate(-29.847 -30.527)"/>
        </g>
        <g id="Group_135" data-name="Group 135" transform="translate(32.566 33.069)">
            <path id="Path_1078" d="M44.26 46.342h-4.334a2.247 2.247 0 0 1-2.245-2.242v-.865a.521.521 0 0 1 1.041 0v.865a1.2 1.2 0 0 0 1.2 1.2h4.338a1.2 1.2 0 0 0 1.2-1.2v-3.869a1.2 1.2 0 0 0-1.2-1.2.521.521 0 1 1 0-1.041 2.247 2.247 0 0 1 2.24 2.241V44.1a2.247 2.247 0 0 1-2.24 2.242z" class="cls-1" data-name="Path 1078" transform="translate(-37.681 -37.986)"/>
        </g>
        <g id="Group_136" data-name="Group 136" transform="translate(35.155 35.658)">
            <path id="Path_1079" d="M51.718 53.8h-4.334a2.247 2.247 0 0 1-2.245-2.245v-.865a.521.521 0 1 1 1.041 0v.865a1.2 1.2 0 0 0 1.2 1.2h4.334a1.2 1.2 0 0 0 1.2-1.2v-3.866a1.205 1.205 0 0 0-1.2-1.2h-.865a.521.521 0 1 1 0-1.041h.865a2.248 2.248 0 0 1 2.245 2.245v3.866a2.248 2.248 0 0 1-2.241 2.241z" class="cls-1" data-name="Path 1079" transform="translate(-45.139 -45.444)"/>
        </g>
        <g id="Group_137" data-name="Group 137" transform="translate(32.429 33.47)">
            <path id="Path_1080" d="M39.222 41.962a.52.52 0 0 1-.408-.2L37.4 39.987a.521.521 0 1 1 .815-.649l1.417 1.779a.52.52 0 0 1-.407.845z" class="cls-1" data-name="Path 1080" transform="translate(-37.284 -39.142)"/>
        </g>
        <g id="Group_138" data-name="Group 138" transform="translate(33.845 30.455)">
            <path id="Path_1081" d="M41.885 36.291a.514.514 0 0 1-.179-.032.52.52 0 0 1-.31-.666 12.96 12.96 0 0 1 3.857-5.018.521.521 0 1 1 .663.8 12.169 12.169 0 0 0-3.542 4.572.52.52 0 0 1-.489.344z" class="cls-1" data-name="Path 1081" transform="translate(-41.364 -30.455)"/>
        </g>
    </g>
</svg>
