<svg xmlns="http://www.w3.org/2000/svg" width="9.515" height="12.488" viewBox="0 0 9.515 12.488">
    <defs>
        <style>
            .cls-1{fill:#262626}
        </style>
    </defs>
    <path id="ic_lock_open_24px" d="M8.757 10.515a1.189 1.189 0 1 0-1.189-1.19 1.193 1.193 0 0 0 1.189 1.19zm3.568-5.352h-.595v-1.19a2.973 2.973 0 0 0-5.947 0h1.13a1.843 1.843 0 0 1 3.687 0v1.19H5.189A1.193 1.193 0 0 0 4 6.352V12.3a1.193 1.193 0 0 0 1.189 1.189h7.136a1.193 1.193 0 0 0 1.19-1.189V6.352a1.193 1.193 0 0 0-1.19-1.189zm0 7.136H5.189V6.352h7.136z" class="cls-1" transform="translate(-4 -1)"/>
</svg>
