<svg xmlns="http://www.w3.org/2000/svg" width="271.107" height="209" viewBox="0 0 271.107 209">
    <defs>
        <style>
            .cls-1{opacity:.102}.cls-2{fill:#f2f2f2}.cls-3{fill:none;stroke:#3f3d56;stroke-miterlimit:10}.cls-4,.cls-7{fill:#db353a}.cls-4,.cls-5{opacity:.3}.cls-5,.cls-6{fill:#0a9cb7}
        </style>
    </defs>
    <g id="undraw_profile_6l1l" class="cls-1" transform="translate(-51.42)">
        <rect id="Rectangle_764" width="245.764" height="166.399" class="cls-2" data-name="Rectangle 764" rx="19.398" transform="translate(59.423 42.601)"/>
        <rect id="Rectangle_765" width="245.764" height="166.399" class="cls-3" data-name="Rectangle 765" rx="19.398" transform="translate(51.92 32.097)"/>
        <path id="Line_4" d="M0 0h245.764" class="cls-3" data-name="Line 4" transform="translate(51.92 48.05)"/>
        <rect id="Rectangle_766" width="67.026" height="10.337" class="cls-4" data-name="Rectangle 766" rx="5.169" transform="translate(198.811 85.451)"/>
        <rect id="Rectangle_767" width="92.703" height="8.337" class="cls-4" data-name="Rectangle 767" rx="4.168" transform="translate(185.973 114.129)"/>
        <rect id="Rectangle_768" width="92.703" height="8.337" class="cls-4" data-name="Rectangle 768" rx="4.168" transform="translate(185.973 136.805)"/>
        <rect id="Rectangle_769" width="92.703" height="8.337" class="cls-4" data-name="Rectangle 769" rx="4.168" transform="translate(185.973 159.48)"/>
        <rect id="Rectangle_770" width="67.026" height="10.337" class="cls-3" data-name="Rectangle 770" rx="5.169" transform="translate(202.146 82.117)"/>
        <rect id="Rectangle_771" width="92.703" height="8.337" class="cls-3" data-name="Rectangle 771" rx="4.168" transform="translate(189.308 110.795)"/>
        <rect id="Rectangle_772" width="92.703" height="8.337" class="cls-3" data-name="Rectangle 772" rx="4.168" transform="translate(189.308 133.47)"/>
        <rect id="Rectangle_773" width="92.703" height="8.337" class="cls-3" data-name="Rectangle 773" rx="4.168" transform="translate(189.308 156.146)"/>
        <circle id="Ellipse_58" cx="5.002" cy="5.002" r="5.002" class="cls-5" data-name="Ellipse 58" transform="translate(65.592 37.099)"/>
        <circle id="Ellipse_59" cx="5.002" cy="5.002" r="5.002" class="cls-5" data-name="Ellipse 59" transform="translate(79.598 37.099)"/>
        <circle id="Ellipse_60" cx="5.002" cy="5.002" r="5.002" class="cls-5" data-name="Ellipse 60" transform="translate(93.603 37.099)"/>
        <circle id="Ellipse_61" cx="5.002" cy="5.002" r="5.002" class="cls-3" data-name="Ellipse 61" transform="translate(67.593 35.098)"/>
        <circle id="Ellipse_62" cx="5.002" cy="5.002" r="5.002" class="cls-3" data-name="Ellipse 62" transform="translate(81.598 35.098)"/>
        <circle id="Ellipse_63" cx="5.002" cy="5.002" r="5.002" class="cls-3" data-name="Ellipse 63" transform="translate(95.604 35.098)"/>
        <path id="Path_963" d="M512.3 587.158a49.722 49.722 0 0 1-.778-12.792s-4.234-18.6-7.566-20.339c-.051.065-1.668 2.185-1.873 8.745a26.969 26.969 0 0 1-2.568 11.037 97.774 97.774 0 0 1 .327 13.348z" class="cls-6" data-name="Path 963" transform="translate(-382.729 -395.665)"/>
        <path id="Path_964" d="M460.776 298.379h-76.849a7.927 7.927 0 0 0-7.927 7.927v102.526a7.927 7.927 0 0 0 7.927 7.927h26.962c-.9-3.735-2.02-9.567-.886-13.623.053-.189.109-.376.172-.557a21.173 21.173 0 0 0 .764-8.121 16.876 16.876 0 0 0 0-7.08c-.833-3.887-1.416-7.7-1.416-7.7a49.794 49.794 0 0 1-.058-8.285l.029-.2-.221-.051s1.18-5.345 1.6-8.746c.1-.8.228-1.821.368-2.906a6.989 6.989 0 0 1-1.131-.287c-3.748-1.319-4.928-13.258-4.928-13.258v-3.783s-1.249-5.8 3.124-8.364a50.875 50.875 0 0 1 6.011-3.2l.1-.069a3.688 3.688 0 0 0 1.1-1.412q.009-.143 0-.284a6.776 6.776 0 0 0-1.911-3.666l-2.292-2.754a2.693 2.693 0 0 1-.59-.955 2.2 2.2 0 0 1-.062-.6v-.224q.019-1.027.056-2.053c.021-.6.172-1.352.757-1.474.3-.064.707.047.868-.219a.522.522 0 0 0 .039-.354c0 .009 0 .018-.005.027l-.006-.033a7.481 7.481 0 0 1-.217-1.463 1.951 1.951 0 0 1 .094-.657c.339-.992 1.507-1.4 2.538-1.586a4.4 4.4 0 0 0 2.837-1.173 9.012 9.012 0 0 1 .563-.792 2.21 2.21 0 0 1 1.056-.532 5.835 5.835 0 0 1 3.837.34 3.381 3.381 0 0 0 1.548.5c.569-.036 1.054-.436 1.616-.534a2.3 2.3 0 0 1 2.22 1.327 3.284 3.284 0 0 1 .411 1.675 2.3 2.3 0 0 1-.588 1.581c-.39.414-.972.7-1.134 1.244-.066.222-.051.461-.109.685-.007.028-.019.054-.029.081l.033.041a7.08 7.08 0 0 1-3.445 11.011c0 .07-.005.14-.005.211a3.059 3.059 0 0 0 .947 2.356l6.185 2.536s3.723-.451 5.067 5.105a9.609 9.609 0 0 1 .23 2.82 8.415 8.415 0 0 0 1.019 4.222c1.527 3.054 1.18 10.065-1.944 10.759-2.959.657-4.109.381-4.223.35l-.007.123c.049 1.315.517 12.661 2.217 14.034.47.38.38.636-.005.809s0 .073.01.2c.051.83.313 3.99 1.451 5.788 1.319 2.082 1.181 14.091 1.181 14.091l.9 7.08s-.555 4.373 0 5.136c.315.433.7 7.137.969 12.862h23.186a7.927 7.927 0 0 0 7.927-7.927V306.306a7.927 7.927 0 0 0-7.927-7.927z" class="cls-7" data-name="Path 964" transform="translate(-300.404 -225.266)"/>
        <rect id="Rectangle_774" width="92.703" height="118.38" class="cls-3" data-name="Rectangle 774" rx="23.772" transform="translate(67.593 64.11)"/>
        <path id="Path_977" d="M1005.03 86.584a7.664 7.664 0 0 0-6.606 4.619c-1.652 3.993.475 8.683 3.668 11.595s7.294 4.576 11.021 6.763c5.005 2.938 9.5 7.017 12.007 12.253s2.771 11.721-.173 16.723c-2.732 4.643-7.7 7.421-12.439 9.984" class="cls-3" data-name="Path 977" transform="translate(-714.889 -84.097)"/>
        <ellipse id="Ellipse_65" cx="5.836" cy="2.834" class="cls-7" data-name="Ellipse 65" rx="5.836" ry="2.834" transform="translate(288.513)"/>
        <ellipse id="Ellipse_66" cx="5.836" cy="2.834" class="cls-7" data-name="Ellipse 66" rx="5.836" ry="2.834" transform="translate(293.182 18.674)"/>
        <ellipse id="Ellipse_67" cx="5.836" cy="2.834" class="cls-7" data-name="Ellipse 67" rx="5.836" ry="2.834" transform="translate(282.511 21.675)"/>
        <ellipse id="Ellipse_68" cx="5.836" cy="2.834" class="cls-7" data-name="Ellipse 68" rx="5.836" ry="2.834" transform="translate(299.184 37.348)"/>
        <ellipse id="Ellipse_69" cx="5.836" cy="2.834" class="cls-7" data-name="Ellipse 69" rx="5.836" ry="2.834" transform="translate(310.855 37.348)"/>
    </g>
</svg>
