<svg xmlns="http://www.w3.org/2000/svg" width="12.323" height="12.323" viewBox="0 0 12.323 12.323">
    <defs>
        <style>
            .cls-1{fill:#262626}
        </style>
    </defs>
    <path id="ic_account_circle_24px" d="M8.161 2a6.161 6.161 0 1 0 6.161 6.161A6.164 6.164 0 0 0 8.161 2zm0 1.848A1.848 1.848 0 1 1 6.313 5.7a1.846 1.846 0 0 1 1.848-1.852zm0 8.749a4.436 4.436 0 0 1-3.7-1.984c.018-1.226 2.465-1.9 3.7-1.9s3.678.672 3.7 1.9a4.436 4.436 0 0 1-3.7 1.987z" class="cls-1" transform="translate(-2 -2)"/>
</svg>
