<svg xmlns="http://www.w3.org/2000/svg" width="244.533" height="195.449" viewBox="0 0 244.533 195.449">
    <defs>
        <style>
            .cls-1,.cls-2{fill:#db353a}.cls-1,.cls-5{opacity:.1}.cls-3{fill:#46455b}.cls-4{fill:#3f3d56}.cls-6{fill:#323444}.cls-7{fill:#fbb3b2}.cls-8{fill:#5b5583}.cls-9{fill:#3c354c}.cls-10{fill:#cbceda}.cls-11{fill:#a8a8a8}.cls-12{opacity:.2}
        </style>
    </defs>
    <g id="undraw_teaching_f1cm">
        <rect id="Rectangle_775" width="22.175" height="6.704" class="cls-1" data-name="Rectangle 775" rx="3.352" transform="translate(49.989 33.52)"/>
        <rect id="Rectangle_776" width="22.175" height="6.704" class="cls-1" data-name="Rectangle 776" rx="3.352" transform="translate(73.195 40.224)"/>
        <rect id="Rectangle_777" width="22.175" height="6.704" class="cls-1" data-name="Rectangle 777" rx="3.352" transform="translate(96.402 46.928)"/>
        <rect id="Rectangle_778" width="22.175" height="6.704" class="cls-1" data-name="Rectangle 778" rx="3.352" transform="translate(49.989 23.464)"/>
        <rect id="Rectangle_779" width="22.175" height="6.704" class="cls-1" data-name="Rectangle 779" rx="3.352" transform="translate(73.195 30.168)"/>
        <rect id="Rectangle_780" width="22.175" height="6.704" class="cls-1" data-name="Rectangle 780" rx="3.352" transform="translate(96.402 36.872)"/>
        <rect id="Rectangle_781" width="22.175" height="6.704" class="cls-1" data-name="Rectangle 781" rx="3.352" transform="translate(122.186 33.52)"/>
        <rect id="Rectangle_782" width="22.175" height="6.704" class="cls-1" data-name="Rectangle 782" rx="3.352" transform="translate(145.393 40.224)"/>
        <rect id="Rectangle_783" width="22.175" height="6.704" class="cls-1" data-name="Rectangle 783" rx="3.352" transform="translate(168.599 46.928)"/>
        <rect id="Rectangle_784" width="22.175" height="6.704" class="cls-1" data-name="Rectangle 784" rx="3.352" transform="translate(122.186 23.464)"/>
        <rect id="Rectangle_785" width="22.175" height="6.704" class="cls-1" data-name="Rectangle 785" rx="3.352" transform="translate(145.393 30.168)"/>
        <rect id="Rectangle_786" width="22.175" height="6.704" class="cls-1" data-name="Rectangle 786" rx="3.352" transform="translate(168.599 36.872)"/>
        <rect id="Rectangle_787" width="22.175" height="6.704" class="cls-1" data-name="Rectangle 787" rx="3.352" transform="translate(49.989 10.056)"/>
        <rect id="Rectangle_788" width="22.175" height="6.704" class="cls-1" data-name="Rectangle 788" rx="3.352" transform="translate(73.195 16.76)"/>
        <rect id="Rectangle_789" width="22.175" height="6.704" class="cls-1" data-name="Rectangle 789" rx="3.352" transform="translate(96.402 23.464)"/>
        <rect id="Rectangle_790" width="22.175" height="6.704" class="cls-1" data-name="Rectangle 790" rx="3.352" transform="translate(49.989)"/>
        <rect id="Rectangle_791" width="22.175" height="6.704" class="cls-1" data-name="Rectangle 791" rx="3.352" transform="translate(73.195 6.704)"/>
        <rect id="Rectangle_792" width="22.175" height="6.704" class="cls-1" data-name="Rectangle 792" rx="3.352" transform="translate(96.402 13.408)"/>
        <rect id="Rectangle_793" width="22.175" height="6.704" class="cls-1" data-name="Rectangle 793" rx="3.352" transform="translate(122.186 10.056)"/>
        <rect id="Rectangle_794" width="22.175" height="6.704" class="cls-1" data-name="Rectangle 794" rx="3.352" transform="translate(145.393 16.76)"/>
        <rect id="Rectangle_795" width="22.175" height="6.704" class="cls-1" data-name="Rectangle 795" rx="3.352" transform="translate(168.599 23.464)"/>
        <rect id="Rectangle_796" width="22.175" height="6.704" class="cls-1" data-name="Rectangle 796" rx="3.352" transform="translate(122.186)"/>
        <rect id="Rectangle_797" width="22.175" height="6.704" class="cls-1" data-name="Rectangle 797" rx="3.352" transform="translate(145.393 6.704)"/>
        <rect id="Rectangle_798" width="22.175" height="6.704" class="cls-1" data-name="Rectangle 798" rx="3.352" transform="translate(168.599 13.408)"/>
        <rect id="Rectangle_799" width="22.175" height="6.704" class="cls-1" data-name="Rectangle 799" rx="3.352" transform="translate(49.989 152.904)"/>
        <rect id="Rectangle_800" width="22.175" height="6.704" class="cls-1" data-name="Rectangle 800" rx="3.352" transform="translate(73.195 159.608)"/>
        <rect id="Rectangle_801" width="22.175" height="6.704" class="cls-1" data-name="Rectangle 801" rx="3.352" transform="translate(96.402 166.312)"/>
        <rect id="Rectangle_802" width="22.175" height="6.704" class="cls-1" data-name="Rectangle 802" rx="3.352" transform="translate(49.989 142.848)"/>
        <rect id="Rectangle_803" width="22.175" height="6.704" class="cls-1" data-name="Rectangle 803" rx="3.352" transform="translate(73.195 149.552)"/>
        <rect id="Rectangle_804" width="22.175" height="6.704" class="cls-1" data-name="Rectangle 804" rx="3.352" transform="translate(96.402 156.256)"/>
        <rect id="Rectangle_805" width="22.175" height="6.704" class="cls-1" data-name="Rectangle 805" rx="3.352" transform="translate(122.186 152.904)"/>
        <rect id="Rectangle_806" width="22.175" height="6.704" class="cls-1" data-name="Rectangle 806" rx="3.352" transform="translate(145.393 159.608)"/>
        <rect id="Rectangle_807" width="22.175" height="6.704" class="cls-1" data-name="Rectangle 807" rx="3.352" transform="translate(168.599 166.312)"/>
        <rect id="Rectangle_808" width="22.175" height="6.704" class="cls-1" data-name="Rectangle 808" rx="3.352" transform="translate(122.186 142.848)"/>
        <rect id="Rectangle_809" width="22.175" height="6.704" class="cls-1" data-name="Rectangle 809" rx="3.352" transform="translate(145.393 149.552)"/>
        <rect id="Rectangle_810" width="22.175" height="6.704" class="cls-1" data-name="Rectangle 810" rx="3.352" transform="translate(168.599 156.256)"/>
        <rect id="Rectangle_811" width="22.175" height="6.704" class="cls-1" data-name="Rectangle 811" rx="3.352" transform="translate(49.989 129.44)"/>
        <rect id="Rectangle_812" width="22.175" height="6.704" class="cls-1" data-name="Rectangle 812" rx="3.352" transform="translate(73.195 136.144)"/>
        <rect id="Rectangle_813" width="22.175" height="6.704" class="cls-1" data-name="Rectangle 813" rx="3.352" transform="translate(96.402 142.848)"/>
        <rect id="Rectangle_814" width="22.175" height="6.704" class="cls-1" data-name="Rectangle 814" rx="3.352" transform="translate(49.989 119.384)"/>
        <rect id="Rectangle_815" width="22.175" height="6.704" class="cls-1" data-name="Rectangle 815" rx="3.352" transform="translate(73.195 126.088)"/>
        <rect id="Rectangle_816" width="22.175" height="6.704" class="cls-1" data-name="Rectangle 816" rx="3.352" transform="translate(96.402 132.792)"/>
        <rect id="Rectangle_817" width="22.175" height="6.704" class="cls-1" data-name="Rectangle 817" rx="3.352" transform="translate(122.186 129.44)"/>
        <rect id="Rectangle_818" width="22.175" height="6.704" class="cls-1" data-name="Rectangle 818" rx="3.352" transform="translate(145.393 136.144)"/>
        <rect id="Rectangle_819" width="22.175" height="6.704" class="cls-1" data-name="Rectangle 819" rx="3.352" transform="translate(168.599 142.848)"/>
        <rect id="Rectangle_820" width="22.175" height="6.704" class="cls-1" data-name="Rectangle 820" rx="3.352" transform="translate(122.186 119.384)"/>
        <rect id="Rectangle_821" width="22.175" height="6.704" class="cls-1" data-name="Rectangle 821" rx="3.352" transform="translate(145.393 126.088)"/>
        <rect id="Rectangle_822" width="22.175" height="6.704" class="cls-1" data-name="Rectangle 822" rx="3.352" transform="translate(168.599 132.792)"/>
        <ellipse id="Ellipse_70" cx="113.066" cy="9.283" class="cls-1" data-name="Ellipse 70" rx="113.066" ry="9.283" transform="translate(11.312 176.884)"/>
        <path id="Path_978" d="M147.647 249.121c10.662 4.621 16.788 14.182 16.788 14.182s-11.162 2.063-21.827-2.555-16.788-14.182-16.788-14.182 11.162-2.066 21.827 2.555z" class="cls-2" data-name="Path 978" transform="translate(-125.82 -200.955)"/>
        <path id="Path_979" d="M328.627 165.993a22.8 22.8 0 0 1 8.914-7.993 22.97 22.97 0 0 1-3.03 11.572 22.741 22.741 0 0 1-8.916 7.975 22.755 22.755 0 0 1 3.032-11.554z" class="cls-2" data-name="Path 979" transform="translate(-274.079 -135.567)"/>
        <path id="Path_980" d="M240.548 163.868a31.593 31.593 0 0 0 8.862 13.965 28.686 28.686 0 0 0-8.545-30.5 31.565 31.565 0 0 0-.317 16.535z" class="cls-3" data-name="Path 980" transform="translate(-210.243 -127.648)"/>
        <rect id="Rectangle_823" width="187.971" height="94.114" class="cls-4" data-name="Rectangle 823" rx="7.21" transform="translate(30.65 35.841)"/>
        <path id="Path_981" d="M118.87 482h187.971v3.814a1.859 1.859 0 0 1-1.859 1.859H120.729a1.859 1.859 0 0 1-1.859-1.859z" class="cls-5" data-name="Path 981" transform="translate(-88.22 -357.717)"/>
        <rect id="Rectangle_824" width="13.924" height="6.962" class="cls-2" data-name="Rectangle 824" rx="2.5" transform="translate(48.958 117.321)"/>
        <rect id="Rectangle_825" width="9.54" height="1.031" class="cls-2" data-name="Rectangle 825" rx=".516" transform="translate(66.749 123.251)"/>
        <path id="Path_982" d="M307.846 268.639c6.8 1.256 13.746 0 20.522-.851l20.594-2.578c.833-.106 2.045-.6 2.535.415a7.852 7.852 0 0 1 .111 2.46c.054 1.8.049 3.61 0 5.415-.093 3.45-.346 6.892-.668 10.327-.627 6.722-1.514 13.408-1.957 20.156-.227 3.435-.34 6.879-.24 10.314.023.82.057 1.64.106 2.457.054.915.464 2.274-.534 2.885a7.377 7.377 0 0 1-2.344.436 59.524 59.524 0 0 1-3.115.4c-6.934.694-13.957.4-20.917.364l-21.015-.108-5.124-.031c-.464 0-2.138.278-2.424-.273a5.458 5.458 0 0 1 .258-1.627q.119-.727.258-1.452c.6-3.391 1.3-6.761 2.016-10.128a179.524 179.524 0 0 0 3.723-21.85c.312-3.7.106-7.434.487-11.126.178-1.715.389-5.541 2.671-5.693 1.934-.129 3.924 0 5.863 0a.387.387 0 1 0 0-.774c-1.831 0-3.664-.049-5.495-.013a2.614 2.614 0 0 0-2.643 1.431c-1.483 2.872-1.331 6.7-1.377 9.839a119.389 119.389 0 0 1-2.764 22.193c-.755 3.695-1.57 7.377-2.321 11.075a216.156 216.156 0 0 0-1 5.314c-.144.846-.874 2.71-.232 3.486s2.617.358 3.5.364l6.152.036 11.789.067c7.617.044 15.259.258 22.874.034a53.493 53.493 0 0 0 11.018-1.127 1.764 1.764 0 0 0 1.6-1.867c.062-1.743-.222-3.54-.258-5.291-.258-14.981 3.262-29.753 2.9-44.739-.023-1.018.361-3.587-.753-4.2a2.813 2.813 0 0 0-1.676-.064c-1.006.116-2.009.258-3.014.376l-13.06 1.63c-4.175.516-8.347 1.073-12.529 1.547a44.38 44.38 0 0 1-13.31 0c-.487-.09-.7.655-.206.745z" class="cls-2" data-name="Path 982" transform="translate(-249.567 -214.393)"/>
        <path id="Path_983" d="M318.929 307.229l51.523-2.527c.5-.026.5-.8 0-.774l-51.523 2.527c-.496.023-.498.797 0 .774z" class="cls-2" data-name="Path 983" transform="translate(-268.86 -243.868)"/>
        <path id="Path_984" d="M380.548 284.826a1.289 1.289 0 0 0 .456 2.081 3.388 3.388 0 0 0 2.2-.121 46.271 46.271 0 0 1 3.123-.676 42.585 42.585 0 0 1 6.985-.65c1.067-.013 2.127.036 3.195.082a3.451 3.451 0 0 0 2.261-.387 1.46 1.46 0 0 0 .258-2.279c-1.031-.941-3.254-.395-4.445-.3a99.683 99.683 0 0 0-12.856 1.918c-.485.1-.281.851.206.745q4.2-.905 8.455-1.454 2.094-.258 4.2-.436c.66-.054 1.32-.1 1.98-.142.258-.015.531-.044.794-.036.817.018.913-.129.423.859-.436.874-.3.774-1.052.745-.32 0-.639-.036-.959-.052q-.982-.041-1.965-.044-2.091 0-4.172.2a44.153 44.153 0 0 0-5.68.924c-.317.075-.637.152-.954.232-.152.041-.307.077-.459.116q-.846.294-1.441-.774c.345-.358-.2-.908-.547-.547z" class="cls-2" data-name="Path 984" transform="translate(-314.606 -227.841)"/>
        <path id="Path_985" d="M382.4 332.966c-3.731-.144-7.761.864-10.219 3.868-1.924 2.349-3.019 6.379-.982 9.025 2.189 2.836 6.99 2.336 9.886 1.127 3.063-1.289 6.415-3.948 7.336-7.274 1.147-4.154-2.578-7.295-6.459-7.341a.387.387 0 0 0 0 .774 5.9 5.9 0 0 1 5.415 3.035c1.08 2.171.15 4.45-1.289 6.188a12.778 12.778 0 0 1-9.582 4.793c-2.2-.034-4.641-.789-5.325-3.115a7.2 7.2 0 0 1 .846-5.616c2.12-3.61 6.433-4.832 10.389-4.677.5.018.5-.755 0-.774z" class="cls-2" data-name="Path 985" transform="translate(-307.118 -264.976)"/>
        <path id="Path_986" d="M399.51 349.465a1.006 1.006 0 0 0-1.351 1.031c.077 1.006 1.186 1.289 2.019 1.23.719-.062 1.56-.327 1.307-1.227a1.155 1.155 0 0 0-.629-.727 1.457 1.457 0 0 0-.727-.09c-.1 0-.97.32-.6-.064l-.609-.08a.634.634 0 0 1 .186.516.389.389 0 0 0 .58.333.516.516 0 0 1 .7.6.389.389 0 0 0 .707.3c.258-.464.57-1.387.183-1.872a.825.825 0 0 0-1.065-.039 3.73 3.73 0 0 0-.531.456c-.312.276-.516.4-.4-.124a3.344 3.344 0 0 1 1.949-2.112l-.567-.436a8.153 8.153 0 0 1-1.56 3.056l.66.273a1.722 1.722 0 0 1 1.052-1.679h-.379l.2.33c-.075.487.67.7.745.2.1-.637-.3-1.465-1.049-1.153a2.428 2.428 0 0 0-1.333 2.3c0 .309.438.549.663.276a9.091 9.091 0 0 0 1.756-3.4.392.392 0 0 0-.57-.436 4.324 4.324 0 0 0-1.877 1.635c-.315.516-.709 1.32-.389 1.913a.82.82 0 0 0 1.122.317 3.017 3.017 0 0 0 .647-.516c.1-.085.2-.232.327-.258.113-.077.108-.034-.018.137a1.405 1.405 0 0 1-.224.753l.707.3a1.289 1.289 0 0 0-1.833-1.477l.583.335a1.405 1.405 0 0 0-.291-.91.392.392 0 0 0-.606-.08 1.012 1.012 0 0 0 .026 1.5c.369.281.549 0 .954-.064 1.374-.178.572.441.088.462a1.828 1.828 0 0 1-.647-.046q-.807-.273-.1-.7c.462.188.66-.56.206-.745z" class="cls-2" data-name="Path 986" transform="translate(-327.934 -275.746)"/>
        <path id="Path_987" d="M389.931 361.01c.317 1.031-.993 1.372-1.614 1.728a3.594 3.594 0 0 0-1.116.977 7.466 7.466 0 0 0-1.106 3.025c-.1.487.647.694.748.206a8.767 8.767 0 0 1 .652-2.225 3.929 3.929 0 0 1 2-1.707 1.874 1.874 0 0 0 1.186-2.21c-.144-.474-.892-.271-.745.206z" class="cls-2" data-name="Path 987" transform="translate(-318.977 -285.878)"/>
        <path id="Path_988" d="M394.131 360.37a.748.748 0 0 0-.645.774c0 .307.2.5.343.748a5.905 5.905 0 0 1 .748 1.627 3.511 3.511 0 0 1-.044 2.063c-.534.957-1.5.774-2.321.774-.774 0-1.372.258-1.346-.82a3.429 3.429 0 0 1 .774-1.7l-.706-.093a13.48 13.48 0 0 1 .235 2.388c0 .358.549.557.719.193a14.938 14.938 0 0 0 .982-2.718l-.761-.1.134 1.96a.389.389 0 0 0 .719.2.876.876 0 0 0 .193-.348c.026-.121-.211-.939-.307-.647l.758.1.054-1.862-.774.1a3.852 3.852 0 0 1 .144 1.624c-.049.431.676.529.774.1l.485-2.5-.707.09a1.71 1.71 0 0 1 .132 1.114c-.057.5.717.49.774 0a2.718 2.718 0 0 0-.237-1.5.389.389 0 0 0-.706.093l-.487 2.5.761.1a4.218 4.218 0 0 0-.173-1.828.387.387 0 0 0-.758.1l-.054 1.862a.389.389 0 0 0 .761.1l.041-.126a.392.392 0 0 0-.1-.376c-.8-.872-.964.516-1.243.9l.722.2-.134-1.96a.389.389 0 0 0-.761-.1 13.863 13.863 0 0 1-.9 2.535l.722.2a14.58 14.58 0 0 0-.258-2.594c-.067-.356-.534-.34-.706-.093-.516.743-1.408 2.364-.719 3.254.6.774 2.491.474 3.3.425 1.274-.072 1.735-.879 1.875-2.081a5.1 5.1 0 0 0-.1-1.722c-.07-.3-.774-2.233-.985-2.194.49-.09.281-.838-.206-.748z" class="cls-2" data-name="Path 988" transform="translate(-321.887 -285.757)"/>
        <path id="Path_989" d="M393.649 364.044l-2.112 2.787.668.389 1.547-2.238-.707-.3-.771 2.942a.389.389 0 0 0 .706.3 13.591 13.591 0 0 1 1.178-1.658l-.645-.376a4.21 4.21 0 0 1-.972 1.787l.647.376a3.455 3.455 0 0 1 .281-1.031c.2-.446-.431-.841-.668-.392a9.074 9.074 0 0 1-.745 1.171l.707.093.157-.735-.707-.093.113.645a.389.389 0 0 0 .647.17 7.7 7.7 0 0 0 1.547-2.334h-.665a3.474 3.474 0 0 1 .364 1.031c.093.464.709.291.758-.1a20.963 20.963 0 0 0 .17-2.6h-.774v1.622c0 .42.688.544.761.1a2.955 2.955 0 0 1 .379-1.109h-.678a1.72 1.72 0 0 1 .258.877.387.387 0 0 0 .774 0l.1-.516h-.745c.075.456.358 3.027-.65 2.725-.17-.041-.219-.031-.147.028l.229-.49.539-1.142-.722-.2a2.829 2.829 0 0 1-.224 1.743 1.336 1.336 0 0 1-1.457.3 2.579 2.579 0 0 1-.673-.707l-.529.516c.428.312 1.122 1.078 1.673 1.122.42.034.774-.315 1.049-.593a4.494 4.494 0 0 0 1.261-3.308.387.387 0 0 0-.774 0v.882a.387.387 0 1 0 .774 0v-2.163a.387.387 0 1 0-.774 0 9.286 9.286 0 0 1-.134 1.547l.761.1a17.807 17.807 0 0 1-.085-1.854.387.387 0 0 0-.758-.1c-.116.492-.258.977-.395 1.459l.707-.093-.054-.206c-.036-.492-.81-.5-.774 0a1.415 1.415 0 0 0 .16.6.391.391 0 0 0 .706-.093c.147-.485.278-.969.395-1.459l-.761-.1a17.807 17.807 0 0 0 .085 1.854c.039.4.678.567.758.1a10.655 10.655 0 0 0 .162-1.764h-.77v2.163h.774v-.882h-.774a3.718 3.718 0 0 1-.941 2.651 3.169 3.169 0 0 1-.325.32c-.183.175-.351.15-.5-.08a6.443 6.443 0 0 1-1.065-.774c-.32-.229-.758.224-.531.529.593.789 1.477 1.668 2.578 1.289 1.158-.41 1.315-1.978 1.227-3.009-.028-.343-.541-.575-.719-.193l-.774 1.632a1.442 1.442 0 0 0-.232.681c.085.58.789.485 1.222.451 1.679-.126 1.413-2.506 1.22-3.7-.064-.4-.642-.335-.745 0a2.278 2.278 0 0 0-.126.732h.774a3.066 3.066 0 0 0-.364-1.266.389.389 0 0 0-.668 0 3.759 3.759 0 0 0-.459 1.289l.774.1v-1.622a.387.387 0 0 0-.774 0 20.968 20.968 0 0 1-.17 2.6l.761-.1a4.426 4.426 0 0 0-.441-1.207.389.389 0 0 0-.668 0 7.055 7.055 0 0 1-1.426 2.176l.647.17-.113-.645c-.059-.343-.544-.353-.706-.093a1.7 1.7 0 0 0-.235 1.331c.064.366.529.327.706.093a9.047 9.047 0 0 0 .745-1.168l-.668-.392a4.4 4.4 0 0 0-.361 1.214c-.046.34.358.7.647.376a5.157 5.157 0 0 0 1.171-2.13c.1-.351-.389-.683-.647-.376a14.775 14.775 0 0 0-1.289 1.8l.707.3.786-2.932a.389.389 0 0 0-.706-.3l-1.547 2.241c-.289.415.374.774.668.389l2.1-2.785c.3-.4-.371-.774-.668-.392z" class="cls-2" data-name="Path 989" transform="translate(-322.904 -287.693)"/>
        <path id="Path_990" d="M526.09 324.875c3.094-1.893 5.554-4.716 8.287-7.078 2.965-2.56 6.078-4.945 9.283-7.2 6.224-4.383 12.761-8.305 19.292-12.217a.387.387 0 0 0-.389-.668c-6.531 3.912-13.07 7.826-19.295 12.217a122.49 122.49 0 0 0-8.553 6.57c-2.991 2.527-5.655 5.673-9.025 7.712-.425.258-.036.928.389.668z" class="cls-2" data-name="Path 990" transform="translate(-422.448 -239.218)"/>
        <path id="Path_991" d="M679.655 253.844c-3.352.34-6.962 1.194-9.025 4.126a9.372 9.372 0 0 0-.07 9.509c1.9 2.942 5.784 3.048 8.8 2.1s6.139-2.62 6.111-6.224a15.043 15.043 0 0 0-1.485-5.7c-.665-1.514-1.844-2.836-3.628-2.669-.492.046-.5.82 0 .774 2.39-.222 3.159 2.617 3.726 4.409.516 1.673.993 3.654.183 5.317s-2.762 2.511-4.43 3.12a9.266 9.266 0 0 1-5.673.516c-3.734-1.044-4.765-5.776-3.69-9.133 1.238-3.868 5.621-5 9.192-5.366.49-.049.5-.823 0-.774z" class="cls-2" data-name="Path 991" transform="translate(-529.165 -206.696)"/>
        <path id="Path_992" d="M699.655 369.844c-3.352.34-6.962 1.194-9.025 4.126a9.372 9.372 0 0 0-.07 9.509c1.9 2.942 5.784 3.048 8.8 2.1s6.139-2.62 6.111-6.224a15.042 15.042 0 0 0-1.485-5.7c-.665-1.514-1.844-2.836-3.628-2.669-.492.046-.5.82 0 .774 2.39-.222 3.159 2.617 3.726 4.409.516 1.673.993 3.654.183 5.317s-2.762 2.511-4.43 3.12a9.266 9.266 0 0 1-5.673.516c-3.734-1.044-4.765-5.776-3.69-9.133 1.238-3.868 5.621-5 9.192-5.366.49-.049.5-.823 0-.774z" class="cls-2" data-name="Path 992" transform="translate(-544.008 -292.786)"/>
        <path id="Path_993" d="M689.581 245.1l2.442 2.785a.389.389 0 0 0 .645-.173 14.922 14.922 0 0 0 .539-4.187 13.79 13.79 0 0 1 1.1-4.273 14.421 14.421 0 0 1 5.771-6.614c.425-.258.036-.928-.389-.668a15.141 15.141 0 0 0-5.835 6.41 14.817 14.817 0 0 0-1.289 4.092c-.258 1.673-.023 3.427-.642 5.033l.647-.173-2.429-2.78c-.33-.374-.874.175-.547.547z" class="cls-2" data-name="Path 993" transform="translate(-544.147 -190.42)"/>
        <path id="Path_994" d="M531.523 411.546q19.95-.609 39.91-.258a.387.387 0 0 0 0-.774q-19.955-.356-39.91.258c-.498.015-.5.789 0 .774z" class="cls-2" data-name="Path 994" transform="translate(-426.636 -322.874)"/>
        <path id="Path_995" d="M697.45 383.083a79.915 79.915 0 0 1 13.065 6.565c.423.258.812-.4.389-.668a80.767 80.767 0 0 0-13.238-6.642c-.462-.183-.663.565-.2.745z" class="cls-2" data-name="Path 995" transform="translate(-549.873 -302.039)"/>
        <path id="Path_996" d="M708.352 371.352a31.587 31.587 0 0 0-7.583 19.217c-.021.5.753.5.774 0A30.72 30.72 0 0 1 708.9 371.9c.322-.376-.222-.926-.547-.547z" class="cls-2" data-name="Path 996" transform="translate(-552.519 -293.812)"/>
        <path id="Path_997" d="M329.126 400.427l28.82-.376 3.313-.044c.6 0 1.191-.021 1.787-.023a1.421 1.421 0 0 1 1.387 1.547c-.039 1.8-1.173 1.74-2.658 1.8l-3.582.162-14.584.642c-2.612.116-5.227.258-7.839.348-2.357.072-6.838-.7-5.791-4.126.144-.477-.6-.681-.748-.206a3.8 3.8 0 0 0 1.867 4.283c2.086 1.253 4.835.828 7.137.725l17.9-.812 4.347-.193c1.114-.052 2.664.175 3.687-.343 1.2-.606 1.413-3.012.655-4.025a1.793 1.793 0 0 0-1.547-.585c-1.6-.062-3.236.044-4.842.064l-8.927.119-20.4.258a.387.387 0 0 0 0 .774z" class="cls-2" data-name="Path 997" transform="translate(-276.419 -314.564)"/>
        <g id="Michel" transform="translate(165.523 57.918)">
            <path id="Path_998" d="M771.384 755.779c-.65.407-1.392.637-2.063 1a2.822 2.822 0 0 0-1.514 1.64 1.031 1.031 0 0 0 .034.7 1.361 1.361 0 0 0 .722.572 10.956 10.956 0 0 0 8.666.1 11.415 11.415 0 0 1 1.5-.593 9.716 9.716 0 0 1 1.916-.2 14.737 14.737 0 0 0 2.014-.258 1.771 1.771 0 0 0 .913-.379 1.694 1.694 0 0 0 .41-.985 8.11 8.11 0 0 0-1.289-5.745 1.941 1.941 0 0 0-.562-.6 2.169 2.169 0 0 0-.895-.24c-1.289-.157-2.64-.446-3.943-.477a2.648 2.648 0 0 0-2.063 1.065c-1.368 1.368-2.165 3.351-3.846 4.4z" class="cls-6" data-name="Path 998" transform="translate(-767.762 -633.075)"/>
            <path id="Path_999" d="M855.063 755.234a5.894 5.894 0 0 0 .918 3.61 4.768 4.768 0 0 0 1.253 1.1 5.645 5.645 0 0 0 5.472.536 1.624 1.624 0 0 0 .681-.572 1.951 1.951 0 0 0-.023-1.5l-2.47-8.561c-1.6.245-3.942.418-5.361 1.227-1.033.579-.47 3.026-.47 4.16z" class="cls-6" data-name="Path 999" transform="translate(-832.44 -632.721)"/>
            <path id="Path_1000" d="M772.555 559.633c-.15.472-.691.691-.988 1.088a2.065 2.065 0 0 0-.186 1.681 4.444 4.444 0 0 0 1.132 2.23 2.674 2.674 0 0 0 2.321.789 1.934 1.934 0 0 0 1.576-1.735 3.285 3.285 0 0 0-.242-1.117l-1.759-5.085a.192.192 0 0 0-.317-.139c-.415.2-1.248.4-1.49.833s.128.988-.047 1.455z" class="cls-7" data-name="Path 1000" transform="translate(-770.382 -489.831)"/>
            <path id="Path_1001" d="M773 553.219a8.338 8.338 0 0 0 1.8-.724 1.863 1.863 0 0 1 1.859.07c.144.119.284.281.472.279a18.459 18.459 0 0 0-1.155-3.672.286.286 0 0 0-.1-.142.291.291 0 0 0-.219 0l-1.735.454c-.642.168-.717.116-.668.748.017.279.161 2.987-.254 2.987z" class="cls-6" data-name="Path 1001" transform="translate(-771.649 -483.672)"/>
            <path id="Path_1002" d="M769.275 422.646a2.444 2.444 0 0 0-.258 1.359 46.2 46.2 0 0 0 .361 6.836c.08.541.181 1.083.232 1.63a18.8 18.8 0 0 1 .036 2.287l-.258 9.927a5.74 5.74 0 0 1-.843 3.473 1.661 1.661 0 0 0-.3 1.1c.2 2.491.609 4.961 1.019 7.423a4.587 4.587 0 0 1 4.162.2 45.809 45.809 0 0 0 2.138-12.635 50.161 50.161 0 0 1 .294-6.322 40.222 40.222 0 0 0-.077-10.647 5.883 5.883 0 0 0-1.111-3.138 4.757 4.757 0 0 0-2.578-1.485 11.277 11.277 0 0 0-2.817-.008z" class="cls-8" data-name="Path 1002" transform="translate(-768.115 -389.818)"/>
            <path id="Path_1003" d="M769.275 422.646a2.444 2.444 0 0 0-.258 1.359 46.2 46.2 0 0 0 .361 6.836c.08.541.181 1.083.232 1.63a18.8 18.8 0 0 1 .036 2.287l-.258 9.927a5.74 5.74 0 0 1-.843 3.473 1.661 1.661 0 0 0-.3 1.1c.2 2.491.609 4.961 1.019 7.423a4.587 4.587 0 0 1 4.162.2 45.809 45.809 0 0 0 2.138-12.635 50.161 50.161 0 0 1 .294-6.322 40.222 40.222 0 0 0-.077-10.647 5.883 5.883 0 0 0-1.111-3.138 4.757 4.757 0 0 0-2.578-1.485 11.277 11.277 0 0 0-2.817-.008z" class="cls-5" data-name="Path 1003" transform="translate(-768.115 -389.818)"/>
            <path id="Path_1004" d="M782.053 524.594a45.538 45.538 0 0 0 2.713 26.362 7.147 7.147 0 0 1 .629 1.949 10.161 10.161 0 0 1-.773 3.7c-.774 2.78-.327 5.74.168 8.584q.309 1.779.637 3.556a5.434 5.434 0 0 1-.116 3.458c.462 1.924.735 3.829 1.2 5.753a1.093 1.093 0 0 1 .044.472 1.389 1.389 0 0 1-.472.632 2.821 2.821 0 0 0-.719 2.7c1.178-.846 2.821-.549 4.167 0a11.294 11.294 0 0 0 4.126 1.289 10.445 10.445 0 0 1 .214-5.1 7.726 7.726 0 0 0 .993-2.8 20.951 20.951 0 0 0-.694-2.563 6.489 6.489 0 0 1 .062-1.64 41 41 0 0 0-.438-9.494 5.673 5.673 0 0 0-.433-1.8 2.666 2.666 0 0 1-.451-1.142c0-.482.389-.874.534-1.333.258-.846-.217-2 .5-2.519 1.882-1.382 1.16-4.683 1.119-7.016q-.049-3.019-.258-6.034a25.7 25.7 0 0 1 1.423 10.4 7.446 7.446 0 0 0 .217 3.437 14.35 14.35 0 0 1 1.217 2.364 9.9 9.9 0 0 1 .059 1.637 1.687 1.687 0 0 0 .683 1.418c.036 2.486.258 5.144.3 7.63a18.819 18.819 0 0 0 .309 3.79 4.832 4.832 0 0 1 .191 1.222 5.108 5.108 0 0 1-.407 1.5 8.62 8.62 0 0 0 1.289 7.955 3.845 3.845 0 0 1 3.115-1.743 11.3 11.3 0 0 1 3.659.536 7.165 7.165 0 0 1 .856-4.358 3.566 3.566 0 0 0 .451-.969 4.294 4.294 0 0 0-.361-1.955 9.825 9.825 0 0 1-.119-3.221 50.963 50.963 0 0 0-.477-10.809 9.158 9.158 0 0 0-.492-2.063c-.093-.237-.206-.464-.284-.7a5.551 5.551 0 0 1-.206-1.32l-.3-4.126c-.209-2.89.74-5.745 1.4-8.566.3-1.263.619-2.524.817-3.808.271-1.748.315-3.535.712-5.26a33.914 33.914 0 0 0 1.132-4.641c.206-2.457-.815-4.832-1.8-7.086-.413-.928-1.973-.835-2.976-1-7.114-1.168-14.607-1.176-21.316 1.457a5.3 5.3 0 0 0-1.844 1.265z" class="cls-9" data-name="Path 1004" transform="translate(-777.743 -462.977)"/>
            <path id="Path_1005" d="M801.349 350.977l.789 3.068a8.2 8.2 0 0 1 .353 2.168 1.6 1.6 0 0 1-.173.774 1.842 1.842 0 0 1-.49.5c-.539.41-.913 1.367-1.529 1.65.317.552.755.193 1.328.469a14.415 14.415 0 0 0 3.025 1.436 6.747 6.747 0 0 0 3.138-.258 10.836 10.836 0 0 0 4.064-1.89 3.9 3.9 0 0 0 1.828-3.3c-1.289.152-2.437-1.15-3.006-2.321a6.3 6.3 0 0 1-.433-1.39l-.691-3.04a14.9 14.9 0 0 0-2.086.985 7.574 7.574 0 0 1-2.37.343 25.528 25.528 0 0 0-4.218.547c-.191.039-.431.16-.384.346" class="cls-7" data-name="Path 1005" transform="translate(-791.91 -335.125)"/>
            <path id="Path_1006" d="M801.349 350.977l.789 3.068a8.2 8.2 0 0 1 .353 2.168 1.6 1.6 0 0 1-.173.774 1.842 1.842 0 0 1-.49.5c-.539.41-.913 1.367-1.529 1.65.317.552.755.193 1.328.469a14.415 14.415 0 0 0 3.025 1.436 6.747 6.747 0 0 0 3.138-.258 10.836 10.836 0 0 0 4.064-1.89 3.9 3.9 0 0 0 1.828-3.3c-1.289.152-2.437-1.15-3.006-2.321a6.3 6.3 0 0 1-.433-1.39l-.691-3.04a14.9 14.9 0 0 0-2.086.985 7.574 7.574 0 0 1-2.37.343 25.528 25.528 0 0 0-4.218.547c-.191.039-.431.16-.384.346" class="cls-5" data-name="Path 1006" transform="translate(-791.91 -335.125)"/>
            <circle id="Ellipse_71" cx="6.828" cy="6.828" r="6.828" class="cls-7" data-name="Ellipse 71" transform="translate(6 3.888)"/>
            <path id="Path_1007" d="M801.979 366.878a6.188 6.188 0 0 1 1.547-2.063c.962-.843 2.277-1.526 2.5-2.785l2.083 2.426a1.121 1.121 0 0 1 .258.4 1 1 0 0 1-.2.8 8.35 8.35 0 0 1-2.1 2.006 63.68 63.68 0 0 0-5.051 4.456.516.516 0 0 1-.271.165.487.487 0 0 1-.281-.08 11.729 11.729 0 0 1-3.6-2.929c-.075-.09-.168-.193-.289-.186a.372.372 0 0 0-.193.1 3.5 3.5 0 0 1-2.341 1.158 5.546 5.546 0 0 0 2.047-3.61 6.824 6.824 0 0 1 .294-1.41 1.472 1.472 0 0 1 1.006-.954 2.262 2.262 0 0 0 .578 2.769 5.693 5.693 0 0 0 2.558 1.24c.885.165 1.143-.828 1.455-1.503z" class="cls-6" data-name="Path 1007" transform="translate(-787.272 -344.907)"/>
            <path id="Path_1008" d="M781.111 522.979c.972.24 1.893.647 2.836.949a13.555 13.555 0 0 0 5.325.56 2.875 2.875 0 0 0 1.547-.492c.121-.1.232-.214.361-.3a2.523 2.523 0 0 1 .694-.286 19.637 19.637 0 0 0 6.266-3.9c.062-.052.132-.116.126-.2a.257.257 0 0 0-.077-.147L797.178 518a41.793 41.793 0 0 1-8.055.214 11.7 11.7 0 0 0-1.655.044c-.531.062-1.055.2-1.578.309-1.988.433-4.02.6-6.034.882a.931.931 0 0 0-.4.124.9.9 0 0 0-.214.237l-.706.993a3.123 3.123 0 0 0-.593 1.137c-.165.773.18 1.031.838.931a6.122 6.122 0 0 1 2.33.108z" class="cls-6" data-name="Path 1008" transform="translate(-775.287 -460.66)"/>
            <path id="Path_1009" d="M783.75 377.984a12.559 12.559 0 0 0-2.658-2.076 3.766 3.766 0 0 0-1.289-.516 1.609 1.609 0 0 0-1.32.325c-.229.2-.374.487-.6.7a2.963 2.963 0 0 1-.944.534 16.738 16.738 0 0 0-3.316 1.89 7.607 7.607 0 0 0-1.5 1.387c-1.168 1.5-1.343 3.53-1.312 5.428.023 1.32 1.289 2.3 2.161 3.288a24.22 24.22 0 0 1 2.212 3.094 4.213 4.213 0 0 1 .9 2.431 13.792 13.792 0 0 0-.4 2.127c.023.258.106.5.129.745a8.385 8.385 0 0 1-.209 1.547 19.671 19.671 0 0 0 .18 2.189 6.961 6.961 0 0 1-.191 1.493 27.891 27.891 0 0 0-.99 7.132l-1.428.258a1.207 1.207 0 0 1-.276 1.926c2.23.745 4.641.369 7.006.366 1.957 0 3.906.258 5.861.222a10.129 10.129 0 0 0 5.582-1.5c.438-.3.841-.65 1.3-.91a6.425 6.425 0 0 1 1.973-.645 19.573 19.573 0 0 1 3.868-.346 2.978 2.978 0 0 0 1.831-.356 2.616 2.616 0 0 0 .774-1.882c.075-.732.121-1.467.134-2.2a9.494 9.494 0 0 0-.09-1.712 11.2 11.2 0 0 0-.3-1.227l-.972-3.424c-.4-1.413.157-2.963.276-4.427a1.11 1.11 0 0 0-.232-.97c-.1-.08-.227-.134-.258-.258a.441.441 0 0 1 .062-.346 19.09 19.09 0 0 1 2-2.872 58.7 58.7 0 0 0 3.3-5.072 16.319 16.319 0 0 0-4.368-9.767 4.726 4.726 0 0 0-1.828-1.349 5.414 5.414 0 0 0-1.454-.235 13.393 13.393 0 0 1-5.887-1.274 1.119 1.119 0 0 0-.42-.178c-.389-.044-.673.34-.926.645a11.1 11.1 0 0 1-2.447 1.787 17.349 17.349 0 0 0-3.934 4.028z" class="cls-8" data-name="Path 1009" transform="translate(-770.022 -351.954)"/>
            <path id="Path_1010" d="M875.166 416.819a19.36 19.36 0 0 1 .5 3.963 15.417 15.417 0 0 0 .42 2.375 3.791 3.791 0 0 0 .49 1.209 5.319 5.319 0 0 1 .712 1 2.416 2.416 0 0 1 .106.8l.031 1.779a6.4 6.4 0 0 1-.42 2.769l-1.111 3.38a20.719 20.719 0 0 1-2.3 5.283 1.524 1.524 0 0 1-.663.621 3.218 3.218 0 0 1-.668.1 1.717 1.717 0 0 0-1.416 1.668 3.917 3.917 0 0 0-.951-.972l-2.261-1.8a9.665 9.665 0 0 0-2.519-1.632 6.83 6.83 0 0 0 4.75-5.74 2.579 2.579 0 0 1 .258-1.129c.188-.3.536-.536.562-.895.031-.451-.48-.792-.48-1.243 0-.3.222-.547.32-.828a2.077 2.077 0 0 0 0-1.06l-.312-1.733a1.325 1.325 0 0 0-.155-.5 3.2 3.2 0 0 0-.387-.407c-.536-.6-.3-1.547 0-2.287a21.861 21.861 0 0 1 2.635-4.623 15.81 15.81 0 0 0 1.049-1.5c.273-.474.335-1.132.624-1.547.366.985.869 1.946 1.186 2.949z" class="cls-8" data-name="Path 1010" transform="translate(-840.009 -383.387)"/>
            <path id="Path_1011" d="M860.592 504.7a1.242 1.242 0 0 0-.294.309 2.607 2.607 0 0 1-1.168.833c.258.186.493.369.735.557a32.2 32.2 0 0 1 4.9 4.685c.162-.58 1.135-.539 1.372-1.093a1.07 1.07 0 0 0 .052-.5 15.106 15.106 0 0 0-.371-2.578 2.918 2.918 0 0 0-.516-1.207 3.094 3.094 0 0 0-1.459-.825c-.814-.281-2.426-.681-3.251-.181z" class="cls-6" data-name="Path 1011" transform="translate(-835.571 -450.614)"/>
            <path id="Path_1012" d="M840.3 510.866a13.58 13.58 0 0 1-2.321 1.681 8.738 8.738 0 0 0-1.849.815 1.837 1.837 0 0 0 1.753.949 4.167 4.167 0 0 0 1.962-.719c.461-.284 1-.614 1.506-.415.077.392-.258.761-.258 1.158a1.167 1.167 0 0 0 .655.895c1.547 1 3.538.915 5.381.8a.485.485 0 0 0 .3-.088.467.467 0 0 0 .111-.34c.023-.407.034-.812.036-1.22a1.748 1.748 0 0 0-.748-1.722 21.046 21.046 0 0 0-3.223-2.282 2.887 2.887 0 0 0-3.305.488z" class="cls-7" data-name="Path 1012" transform="translate(-818.501 -454.754)"/>
            <path id="Path_1013" d="M821.421 326.059a1.791 1.791 0 1 0 2.282 1.506 1.945 1.945 0 0 0-2.282-1.506zm.389 3.239a1.516 1.516 0 1 1 1.576-1.694 1.65 1.65 0 0 1-1.576 1.696z" class="cls-9" data-name="Path 1013" transform="translate(-806.195 -318.198)"/>
            <path id="Path_1014" d="M799.781 328.659a1.791 1.791 0 1 0 2.282 1.5 1.944 1.944 0 0 0-2.282-1.5zm.389 3.236a1.515 1.515 0 1 1 1.576-1.694 1.647 1.647 0 0 1-1.576 1.694z" class="cls-9" data-name="Path 1014" transform="translate(-790.135 -320.127)"/>
            <path id="Path_1015" d="M662.983 259.64l2.488.531-.245.655-2.346-.688z" class="cls-9" data-name="Path 1015" transform="translate(-657.481 -250.61)"/>
            <path id="Path_1016" d="M710.465 253.18l-2.295 1.106.395.578 2.117-1.225z" class="cls-9" data-name="Path 1016" transform="translate(-691.093 -245.816)"/>
            <path id="Path_1017" d="M687.31 260.459l1.746-.209-.09.433-1.5.1z" class="cls-9" data-name="Path 1017" transform="translate(-675.612 -251.063)"/>
            <path id="Path_1018" d="M787.8 304.432a2.77 2.77 0 0 0 .258-1.127 2.407 2.407 0 0 1 .119-.686 1.918 1.918 0 0 1 .562-.719 5.2 5.2 0 0 1 3.094-1.08 7.153 7.153 0 0 1 3.579.774 2.785 2.785 0 0 1 .89.66c.361.441.438 1.011.8 1.447a2.107 2.107 0 0 0 1.975.619 10.272 10.272 0 0 0 .026-1.382 6.689 6.689 0 0 1 .41-1.145 2.814 2.814 0 0 0-1.385-3.249 5.345 5.345 0 0 1-1.233-.774 5.83 5.83 0 0 1-.606-1.057 2.816 2.816 0 0 0-3.195-.926c-.356.134-.67.338-1.031.482a8.5 8.5 0 0 1-2.171.418 6.65 6.65 0 0 0-2.1.552 2.356 2.356 0 0 0-1.318 1.423c-.07.278-.054.567-.124.843-.356 1.4-2.653 2.081-2.782 3.509a2.048 2.048 0 0 0 .585 1.431c.242.286.823 1.052 1.233 1.163s.722-.279 1.114-.413c.616-.195.99-.235 1.3-.763z" class="cls-10" data-name="Path 1018" transform="translate(-779.487 -295.621)"/>
        </g>
        <path id="Path_1019" d="M912.81 682c0 12.954 8.127 23.438 18.171 23.438" class="cls-3" data-name="Path 1019" transform="translate(-709.886 -524.455)"/>
        <path id="Path_1020" d="M983.28 704.691c0-13.1 9.071-23.7 20.28-23.7" class="cls-2" data-name="Path 1020" transform="translate(-762.186 -523.705)"/>
        <path id="Path_1021" d="M938.35 686.56c0 12.307 5.183 22.265 11.585 22.265" class="cls-2" data-name="Path 1021" transform="translate(-728.841 -527.839)"/>
        <path id="Path_1022" d="M983.28 685.737c0-16.74 10.484-30.287 23.438-30.287" class="cls-3" data-name="Path 1022" transform="translate(-762.186 -504.751)"/>
        <ellipse id="Ellipse_72" cx="4.517" cy=".763" class="cls-1" data-name="Ellipse 72" rx="4.517" ry=".763" transform="translate(215.79 183.936)"/>
        <path id="Path_1023" d="M968.46 769.543s2.578-.08 3.352-.632 3.963-1.214 4.156-.327 3.868 4.412.962 4.435-6.761-.454-7.534-.926-.936-2.55-.936-2.55z" class="cls-11" data-name="Path 1023" transform="translate(-751.187 -588.392)"/>
        <path id="Path_1024" d="M976.984 776.709c-2.909.023-6.758-.454-7.534-.926-.59-.358-.825-1.65-.905-2.243h-.085s.162 2.078.939 2.55 4.626.949 7.534.926c.841 0 1.129-.307 1.114-.748-.116.268-.423.432-1.063.441z" class="cls-12" data-name="Path 1024" transform="translate(-751.187 -592.391)"/>
        <path id="Path_1025" d="M148.31 711.36c0 10.314 6.464 18.648 14.455 18.648" class="cls-3" data-name="Path 1025" transform="translate(-142.511 -546.245)"/>
        <path id="Path_1026" d="M204.37 729.406c0-10.422 7.22-18.856 16.134-18.856" class="cls-2" data-name="Path 1026" transform="translate(-184.116 -545.643)"/>
        <path id="Path_1027" d="M168.62 715c0 9.8 4.126 17.714 9.218 17.714" class="cls-2" data-name="Path 1027" transform="translate(-157.584 -548.946)"/>
        <path id="Path_1028" d="M204.37 714.326c0-13.318 8.341-24.1 18.648-24.1" class="cls-3" data-name="Path 1028" transform="translate(-184.116 -530.563)"/>
        <ellipse id="Ellipse_73" cx="3.594" cy=".609" class="cls-1" data-name="Ellipse 73" rx="3.594" ry=".609" transform="translate(16.033 186.109)"/>
        <path id="Path_1029" d="M192.58 780.957a7.332 7.332 0 0 0 2.666-.516c.616-.451 3.156-.967 3.308-.258s3.081 3.509.774 3.527-5.379-.361-5.995-.735-.753-2.018-.753-2.018z" class="cls-11" data-name="Path 1029" transform="translate(-175.366 -597.062)"/>
        <path id="Path_1030" d="M199.361 786.742c-2.321.018-5.379-.361-5.995-.737-.469-.284-.655-1.312-.719-1.784h-.067s.129 1.653.745 2.029 3.682.753 5.995.735c.668 0 .9-.242.887-.6-.093.21-.348.341-.846.357z" class="cls-12" data-name="Path 1030" transform="translate(-175.366 -600.318)"/>
    </g>
</svg>
