<svg xmlns="http://www.w3.org/2000/svg" width="59" height="59" viewBox="0 0 59 59">
    <defs>
        <style>
            .cls-1{fill:#539d50}
        </style>
    </defs>
    <g id="Symbol_50_2" data-name="Symbol 50 – 2" transform="translate(-451.458 12.119)">
        <g id="Group_207" data-name="Group 207" transform="translate(451.458 -12.119)">
            <g id="Group_206" data-name="Group 206">
                <g id="Group_191" data-name="Group 191" transform="translate(23.679)">
                    <g id="Group_190" data-name="Group 190">
                        <path id="Path_1340" d="M61.837 6.54a.667.667 0 0 1-.24.48 67.749 67.749 0 0 1-1.922 1.586.389.389 0 0 0-.144.48c.192.769.384 1.537.577 2.354a.616.616 0 0 1-.24.721.732.732 0 0 1-.769 0 51.678 51.678 0 0 1-2.114-1.345.292.292 0 0 0-.384 0c-.673.432-1.345.865-2.018 1.249a.729.729 0 0 1-.625.144.617.617 0 0 1-.432-.769c.192-.865.432-1.682.625-2.546.048-.144 0-.192-.1-.288-.625-.48-1.2-1.009-1.778-1.537a.751.751 0 0 1-.384-.721.555.555 0 0 1 .577-.577c.865-.048 1.778-.1 2.643-.192.144 0 .192-.1.24-.192a73.18 73.18 0 0 1 .913-2.21c.048-.048.048-.144.1-.192a.693.693 0 0 1 .625-.384.565.565 0 0 1 .577.432c.336.769.625 1.586.961 2.354-.1.192 0 .288.192.288l2.306.144a.818.818 0 0 1 .336.048.723.723 0 0 1 .478.673z" class="cls-1" data-name="Path 1340" transform="translate(-51.885 -2.6)"/>
                    </g>
                </g>
                <g id="Group_193" data-name="Group 193" transform="translate(40.789 6.996)">
                    <g id="Group_192" data-name="Group 192">
                        <path id="Path_1341" d="M97.155 24.531a.542.542 0 0 1-.529.144c-.817-.1-1.634-.144-2.45-.24-.24-.048-.336.048-.432.24a47.301 47.301 0 0 1-1.249 2.066.645.645 0 0 1-.673.336.617.617 0 0 1-.528-.577c-.192-.817-.384-1.634-.529-2.45-.048-.192-.1-.24-.288-.288-.769-.192-1.537-.384-2.354-.528a.693.693 0 0 1-.529-.336.6.6 0 0 1 .24-.865c.769-.432 1.489-.913 2.258-1.345a.264.264 0 0 0 .144-.24c-.048-.769-.144-1.586-.192-2.354a.747.747 0 0 1 .192-.769.6.6 0 0 1 .817 0c.673.577 1.345 1.153 1.97 1.73.1.1.192.048.288.048.721-.288 1.441-.625 2.21-.913.048-.048.144-.048.192-.1a.688.688 0 0 1 .721.144.653.653 0 0 1 .144.721c-.336.769-.673 1.537-1.009 2.354a.376.376 0 0 0 .048.384c.529.577 1.009 1.153 1.537 1.778a1 1 0 0 1 .192.288.7.7 0 0 1-.191.772z" class="cls-1" data-name="Path 1341" transform="translate(-87.496 -17.161)"/>
                    </g>
                </g>
                <g id="Group_195" data-name="Group 195" transform="translate(49.331 23.679)">
                    <g id="Group_194" data-name="Group 194">
                        <path id="Path_1342" d="M111 61.837a.667.667 0 0 1-.48-.24c-.528-.625-1.057-1.249-1.586-1.922a.389.389 0 0 0-.48-.144c-.769.192-1.537.384-2.354.577a.616.616 0 0 1-.721-.24.732.732 0 0 1 0-.769c.432-.721.865-1.393 1.345-2.114a.292.292 0 0 0 0-.384c-.432-.673-.865-1.345-1.249-2.018a.729.729 0 0 1-.144-.625.617.617 0 0 1 .769-.432c.865.192 1.682.432 2.546.625.144.048.192 0 .288-.1.48-.625 1.009-1.2 1.537-1.778a.751.751 0 0 1 .721-.384.555.555 0 0 1 .577.577c.048.865.1 1.778.192 2.643 0 .144.1.192.192.24a73.18 73.18 0 0 1 2.21.913c.048.048.144.048.192.1a.692.692 0 0 1 .384.625.565.565 0 0 1-.432.577c-.769.336-1.586.625-2.354.961a.32.32 0 0 0-.24.336l-.144 2.306a.817.817 0 0 1-.048.336 1.132 1.132 0 0 1-.721.334z" class="cls-1" data-name="Path 1342" transform="translate(-105.275 -51.885)"/>
                    </g>
                </g>
                <g id="Group_197" data-name="Group 197" transform="translate(42.079 40.789)">
                    <g id="Group_196" data-name="Group 196">
                        <path id="Path_1343" d="M92.736 97.155a.542.542 0 0 1-.144-.529c.1-.817.144-1.634.24-2.45.048-.24-.048-.336-.24-.432a47.301 47.301 0 0 1-2.066-1.249.645.645 0 0 1-.336-.673.617.617 0 0 1 .577-.528c.817-.192 1.634-.384 2.45-.529.192-.048.24-.1.288-.288.192-.769.384-1.537.528-2.354a.693.693 0 0 1 .336-.529.6.6 0 0 1 .865.24c.432.769.913 1.489 1.345 2.258a.264.264 0 0 0 .24.144c.769-.048 1.586-.144 2.354-.192a.747.747 0 0 1 .769.192.6.6 0 0 1 0 .817c-.577.673-1.153 1.345-1.73 1.97-.1.1-.048.192-.048.288.288.721.625 1.441.913 2.21.048.048.048.144.1.192a.688.688 0 0 1-.144.721.653.653 0 0 1-.721.144c-.769-.336-1.537-.673-2.354-1.009a.376.376 0 0 0-.384.048c-.577.529-1.153 1.009-1.778 1.537a1 1 0 0 1-.288.192.7.7 0 0 1-.772-.191z" class="cls-1" data-name="Path 1343" transform="translate(-90.181 -87.496)"/>
                    </g>
                </g>
                <g id="Group_199" data-name="Group 199" transform="translate(25.368 49.331)">
                    <g id="Group_198" data-name="Group 198">
                        <path id="Path_1344" d="M55.4 111a.667.667 0 0 1 .24-.48c.625-.528 1.249-1.057 1.922-1.586a.389.389 0 0 0 .144-.48c-.192-.769-.384-1.537-.577-2.354a.616.616 0 0 1 .24-.721.732.732 0 0 1 .769 0c.721.432 1.393.865 2.114 1.345a.292.292 0 0 0 .384 0c.673-.432 1.345-.865 2.018-1.249a.729.729 0 0 1 .625-.144.617.617 0 0 1 .432.769c-.192.865-.432 1.682-.625 2.546-.048.144 0 .192.1.288.625.48 1.2 1.009 1.778 1.537a.751.751 0 0 1 .384.721.555.555 0 0 1-.577.577c-.865.048-1.778.1-2.643.192-.144 0-.192.1-.24.192a73.18 73.18 0 0 1-.913 2.21c-.048.048-.048.144-.1.192a.693.693 0 0 1-.625.384.565.565 0 0 1-.577-.432c-.336-.769-.625-1.586-.961-2.354a.32.32 0 0 0-.336-.24l-2.306-.144a.817.817 0 0 1-.336-.048A1.132 1.132 0 0 1 55.4 111z" class="cls-1" data-name="Path 1344" transform="translate(-55.4 -105.275)"/>
                    </g>
                </g>
                <g id="Group_201" data-name="Group 201" transform="translate(8.314 42.079)">
                    <g id="Group_200" data-name="Group 200">
                        <path id="Path_1345" d="M20.142 92.736a.542.542 0 0 1 .528-.144c.817.1 1.634.144 2.45.24.24.048.336-.048.432-.24.384-.673.817-1.393 1.249-2.066a.645.645 0 0 1 .673-.336.617.617 0 0 1 .529.577 45.8 45.8 0 0 1 .529 2.45c.048.192.1.24.288.288.769.192 1.537.384 2.354.528a.693.693 0 0 1 .529.336.6.6 0 0 1-.24.865c-.769.432-1.489.913-2.258 1.345a.264.264 0 0 0-.144.24c.048.769.144 1.586.192 2.354a.747.747 0 0 1-.192.769.6.6 0 0 1-.817 0c-.673-.577-1.345-1.153-1.97-1.73-.1-.1-.192-.048-.288-.048-.721.288-1.441.625-2.21.913-.048.048-.144.048-.192.1a.688.688 0 0 1-.721-.144.653.653 0 0 1-.144-.721c.336-.769.673-1.537 1.009-2.354a.376.376 0 0 0-.048-.384c-.529-.577-1.009-1.153-1.537-1.778a1 1 0 0 1-.192-.288.7.7 0 0 1 .191-.772z" class="cls-1" data-name="Path 1345" transform="translate(-19.903 -90.181)"/>
                    </g>
                </g>
                <g id="Group_203" data-name="Group 203" transform="translate(0 25.368)">
                    <g id="Group_202" data-name="Group 202">
                        <path id="Path_1346" d="M6.54 55.4a.667.667 0 0 1 .48.24 67.749 67.749 0 0 1 1.586 1.922.389.389 0 0 0 .48.144c.769-.192 1.537-.384 2.354-.577a.616.616 0 0 1 .721.24.732.732 0 0 1 0 .769 51.678 51.678 0 0 1-1.345 2.114.292.292 0 0 0 0 .384c.432.673.865 1.345 1.249 2.018a.729.729 0 0 1 .144.625.617.617 0 0 1-.769.432c-.865-.192-1.682-.432-2.546-.625-.144-.048-.192 0-.288.1-.48.625-1.009 1.2-1.537 1.778a.751.751 0 0 1-.721.384.555.555 0 0 1-.577-.577c-.048-.865-.1-1.778-.192-2.643 0-.144-.1-.192-.192-.24a73.18 73.18 0 0 1-2.21-.913c-.048-.048-.144-.048-.192-.1a.693.693 0 0 1-.384-.625.565.565 0 0 1 .432-.577c.769-.336 1.586-.625 2.354-.961.192.1.288 0 .288-.192l.144-2.306a.818.818 0 0 1 .048-.336.723.723 0 0 1 .673-.478z" class="cls-1" data-name="Path 1346" transform="translate(-2.6 -55.4)"/>
                    </g>
                </g>
                <g id="Group_205" data-name="Group 205" transform="translate(6.996 8.314)">
                    <g id="Group_204" data-name="Group 204">
                        <path id="Path_1347" d="M24.531 20.142a.542.542 0 0 1 .144.528c-.1.817-.144 1.634-.24 2.45-.048.24.048.336.24.432.673.384 1.393.817 2.066 1.249a.645.645 0 0 1 .336.673.617.617 0 0 1-.577.526c-.817.192-1.634.384-2.45.529-.192.048-.24.1-.288.288-.192.769-.384 1.537-.528 2.354a.693.693 0 0 1-.336.529.6.6 0 0 1-.865-.24c-.432-.769-.913-1.489-1.345-2.258a.264.264 0 0 0-.24-.144c-.769.048-1.586.144-2.354.192a.747.747 0 0 1-.769-.192.6.6 0 0 1 0-.817c.577-.673 1.153-1.345 1.73-1.97.1-.1.048-.192.048-.288-.288-.721-.625-1.441-.913-2.21-.048-.048-.048-.144-.1-.192a.688.688 0 0 1 .144-.721.653.653 0 0 1 .721-.144c.769.336 1.537.673 2.354 1.009a.376.376 0 0 0 .384-.048c.577-.529 1.153-1.009 1.778-1.537a1 1 0 0 1 .288-.192.7.7 0 0 1 .772.194z" class="cls-1" data-name="Path 1347" transform="translate(-17.161 -19.903)"/>
                    </g>
                </g>
            </g>
        </g>
        <g id="Group_211" data-name="Group 211" transform="translate(467.121 2.102)">
            <g id="Group_210" data-name="Group 210">
                <g id="Group_208" data-name="Group 208" transform="translate(8.072)">
                    <path id="Path_1348" d="M70.594 41.569l-.1-.1c-.048-.048-.048-.048-.1-.048l-.048-.048a.047.047 0 0 1-.048-.048l-.144-.048c-.048-.048-.144-.048-.192-.1a8.87 8.87 0 0 0-3.555-.1H65.4a4.133 4.133 0 0 0-.769.048h-.48c-.144 0-.288.048-.384.048h-.1a.047.047 0 0 1-.048-.048l.336-1.153c.192-.721.432-1.441.625-2.162a5.969 5.969 0 0 0 .336-2.643 3.39 3.39 0 0 0-1.586-2.5 3.239 3.239 0 0 0-1.634-.48h-.144a.872.872 0 0 0-.913.865c-.048.673-.144 1.3-.24 1.922a6.852 6.852 0 0 1-.865 2.643 5.172 5.172 0 0 1-.865 1.153q-.649.721-1.441 1.586l-1.2 1.345c-.288.336-.577.625-.865.913a1.048 1.048 0 0 1-.24.192 2.015 2.015 0 0 1-.673.432 4.006 4.006 0 0 1-.577.192c-1.009.288-1.586.577-1.634 1.153 0 .336-.048.625-.048.913v10.33h1.682c.528.1 1.105.192 1.826.288l.336.048c1.393.24 2.739.432 4.036.625 3.219.384 7.063 1.3 9.417-1.586.961-1.2 1.057-2.883 1.249-4.324.336-2.354.769-4.757 1.105-7.111a2.656 2.656 0 0 0-1.048-2.197z" class="cls-1" data-name="Path 1348" transform="translate(-52 -32.2)"/>
                </g>
                <g id="Group_209" data-name="Group 209" transform="translate(0 10.09)">
                    <path id="Path_1349" d="M40.485 53.2h-4.276a.985.985 0 0 0-1.009 1.009v12.636a.985.985 0 0 0 1.009 1.009h4.276a.985.985 0 0 0 1.009-1.009V54.209a.985.985 0 0 0-1.009-1.009z" class="cls-1" data-name="Path 1349" transform="translate(-35.2 -53.2)"/>
                </g>
            </g>
        </g>
    </g>
</svg>
