<svg xmlns="http://www.w3.org/2000/svg" width="249.85" height="172.229" viewBox="0 0 249.85 172.229">
    <defs>
        <style>
            .cls-1,.cls-2,.cls-7{fill:#0a9cb7}.cls-1,.cls-15,.cls-18,.cls-5{opacity:.1}.cls-3{fill:#444053}.cls-4{opacity:.7}.cls-18,.cls-6{fill:#fff}.cls-7,.cls-8{opacity:.3}.cls-9{fill:url(#linear-gradient)}.cls-10{fill:#a5636d}.cls-11{opacity:.05}.cls-12{fill:#bebed0}.cls-13{fill:#5c5c8e}.cls-14{fill:none}.cls-16{fill:#f7cddd}.cls-17{fill:#4c3e42}.cls-19{fill:#efc8c4}.cls-20{fill:#727a9c}.cls-21{fill:#3acc6c}.cls-22{fill:#ffd037}.cls-23{fill:#65617d}.cls-24{fill:#9d9cb5}
        </style>
        <linearGradient id="linear-gradient" x1=".5" x2=".5" y1="1" gradientUnits="objectBoundingBox">
            <stop offset="0" stop-color="gray" stop-opacity=".251"/>
            <stop offset=".54" stop-color="gray" stop-opacity=".122"/>
            <stop offset="1" stop-color="gray" stop-opacity=".102"/>
        </linearGradient>
    </defs>
    <g id="undraw_to_do_list_a49b" transform="translate(.003)">
        <path id="Path_1082" d="M99.443 60.462c8.477-7.635 21.784-9.19 33.9-8.583 38.043 1.909 72.384 20.454 102.088 41.431 10.754 7.594 21.341 15.785 28.327 26.236 14.211 21.289 9.995 50.781-9.763 68.318-6.723 5.968-14.873 10.542-23.239 14.6-14.875 7.209-30.922 13-47.808 14.644-12.04 1.174-24.219.216-36.2-1.419-33.441-4.58-66.266-14.7-93.78-32.034-12.073-7.6-23.447-17.046-28.42-29.346s-1.79-27.871 10.531-35.147c5.1-3.01 11.188-4.368 17.154-5.646 8.781-1.877 17.7-3.73 25.626-7.549 8.185-3.944 17.874-11.573 16.255-20.3-1.742-9.367-3.137-17.594 5.329-25.205z" class="cls-1" data-name="Path 1082" transform="translate(-22.3 -51.76)"/>
        <path id="Path_1083" d="M279 496.171a5.09 5.09 0 0 1 4.563-.614s-.649 1.38-3.54 1.362z" class="cls-2" data-name="Path 1083" transform="translate(-223.494 -399.337)"/>
        <path id="Path_1084" d="M277.369 500a5.09 5.09 0 0 0 1.226 4.439s1.012-1.14-.138-3.791z" class="cls-2" data-name="Path 1084" transform="translate(-222.142 -403.073)"/>
        <path id="Path_1085" d="M264 482.13s.082-2.273 5.229-1.717a2.445 2.445 0 0 1-1.689 2.223 2.948 2.948 0 0 1-3.54-.506z" class="cls-2" data-name="Path 1085" transform="translate(-211.738 -387.653)"/>
        <path id="Path_1086" d="M259.059 488.65s-2.139.778-.024 5.505a2.445 2.445 0 0 0 1.594-2.292 2.956 2.956 0 0 0-1.57-3.213z" class="cls-2" data-name="Path 1086" transform="translate(-207.115 -394.177)"/>
        <path id="Path_1087" d="M248.529 461.454s-.432-3.719 4.809-3.538c0 0 .5 3.363-3.851 4.4z" class="cls-2" data-name="Path 1087" transform="translate(-199.605 -370.085)"/>
        <path id="Path_1088" d="M231.83 443.244s.556-4.253 5.838-3.2c0 0 .16 3.654-4.939 4.171z" class="cls-2" data-name="Path 1088" transform="translate(-186.524 -355.952)"/>
        <path id="Path_1089" d="M219.38 423.8s1.042-4.171 6.271-3.129c0 0-1.081 3.752-5.9 3.877z" class="cls-2" data-name="Path 1089" transform="translate(-176.766 -340.769)"/>
        <path id="Path_1090" d="M207.53 404.179s1.01-4.325 6.055-3.226c0 0-1.514 4.124-5.7 3.942z" class="cls-2" data-name="Path 1090" transform="translate(-167.479 -325.303)"/>
        <path id="Path_1091" d="M199.66 382.155s.7-5.261 5.406-4.284c0 0-1.172 4.807-5.038 5.03z" class="cls-2" data-name="Path 1091" transform="translate(-161.31 -307.258)"/>
        <path id="Path_1092" d="M192.09 360.669s.88-5.309 5.655-3.957c0 0-1.661 5.049-5.3 4.673z" class="cls-2" data-name="Path 1092" transform="translate(-155.377 -290.596)"/>
        <path id="Path_1093" d="M187.13 335.68s1.514-5.332 5.172-5.33c0 0-1.546 5.622-4.826 6.375z" class="cls-2" data-name="Path 1093" transform="translate(-151.49 -270.108)"/>
        <path id="Path_1094" d="M183.71 312.64s1.628-6.414 4.617-6.037c0 0-1.109 4.9-4.474 7.021z" class="cls-2" data-name="Path 1094" transform="translate(-148.809 -251.483)"/>
        <path id="Path_1095" d="M181.28 289.594s1.55-5.35 4.474-5.674c0 0-.995 5.244-4.357 7.045z" class="cls-2" data-name="Path 1095" transform="translate(-146.905 -233.718)"/>
        <path id="Path_1096" d="M178.76 267.258s1.985-5.374 3.918-5.568c0 0-.75 5.244-3.691 6.429z" class="cls-2" data-name="Path 1096" transform="translate(-144.93 -216.295)"/>
        <path id="Path_1097" d="M176.83 243.257s1.124-5.8 3.04-6.347c0 0-.084 4.708-2.831 6.768z" class="cls-2" data-name="Path 1097" transform="translate(-143.417 -196.873)"/>
        <path id="Path_1098" d="M172.4 219.081s1.239-4.632 2.779-5.391c0 0-.1 5.406-2.379 6.487z" class="cls-2" data-name="Path 1098" transform="translate(-139.945 -178.674)"/>
        <path id="Path_1099" d="M166.745 191.261l-.595-8.061s3.157 5.981.865 9.478z" class="cls-2" data-name="Path 1099" transform="translate(-135.046 -154.777)"/>
        <path id="Path_1100" d="M146.662 161.584s-2.333-5.815-2.852-6.124c0 0 4.282 3.676 4.065 8.6z" class="cls-2" data-name="Path 1100" transform="translate(-117.537 -133.036)"/>
        <path id="Path_1101" d="M235.449 474.183s-3.73-.344-3.417 4.893c0 0 3.373.417 4.3-3.959z" class="cls-2" data-name="Path 1101" transform="translate(-186.668 -382.835)"/>
        <path id="Path_1102" d="M217.293 454.82s-4.286.149-3.732 5.5c0 0 3.622.506 4.619-4.522z" class="cls-2" data-name="Path 1102" transform="translate(-172.167 -367.663)"/>
        <path id="Path_1103" d="M196.521 436.344s-3.961-1.676-6.271 3.129c0 0 3.652 1.382 6.643-2.379z" class="cls-2" data-name="Path 1103" transform="translate(-153.935 -352.96)"/>
        <path id="Path_1104" d="M184.581 415.5s-4.057-1.79-6.221 2.9c0 0 4.206 1.269 6.578-2.188z" class="cls-2" data-name="Path 1104" transform="translate(-144.616 -336.586)"/>
        <path id="Path_1105" d="M174.932 393.282s-3.974-3.516-6.892.307c0 0 4.033 2.863 7.1.5z" class="cls-2" data-name="Path 1105" transform="translate(-136.528 -318.275)"/>
        <path id="Path_1106" d="M168.107 369.832s-4-3.6-6.887.432c0 0 4.448 2.908 7.056.344z" class="cls-2" data-name="Path 1106" transform="translate(-131.183 -299.893)"/>
        <path id="Path_1107" d="M164.97 341.234s-3.151-4.563-6.61-3.386c0 0 3.274 4.835 6.619 4.487z" class="cls-2" data-name="Path 1107" transform="translate(-128.941 -275.832)"/>
        <path id="Path_1108" d="M162.324 317.055s-3.224-5.778-6.014-4.647c0 0 2.331 4.446 6.126 5.633z" class="cls-2" data-name="Path 1108" transform="translate(-127.334 -255.931)"/>
        <path id="Path_1109" d="M160 294.552s-3.257-4.519-6.117-3.843c0 0 2.7 4.606 6.468 5.175z" class="cls-2" data-name="Path 1109" transform="translate(-125.43 -238.985)"/>
        <path id="Path_1110" d="M163.846 268.473s-2.584-5.112-4.526-5.084c0 0 1.343 5.125 4.4 5.964z" class="cls-2" data-name="Path 1110" transform="translate(-129.693 -217.627)"/>
        <path id="Path_1111" d="M159.678 247.221s-2.854-5.168-4.848-5.1c0 0 1.531 4.454 4.777 5.57z" class="cls-2" data-name="Path 1111" transform="translate(-126.174 -200.954)"/>
        <path id="Path_1112" d="M160.6 222.906s-2.152-4.286-3.812-4.716c0 0 1.2 5.276 3.637 5.882z" class="cls-2" data-name="Path 1112" transform="translate(-127.71 -182.201)"/>
        <path id="Path_1113" d="M150.78 195.962l-4.69-6.582s1.39 6.621 5.387 7.845z" class="cls-2" data-name="Path 1113" transform="translate(-119.324 -159.621)"/>
        <path id="Path_1114" d="M132.495 172.237s-5.278-3.358-5.495-3.927c0 0 2.811 4.883 7.711 5.575z" class="cls-2" data-name="Path 1114" transform="translate(-104.362 -143.107)"/>
        <path id="Path_1115" d="M123 159.573s-6.133-5.46-7.642-5.4a9.684 9.684 0 0 1 7.785 5.088z" class="cls-2" data-name="Path 1115" transform="translate(-95.239 -132.031)"/>
        <path id="Path_1116" d="M154.965 191.5l-.216.037c-1.444-8.66-3.263-13.74-5.118-14.306l.063-.216c1.962.592 3.792 5.598 5.271 14.485z" class="cls-3" data-name="Path 1116" transform="translate(-122.099 -149.926)"/>
        <path id="Path_1117" d="M175.69 262.366l-.324.039c-.1-.809-.186-1.639-.253-2.465-.586-7.19-1.321-13.785-2.143-18.72l.179-.24c.824 4.943 1.7 11.733 2.29 18.934.067.822.152 1.645.251 2.452z" class="cls-3" data-name="Path 1117" transform="translate(-140.392 -200.063)"/>
        <path id="Path_1118" d="M210.534 376.118a42.461 42.461 0 0 1-12.073-8.241 47.279 47.279 0 0 1-9.047-11.828 55.2 55.2 0 0 1-5.724-18.979l.346.147a50.116 50.116 0 0 0 14.7 30.332 41.984 41.984 0 0 0 11.947 8.163z" class="cls-3" data-name="Path 1118" transform="translate(-148.794 -275.375)"/>
        <g id="Group_139" class="cls-4" data-name="Group 139" transform="translate(48.048 1.3)">
            <path id="Path_1119" d="M320.84 435.382a5.1 5.1 0 0 1 4.541.772s-1.031 1.124-3.786.247z" class="cls-2" data-name="Path 1119" transform="translate(-304.335 -353.549)"/>
            <path id="Path_1120" d="M317.1 436.23a5.092 5.092 0 0 0-.149 4.6s1.3-.785 1-3.659z" class="cls-2" data-name="Path 1120" transform="translate(-300.891 -354.392)"/>
            <path id="Path_1121" d="M309.75 417.792s.757-2.145 5.5-.084a2.44 2.44 0 0 1-2.275 1.62 2.954 2.954 0 0 1-3.225-1.536z" class="cls-2" data-name="Path 1121" transform="translate(-295.643 -339.174)"/>
            <path id="Path_1122" d="M301.964 420.89s-2.271.108-1.661 5.248a2.444 2.444 0 0 0 2.206-1.715 2.951 2.951 0 0 0-.545-3.533z" class="cls-2" data-name="Path 1122" transform="translate(-288.157 -342.37)"/>
            <path id="Path_1123" d="M299.3 394.268s.69-3.676 5.642-1.946c0 0-.521 3.358-4.984 3.053z" class="cls-2" data-name="Path 1123" transform="translate(-287.452 -319.616)"/>
            <path id="Path_1124" d="M288.94 372.038s1.795-3.892 6.517-1.315c0 0-.934 3.535-5.957 2.513z" class="cls-2" data-name="Path 1124" transform="translate(-279.333 -302.359)"/>
            <path id="Path_1125" d="M282.9 350.21s2.238-3.676 6.92-1.122c0 0-2.162 3.257-6.783 1.946z" class="cls-2" data-name="Path 1125" transform="translate(-274.599 -285.387)"/>
            <path id="Path_1126" d="M277.31 327.86s2.249-3.823 6.744-1.278c0 0-2.671 3.486-6.615 2.067z" class="cls-2" data-name="Path 1126" transform="translate(-270.217 -267.77)"/>
            <path id="Path_1127" d="M275.27 304.451s2.236-4.813 6.44-2.478c0 0-2.549 4.238-6.306 3.3z" class="cls-2" data-name="Path 1127" transform="translate(-268.618 -248.665)"/>
            <path id="Path_1128" d="M274.69 281.6s2.42-4.807 6.574-2.1c0 0-3.086 4.325-6.446 2.885z" class="cls-2" data-name="Path 1128" transform="translate(-268.164 -230.907)"/>
            <path id="Path_1129" d="M276.16 257.36s3.027-4.64 6.522-3.551c0 0-3.151 4.915-6.5 4.651z" class="cls-2" data-name="Path 1129" transform="translate(-269.316 -211.288)"/>
            <path id="Path_1130" d="M278.436 233.776s3.46-5.637 6.2-4.39c0 0-2.517 4.344-6.36 5.371z" class="cls-2" data-name="Path 1130" transform="translate(-270.978 -192.135)"/>
            <path id="Path_1131" d="M282.824 211.327s3.075-4.647 5.96-4.087c0 0-2.508 4.712-6.254 5.43z" class="cls-2" data-name="Path 1131" transform="translate(-274.309 -174.882)"/>
            <path id="Path_1132" d="M288.111 188.74s3.492-4.541 5.4-4.147c0 0-2.277 4.783-5.436 5.036z" class="cls-2" data-name="Path 1132" transform="translate(-278.651 -157.15)"/>
            <path id="Path_1133" d="M292.71 164.385s2.8-5.19 4.792-5.155c0 0-1.483 4.47-4.716 5.622z" class="cls-2" data-name="Path 1133" transform="translate(-282.287 -137.29)"/>
            <path id="Path_1134" d="M296.7 139.685s2.562-4.052 4.258-4.325c0 0-1.708 5.133-4.2 5.495z" class="cls-2" data-name="Path 1134" transform="translate(-285.415 -118.582)"/>
            <path id="Path_1135" d="M298.164 108.455L300 100.58s1.235 6.649-2 9.3z" class="cls-2" data-name="Path 1135" transform="translate(-286.433 -91.323)"/>
            <path id="Path_1136" d="M295.072 74.133s-.5-6.245-.9-6.7c0 0 3 4.775 1.323 9.424z" class="cls-2" data-name="Path 1136" transform="translate(-283.432 -65.341)"/>
            <path id="Path_1137" d="M281.6 402.054s-3.46-1.436-4.716 3.659c0 0 3.094 1.4 5.283-2.5z" class="cls-2" data-name="Path 1137" transform="translate(-269.88 -327.46)"/>
            <path id="Path_1138" d="M269.471 378.831s-4.137-1.131-5.2 4.143c0 0 3.308 1.561 5.756-2.943z" class="cls-2" data-name="Path 1138" transform="translate(-259.997 -309.325)"/>
            <path id="Path_1139" d="M257.22 355.573s-3.283-2.779-6.92 1.122c0 0 3.075 2.407 7.052-.3z" class="cls-2" data-name="Path 1139" transform="translate(-249.048 -290.425)"/>
            <path id="Path_1140" d="M252.223 331.885s-3.343-2.915-6.8.919c0 0 3.637 2.465 6.93-.13z" class="cls-2" data-name="Path 1140" transform="translate(-245.223 -271.779)"/>
            <path id="Path_1141" d="M251.183 306.673s-2.751-4.541-6.673-1.76c0 0 3 3.936 6.63 2.595z" class="cls-2" data-name="Path 1141" transform="translate(-244.51 -250.765)"/>
            <path id="Path_1142" d="M251.513 282.329s-2.751-4.625-6.7-1.633c0 0 3.382 4.109 6.632 2.428z" class="cls-2" data-name="Path 1142" transform="translate(-244.745 -231.702)"/>
            <path id="Path_1143" d="M258.872 251.814s-1.65-5.291-5.3-5.19c0 0 1.687 5.592 4.984 6.254z" class="cls-2" data-name="Path 1143" transform="translate(-251.611 -205.786)"/>
            <path id="Path_1144" d="M263.587 227.73s-1.358-6.476-4.357-6.225c0 0 .9 4.939 4.173 7.2z" class="cls-2" data-name="Path 1144" transform="translate(-256.047 -186.093)"/>
            <path id="Path_1145" d="M268.149 205.31s-1.765-5.285-4.7-5.49c0 0 1.2 5.2 4.636 6.866z" class="cls-2" data-name="Path 1145" transform="translate(-259.354 -169.103)"/>
            <path id="Path_1146" d="M279.631 181.32s-.947-5.648-2.811-6.2c0 0-.24 5.291 2.426 7z" class="cls-2" data-name="Path 1146" transform="translate(-269.829 -149.744)"/>
            <path id="Path_1147" d="M282 159.794s-1.187-5.784-3.109-6.314c0 0 .136 4.708 2.9 6.738z" class="cls-2" data-name="Path 1147" transform="translate(-271.456 -132.784)"/>
            <path id="Path_1148" d="M289.978 136.887s-.778-4.731-2.236-5.637c0 0-.432 5.393 1.73 6.7z" class="cls-2" data-name="Path 1148" transform="translate(-278.366 -115.361)"/>
            <path id="Path_1149" d="M288.576 108.161l-2.521-7.681s-.649 6.734 2.811 9.093z" class="cls-2" data-name="Path 1149" transform="translate(-277.034 -91.244)"/>
            <path id="Path_1150" d="M278.35 80.114s-4.05-4.781-4.08-5.384c0 0 1.239 5.5 5.7 7.616z" class="cls-2" data-name="Path 1150" transform="translate(-267.835 -71.063)"/>
            <path id="Path_1151" d="M273.061 65.2s-4.232-7.039-5.691-7.428a9.67 9.67 0 0 1 5.908 7.17z" class="cls-2" data-name="Path 1151" transform="translate(-262.427 -57.77)"/>
            <path id="Path_1152" d="M293.858 105.22l-.216-.03c1.2-8.695.973-14.088-.631-15.18l.123-.179c1.701 1.16 1.95 6.482.724 15.389z" class="cls-3" data-name="Path 1152" transform="translate(-282.522 -82.897)"/>
            <path id="Path_1153" d="M277.962 179.254l-.322-.058c.147-.8.311-1.62.493-2.431 1.581-7.039 2.841-13.552 3.523-18.508l.244-.177c-.683 4.973-1.866 11.709-3.447 18.759a51.329 51.329 0 0 0-.491 2.415z" class="cls-3" data-name="Path 1153" transform="translate(-270.476 -136.389)"/>
            <path id="Path_1154" d="M288.59 297.977a42.558 42.558 0 0 1-9.082-11.461 47.242 47.242 0 0 1-5.116-13.984 55.154 55.154 0 0 1 .182-19.823l.285.242a50.1 50.1 0 0 0 5.025 33.337 41.863 41.863 0 0 0 8.976 11.348z" class="cls-3" data-name="Path 1154" transform="translate(-267.293 -210.557)"/>
        </g>
        <path id="Path_1155" d="M1007.1 805.827s-9.143-.551-8.064 5.856a1.559 1.559 0 0 0 .811 1.646s.017-.476.938-.314a4.19 4.19 0 0 0 .993.048 2.081 2.081 0 0 0 1.215-.5s2.569-1.062 3.568-5.261c0 0 .74-.917.711-1.153l-1.544.649a2.763 2.763 0 0 1 .112 2.037s-.05-2-.346-1.946c-.061.011-.8.387-.8.387s.908 1.946.216 3.347c0 0 .259-2.389-.506-3.209l-1.081.636a4.8 4.8 0 0 1 .342 3.635s.184-2.506-.571-3.481l-.984.768s1 1.974.389 3.328c0 0-.08-2.917-.6-3.138a5.66 5.66 0 0 0-.993 1.081s.681 1.432.26 2.188c0 0-.26-1.946-.474-1.946a6.314 6.314 0 0 0-.947 2.162 4.671 4.671 0 0 1 .74-2.292 2.571 2.571 0 0 0-1.313.679s.134-.91 1.514-.99a6 6 0 0 1 .9-1.036 5.658 5.658 0 0 0-2.225.257 2.484 2.484 0 0 1 2.478-.469l.971-.794a8.044 8.044 0 0 0-2.595.026s.889-.759 2.857-.205l1.057-.631a9.626 9.626 0 0 0-2.478-.216 3.8 3.8 0 0 1 2.789.043l.757-.34s-1.14-.216-1.473-.259-.35-.128-.35-.128a3.94 3.94 0 0 1 2.136.238 9.68 9.68 0 0 0 1.59-.703z" class="cls-2" data-name="Path 1155" transform="translate(-787.764 -642.759)"/>
        <ellipse id="Ellipse_87" cx="6.47" cy="1.094" class="cls-1" data-name="Ellipse 87" rx="6.47" ry="1.094" transform="translate(206.572 170.033)"/>
        <path id="Path_1156" d="M1101.108 727.776s-5.153-.309-4.541 3.3a.88.88 0 0 0 .456.928s.011-.268.53-.177a2.3 2.3 0 0 0 .56.028 1.157 1.157 0 0 0 .683-.283 4.093 4.093 0 0 0 2.013-2.967s.417-.517.4-.649l-.865.372a1.561 1.561 0 0 1 .063 1.148s-.028-1.127-.195-1.1c-.035 0-.452.216-.452.216a2.578 2.578 0 0 1 .125 1.888s.147-1.347-.285-1.808l-.612.357a2.706 2.706 0 0 1 .192 2.05 3.841 3.841 0 0 0-.322-1.963l-.554.432a2.642 2.642 0 0 1 .216 1.877s-.045-1.643-.339-1.769a3.46 3.46 0 0 0-.56.6s.385.809.147 1.235c0 0-.147-1.1-.266-1.1a3.632 3.632 0 0 0-.534 1.224 2.641 2.641 0 0 1 .417-1.3 1.457 1.457 0 0 0-.742.383s.076-.512.865-.558a3.364 3.364 0 0 1 .506-.584 3.187 3.187 0 0 0-1.254.145 1.412 1.412 0 0 1 1.4-.266l.549-.445a4.519 4.519 0 0 0-1.464.015 1.765 1.765 0 0 1 1.611-.117l.6-.357a5.456 5.456 0 0 0-1.4-.121 2.144 2.144 0 0 1 1.572.026l.432-.193s-.649-.125-.83-.145-.2-.074-.2-.074a2.232 2.232 0 0 1 1.207.134 5.144 5.144 0 0 0 .871-.382z" class="cls-2" data-name="Path 1156" transform="translate(-864.232 -581.59)"/>
        <ellipse id="Ellipse_88" cx="3.648" cy=".616" class="cls-1" data-name="Ellipse 88" rx="3.648" ry=".616" transform="translate(229.68 150.115)"/>
        <path id="Path_1157" d="M956.949 742.27s-6.223-.376-5.488 3.985a1.062 1.062 0 0 0 .551 1.12s0-.322.638-.216a2.968 2.968 0 0 0 .677.035 1.423 1.423 0 0 0 .826-.342s1.749-.722 2.43-3.583c0 0 .5-.623.482-.783l-1.049.448a1.883 1.883 0 0 1 .076 1.388s-.032-1.36-.236-1.328c-.041 0-.545.262-.545.262a3.112 3.112 0 0 1 .151 2.279s.177-1.626-.344-2.184l-.74.432a3.268 3.268 0 0 1 .231 2.476 4.687 4.687 0 0 0-.387-2.379l-.67.521a3.192 3.192 0 0 1 .266 2.266s-.054-1.985-.411-2.136a4.069 4.069 0 0 0-.675.729s.463.975.175 1.49c0 0-.175-1.321-.32-1.328a4.454 4.454 0 0 0-.649 1.477 3.193 3.193 0 0 1 .5-1.561 1.758 1.758 0 0 0-.893.463s.091-.621 1.038-.675a4.066 4.066 0 0 1 .612-.7 3.851 3.851 0 0 0-1.514.175 1.694 1.694 0 0 1 1.685-.32l.662-.538a5.438 5.438 0 0 0-1.767.017 2.153 2.153 0 0 1 1.946-.141l.72-.432a6.508 6.508 0 0 0-1.689-.147 2.6 2.6 0 0 1 1.9.03l.517-.212s-.774-.151-1-.175-.238-.086-.238-.086a2.688 2.688 0 0 1 1.455.162 6.506 6.506 0 0 0 1.077-.489z" class="cls-2" data-name="Path 1157" transform="translate(-750.496 -592.949)"/>
        <ellipse id="Ellipse_89" cx="4.405" cy=".744" class="cls-1" data-name="Ellipse 89" rx="4.405" ry=".744" transform="translate(197.763 154.064)"/>
        <path id="Path_1158" d="M327.811 415.594l-21.691 8.392-31.7 12.254c-1.2-2.221-2.96-5.259-5.144-8.866-7.508-12.445-19.933-31.8-30.991-48.809-12.464-19.165-23.189-35.349-23.189-35.349l7.765-2.251 63.427-18.4z" class="cls-5" data-name="Path 1158" transform="translate(-173.404 -264.01)"/>
        <path id="Path_1159" d="M329.811 408.594l-21.691 8.392-31.7 12.254c-1.2-2.221-2.96-5.259-5.144-8.866-7.508-12.445-19.933-31.8-30.991-48.809-12.464-19.165-23.189-35.349-23.189-35.349l7.765-2.251 63.427-18.4z" class="cls-6" data-name="Path 1159" transform="translate(-174.971 -258.524)"/>
        <path id="Path_1160" d="M357.956 408.594l-21.691 8.392a163.13 163.13 0 0 1-36.849 3.388c-7.508-12.444-19.933-31.8-30.991-48.809L253 333.965l63.427-18.4z" class="cls-5" data-name="Path 1160" transform="translate(-203.116 -258.524)"/>
        <path id="Path_1161" d="M363.121 369.829s-33.7 19.933-84.009 15.435L239 287.483l19.221-3.3 66.446-11.411 37.7 95.169z" class="cls-2" data-name="Path 1161" transform="translate(-192.144 -224.979)"/>
        <path id="Path_1162" d="M432.068 367.939a159.537 159.537 0 0 1-26.351-.748c-9.995-1.172-20.037-3.6-28.665-8.04a87.033 87.033 0 0 1-18.739-12.587C344.342 334 335.7 316.018 327.93 284.181l66.446-11.411z" class="cls-5" data-name="Path 1162" transform="translate(-261.843 -224.979)"/>
        <path id="Path_1163" d="M440.445 259.259s-24.85 4.87-50.12 1.87c-9.995-1.178-20.047-3.6-28.665-8.04a87.036 87.036 0 0 1-18.738-12.589c-17.3-15.569-26.427-39.4-35.842-87.557 0 0 41.3 9.966 82.108-11.865 0 .002 13.763 85.907 51.257 118.181z" class="cls-6" data-name="Path 1163" transform="translate(-245.502 -121.765)"/>
        <path id="Path_1164" d="M520.234 587.973c-9.995-1.179-20.047-3.6-28.665-8.04a87.034 87.034 0 0 1-18.739-12.587c14.724-1.2 16.841-9.246 16.841-9.246 10.915 17.325 30.563 29.873 30.563 29.873z" class="cls-5" data-name="Path 1164" transform="translate(-375.411 -448.61)"/>
        <path id="Path_1165" d="M405.85 244.6s22.186 2.532 42.951-9.136l1.423 4.569a110.322 110.322 0 0 1-44.374 9.906z" class="cls-7" data-name="Path 1165" transform="translate(-322.914 -195.737)"/>
        <path id="Path_1166" d="M405.85 332.537a146.1 146.1 0 0 0 46.61-13.647l.83 1.9s-9.037 11.372-47.441 14.343z" class="cls-8" data-name="Path 1166" transform="translate(-322.914 -261.126)"/>
        <path id="Path_1167" d="M417.94 373.225a146.124 146.124 0 0 0 46.61-13.645l.83 1.9s-9.034 11.383-47.441 14.356z" class="cls-8" data-name="Path 1167" transform="translate(-332.39 -293.017)"/>
        <path id="Path_1168" d="M429 417.075a146.123 146.123 0 0 0 46.61-13.645l.83 1.9s-9.047 11.37-47.44 14.355z" class="cls-8" data-name="Path 1168" transform="translate(-341.058 -327.385)"/>
        <path id="Path_1169" d="M442.13 454.655a146.124 146.124 0 0 0 46.61-13.645l.83 1.9s-9.034 11.378-47.441 14.358z" class="cls-8" data-name="Path 1169" transform="translate(-351.349 -356.839)"/>
        <path id="Path_1170" d="M454.23 495.375a146.124 146.124 0 0 0 46.61-13.645l.83 1.9s-9.037 11.378-47.441 14.356z" class="cls-5" data-name="Path 1170" transform="translate(-360.833 -388.754)"/>
        <path id="Rectangle_916" d="M0 0h6.52v6.52H0z" class="cls-7" data-name="Rectangle 916" transform="rotate(-18.8 229.517 -375.296)"/>
        <path id="Rectangle_917" d="M0 0h6.52v6.52H0z" class="cls-7" data-name="Rectangle 917" transform="rotate(-18.8 259.004 -381.31)"/>
        <path id="Rectangle_918" d="M0 0h6.52v6.52H0z" class="cls-7" data-name="Rectangle 918" transform="rotate(-18.8 315.174 -389.477)"/>
        <path id="Rectangle_919" d="M0 0h6.52v6.52H0z" class="cls-7" data-name="Rectangle 919" transform="rotate(-18.8 345.427 -394.489)"/>
        <path id="Rectangle_920" d="M0 0h6.52v6.52H0z" class="cls-7" data-name="Rectangle 920" transform="rotate(-18.8 289.243 -385.187)"/>
        <path id="Path_1171" d="M811.691 323.872l-.231-.216c.6-.121 1.159-.175 1.159-.175s-2.048-7.408-5.5-9.88a16.211 16.211 0 0 1-4.137-5 75.613 75.613 0 0 0-6.161-9.032l-.623-.785-.268-.342a2.981 2.981 0 0 0 .781-1.762.028.028 0 0 1 0-.013.841.841 0 0 0 0-.1 1.21 1.21 0 0 0-.043-.24l-.024.037c-.292-.848-1.414-1.222-2.247-1.689-1.946-1.1-2.779-3.492-3.194-5.72-.324-1.73-.592-3.676-1.946-4.79-.865-.716-2.041-.951-2.913-1.663a8.515 8.515 0 0 1-1.806-2.638 10.566 10.566 0 0 0-3.514-3.964 5.86 5.86 0 0 0-5.075-.67c-.634.242-1.209.618-1.836.88-1.557.649-3.341.562-4.883 1.248-1.9.843-3.133 2.707-4.262 4.476a21.3 21.3 0 0 0-2.022 3.6v-.141a5.151 5.151 0 0 0-.4 1.873 2.811 2.811 0 0 0 .089.813 2.622 2.622 0 0 0 1.756 1.676 7.328 7.328 0 0 0 .19.815 8 8 0 0 0 5.168 5.278c.071.026.145.043.216.065a1.718 1.718 0 0 0 .257.476c.69.865 2.074.618 2.973-.011.037-.024.071-.054.106-.08a3.233 3.233 0 0 0 .039.365c.019.1.035.216.056.309a14.946 14.946 0 0 0 2.887 6.729s.192.29.506.77a9.646 9.646 0 0 0 2.211 6.302c-1.1.634-3.46 1.875-4.922 1.771 0 0-5.371.694-5.994.346-.087-.048-.169.017-.247.164-1.479-.9-6.208-3.5-6.613-.164-.365 3.027 3.944 3.414 6 3.43-.093.887-.145 1.6-.145 1.6l8.825-.6 4.6-.677a5.529 5.529 0 0 1-1.641 1.563s-4.154 3.362-4.872 3.393c-.1 0-.134.1-.119.264-1.747 0-7.181.253-5.674 3.28 1.369 2.744 5.222.845 6.965-.2.411.8.761 1.423.761 1.423l7.121-5.071 1.542-1.3a5.487 5.487 0 0 0 1.533-.3.179.179 0 0 0 .022.056 2.924 2.924 0 0 1 .123.489c.432 2.485-1.021 8.28-1.021 8.28s-3.2 8.15-1.661 9.262.4 5.8.4 5.8a8.67 8.67 0 0 0 .921 1.271 3.865 3.865 0 0 0 .538.512 5 5 0 0 0-.177.595 4.848 4.848 0 0 0 .253 2.993c1.055 2.56.413 6.271.413 6.271l-2.072 13.995a5.884 5.884 0 0 0-2.757 0c-.733.413-.493 2.5 1.209 3.391a4.381 4.381 0 0 1-1.752.807 94.306 94.306 0 0 1-3.278.7c-.045 0-3.633-.791-4.554-.268s-.478 3.425 2.143 4.137c2.565.694 12.129 1.713 14.884 1.3l.175-.03c2.342-.463.285-3.54.026-3.914-.017-.125-.032-.257-.05-.4-.037-.32-.069-.688-.093-1.081a34.984 34.984 0 0 0 6.372.179.687.687 0 0 0 .156-.028c2.074-.411.257-3.131.024-3.46l-.032-.266v-.024c0-.063-.015-.13-.022-.195a.842.842 0 0 0-.017-.169c-.017-.058 0-.1-.015-.158l-.026-.331v-.141c0-.087-.011-.173-.015-.262v-.145c0-.13 0-.264-.013-.4V367.3c0-.145.013-.294.022-.443l.013-.16c0-.11.017-.216.028-.329a.518.518 0 0 1 .017-.162c.017-.151.037-.3.058-.456a.985.985 0 0 1 .022-.136c.019-.115.039-.231.061-.348a.848.848 0 0 1 .035-.173q.039-.188.084-.376a.449.449 0 0 1 .024-.1c.039-.151.082-.3.128-.45.015-.052.032-.1.05-.156.037-.112.076-.216.117-.333l.052-.138c.058-.147.121-.292.186-.432.017-.037.037-.074.056-.11.054-.112.112-.216.173-.333l.074-.128c.082-.138.167-.277.26-.409 2.379-3.391 3.006-9.93 2.947-11.353s.283-4.374.709-4.811a37.552 37.552 0 0 0 2.939-4.346c.179-.32.335-.621.458-.889.7-.244 1.172-.432 1.172-.432a10.027 10.027 0 0 1-.355-2.787 8.449 8.449 0 0 1 2.612-6.232 10.19 10.19 0 0 0 3.555-6.894v-.205l-.03-.307z" class="cls-9" data-name="Path 1171" transform="translate(-601.423 -226.658)"/>
        <path id="Path_1172" d="M887.18 573.058a37.166 37.166 0 0 1-2.811 4.3c-.406.432-.733 3.354-.677 4.757s-.538 7.873-2.811 11.225-1.1 9.145-1.1 9.145l-3.626 1.271h-4.357l-3-.9-.798-2.184s1.055-.162 3.676-.785a3.4 3.4 0 0 0 2.714-3.086l1.84-12.851a12.3 12.3 0 0 0-.352-5.488 4.468 4.468 0 0 1 .294-3.914l.058-.091a36.643 36.643 0 0 1 5.732-3.646c2.562-1.237 5.162-1.825 5.9.37a3.812 3.812 0 0 1-.682 1.877z" class="cls-10" data-name="Path 1172" transform="translate(-685.13 -457.707)"/>
        <path id="Path_1173" d="M887.18 573.058a37.166 37.166 0 0 1-2.811 4.3c-.406.432-.733 3.354-.677 4.757s-.538 7.873-2.811 11.225c-1.6 2.363-1.494 5.936-1.3 7.841.084.8.188 1.3.188 1.3l-3.626 1.271h-4.353l-3-.891-.79-2.189s.264-.041.865-.158 1.514-.316 2.824-.627a3.4 3.4 0 0 0 2.7-3.086l1.84-12.851a12.3 12.3 0 0 0-.352-5.488 4.468 4.468 0 0 1 .294-3.914l.058-.091a36.643 36.643 0 0 1 5.732-3.646c2.562-1.237 5.162-1.825 5.9.37a3.812 3.812 0 0 1-.681 1.877z" class="cls-11" data-name="Path 1173" transform="translate(-685.13 -457.707)"/>
        <path id="Path_1174" d="M879.776 714.14l-3.626 1.271h-4.357l-3-.9-.793-2.183s.264-.041.865-.158a1.633 1.633 0 0 0 1.256 1.765l1.7.058c.24 0 .482.013.72.013a21.727 21.727 0 0 0 7.045-1.17c.091.798.19 1.304.19 1.304z" class="cls-5" data-name="Path 1174" transform="translate(-685.13 -569.364)"/>
        <path id="Path_1175" d="M859.807 712.9l-1.706-.058a1.664 1.664 0 0 1-1.2-2.143s-3.071-.7-3.856-.236-.406 3 1.812 3.624c2.162.608 10.263 1.5 12.592 1.135l.149-.026c2.11-.432 0-3.46 0-3.46a21.813 21.813 0 0 1-7.791 1.164z" class="cls-12" data-name="Path 1175" transform="translate(-673.113 -567.899)"/>
        <path id="Path_1176" d="M854.757 575.907a17.1 17.1 0 0 1-.378.716 40.294 40.294 0 0 1-3.088 4.714c-.458.489-.824 3.784-.766 5.376s-.608 8.883-3.172 12.667a12.123 12.123 0 0 0-1.587 6.727q.01 1.084.128 2.162c.1.88.216 1.429.216 1.429l-4.091 1.434H837.1l-3.388-1.008-.887-2.474s.3-.048.962-.179 1.7-.352 3.187-.7a3.845 3.845 0 0 0 3.055-3.481l2.074-14.5s.612-3.665-.4-6.2a4.974 4.974 0 0 1-.242-2.96 4.723 4.723 0 0 1 .649-1.561s.791-.623 1.985-1.447c.528-.363 1.14-.765 1.8-1.172 2.889-1.788 6.688-3.613 8.509-2.283a2.355 2.355 0 0 1 .839 1.209 3.073 3.073 0 0 1-.486 1.531z" class="cls-10" data-name="Path 1176" transform="translate(-657.557 -460.06)"/>
        <path id="Path_1177" d="M846.1 735.707l-4.091 1.434H837.1l-3.388-1.008-.887-2.474s.3-.048.962-.18a1.805 1.805 0 0 0 .575 1.6 1.927 1.927 0 0 0 1.22.458l1.55.05c.27 0 .543.015.813.015a24.6 24.6 0 0 0 7.953-1.323c.091.879.202 1.428.202 1.428z" class="cls-5" data-name="Path 1177" transform="translate(-657.557 -586.066)"/>
        <path id="Path_1178" d="M823.514 734.308l-1.548-.052a1.946 1.946 0 0 1-1.222-.458 1.911 1.911 0 0 1-.512-1.974s-3.46-.785-4.353-.266-.456 3.388 2.046 4.091c2.45.685 11.584 1.693 14.213 1.282l.167-.03c2.379-.489 0-3.91 0-3.91a24.534 24.534 0 0 1-8.79 1.317z" class="cls-12" data-name="Path 1178" transform="translate(-643.946 -584.42)"/>
        <path id="Path_1179" d="M900.465 573.073a20.716 20.716 0 0 1-4.85 1.23 2.17 2.17 0 0 1-.37-.017 42.609 42.609 0 0 0-5.78.281c-.949.084-1.862.173-2.616.251-1.124.117-1.9.2-1.9.2v-.733c.528-.363 1.14-.766 1.8-1.172 2.889-1.788 6.688-3.613 8.509-2.283 2.562-1.237 5.162-1.825 5.9.37a3.959 3.959 0 0 1-.693 1.873z" class="cls-5" data-name="Path 1179" transform="translate(-698.414 -457.723)"/>
        <path id="Path_1180" d="M907.51 497.857a10.242 10.242 0 0 1-3.4 6.818c-3.754 3.665-2.162 8.928-2.162 8.928s-4.476 1.758-6.407 1.806a2.177 2.177 0 0 1-.37-.017 69.23 69.23 0 0 0-8.405.532c-1.124.117-1.9.2-1.9.2v-15.568l20.744-5.036 1.879 1.87a3.47 3.47 0 0 1 .021.467z" class="cls-13" data-name="Path 1180" transform="translate(-698.352 -399.562)"/>
        <g id="Group_140" class="cls-15" data-name="Group 140" transform="translate(186.527 95.965)">
            <path id="Path_1182" d="M885.252 587.873l-.342.037v.164s.774-.084 1.9-.2c1.9-.193 4.8-.463 6.716-.543a75.679 75.679 0 0 0-8.274.542z" data-name="Path 1182" transform="translate(-884.91 -567.466)"/>
            <path id="Path_1183" d="M942.622 497.423l-1.879-1.873-1.252.314 1.574 1.568a3.459 3.459 0 0 1 0 .469 10.246 10.246 0 0 1-3.4 6.818c-3.754 3.663-2.162 8.928-2.162 8.928a35.586 35.586 0 0 1-5.826 1.754 5.365 5.365 0 0 1 .605.032 2.159 2.159 0 0 0 .37.019c1.931-.048 6.407-1.806 6.407-1.806s-1.6-5.265 2.162-8.928a10.246 10.246 0 0 0 3.4-6.818 3.45 3.45 0 0 0 .001-.477z" data-name="Path 1183" transform="translate(-919.999 -495.55)"/>
        </g>
        <path id="Path_1184" d="M773.395 447.973s-6.271-4.351-6.732-.432 6.732 3.358 6.732 3.358z" class="cls-10" data-name="Path 1184" transform="translate(-605.689 -360.675)"/>
        <path id="Path_1185" d="M804.536 442.13s-3.393 2.245-5.27 2.106c0 0-5.129.688-5.726.344s-.96 4.973-.96 4.973l8.433-.595 5.406-.826s2.7-1.648 2.7-3.068-4.583-2.934-4.583-2.934z" class="cls-16" data-name="Path 1185" transform="translate(-626.018 -357.717)"/>
        <path id="Path_1186" d="M804.536 442.13s-3.393 2.245-5.27 2.106c0 0-5.129.688-5.726.344s-.96 4.973-.96 4.973l8.433-.595 5.406-.826s2.7-1.648 2.7-3.068-4.583-2.934-4.583-2.934z" class="cls-11" data-name="Path 1186" transform="translate(-626.018 -357.717)"/>
        <path id="Path_1187" d="M802.5 494.464s-7.627-.316-5.918 3.244 7.488-.761 7.488-.761z" class="cls-10" data-name="Path 1187" transform="translate(-628.963 -398.729)"/>
        <path id="Path_1188" d="M840.786 416.056s-6.182-4.625-5.311-10.258 5.311 4.312 5.311 4.312z" class="cls-13" data-name="Path 1188" transform="translate(-659.572 -327.887)"/>
        <path id="Path_1189" d="M795.786 313.088a7.824 7.824 0 0 1-2.2 5.43 7.355 7.355 0 0 1-1.129.962 8.064 8.064 0 0 1-2.565 1.185 8.149 8.149 0 0 1-1.109.2 8.397 8.397 0 0 1-.813.041 7.625 7.625 0 0 1-2.575-.432 7.815 7.815 0 1 1 10.39-7.374z" class="cls-10" data-name="Path 1189" transform="translate(-616.28 -250.456)"/>
        <path id="Path_1190" d="M898.034 497.857c-.7.13-1.566.363-1.566.727 0 .612-9.77 3.91-9.77 3.91s.365.852-.61 2.318-8.916 9.891-8.916 9.891l.026.251.1.971.484 4.64s-3.053-1.1-4.031-.977a1.341 1.341 0 0 1-.975-.454 4.722 4.722 0 0 1 .649-1.561s.791-.623 1.985-1.447v-15.57l20.744-5.036 1.879 1.87a3.468 3.468 0 0 1 .001.467z" class="cls-5" data-name="Path 1190" transform="translate(-688.876 -399.562)"/>
        <path id="Path_1191" d="M864.827 386.851s-2.443.242-2.443.854-9.77 3.91-9.77 3.91.365.852-.61 2.318-8.916 9.893-8.916 9.893l.612 5.86s-3.053-1.1-4.031-.977c-.432.054-.919-.348-1.319-.817a8.508 8.508 0 0 1-.88-1.256s1.1-4.643-.365-5.741 1.587-9.158 1.587-9.158 1.38-5.73.973-8.189a2.954 2.954 0 0 0-.117-.484.175.175 0 0 0-.017-.054c-.865-2.348-10.241-22.056-10.241-22.056a14.149 14.149 0 0 1 .117-1.672 8.94 8.94 0 0 1 .074-.476 8.051 8.051 0 0 1 .19-.865 5.416 5.416 0 0 1 .177-.538c.29-.744.733-1.317 1.395-1.33a4.1 4.1 0 0 1 2.452-1.031 10.668 10.668 0 0 1 5.488 1.031c5.737 2.439 7.082 2.565 7.082 2.565l2.882 3.784.592.776a74.789 74.789 0 0 1 5.884 8.931 15.9 15.9 0 0 0 3.951 4.948c3.298 2.448 5.253 9.774 5.253 9.774z" class="cls-16" data-name="Path 1191" transform="translate(-654.79 -289.416)"/>
        <path id="Path_1192" d="M894.65 437.05s8.152 2.015 11.311 7.1z" class="cls-5" data-name="Path 1192" transform="translate(-706.017 -353.735)"/>
        <path id="Path_1193" d="M906.3 478.34s1.542 10.351 1.114 11.13-1.114-11.13-1.114-11.13z" class="cls-5" data-name="Path 1193" transform="translate(-715.148 -386.097)"/>
        <path id="Path_1194" d="M878.231 493.426c-.592.776-3 6.777-3 6.777l.694 10.077.612 5.86s-3.051-1.1-4.029-.977c-.432.054-.921-.348-1.319-.817.634-3.432 1.989-10.613 2.234-10.751.322-.184 1.972-5.953 2.059-7.568s2.379-5.216 2.379-5.216.967 1.839.37 2.615z" class="cls-5" data-name="Path 1194" transform="translate(-687.63 -395.87)"/>
        <path id="Path_1195" d="M843.088 387.068c-.151.456-.385 3.114-.385 3.114a3.6 3.6 0 0 1-3.038 3.352 2.942 2.942 0 0 0-.117-.484c-.733-2.074-10.258-22.1-10.258-22.1a13.155 13.155 0 0 1 .381-3.014c2.074-.61 5.356.329 5.356.329.949-.125 4.046 6.031 4.046 6.031s2.063 4.714 2.29 5.356a11.365 11.365 0 0 1 .091 2.063c.091.368 1.055.683 1.191 1.189s.048 1.514.138 1.693a7.5 7.5 0 0 1 .305 2.471z" class="cls-5" data-name="Path 1195" transform="translate(-654.79 -299.403)"/>
        <path id="Path_1196" d="M835.1 385.356c-.151.458-.385 3.114-.385 3.114a3.459 3.459 0 0 1-2.439 3.181 5.113 5.113 0 0 1-1.466.292l-1.473 1.28-6.8 5.006s-2.534-4.686-1.847-4.712 4.653-3.356 4.653-3.356c1.213-.649 2.428-2.811 2.993-3.923a3.432 3.432 0 0 1-.073-.4c-.244-2.074-5.374-10.014-5.374-10.014a15 15 0 0 1-2.755-6.656c-.022-.1-.037-.2-.056-.3a3.1 3.1 0 0 1-.039-.407c-.093-1.663 1.118-2.268 2.554-2.411a10.249 10.249 0 0 1 2.249.069 16.282 16.282 0 0 1 2.2.432c.614-.082 2.128 2.472 3.12 4.282.534.982.919 1.747.919 1.747s2.063 4.716 2.29 5.356a11.365 11.365 0 0 1 .091 2.063c.091.365 1.055.685 1.191 1.191s.048 1.514.138 1.693a7.514 7.514 0 0 1 .309 2.473z" class="cls-16" data-name="Path 1196" transform="translate(-647.538 -298.058)"/>
        <path id="Path_1197" d="M811.692 327.2a4.66 4.66 0 0 1-5.075.649 34.062 34.062 0 0 1-4.666-2.85c-1.012-.618-2.085-1.124-3.081-1.762-.147-.1-.29-.19-.432-.29-1.15-.813-2.147-1.857-3.339-2.595a5.189 5.189 0 0 0-2.681-.865 3.049 3.049 0 0 0-1.278.268 1.734 1.734 0 0 0-.216.106 5.514 5.514 0 0 0-1.081.811c-.337.3-.66.625-1.014.908-.022-.1-.037-.2-.056-.3a3.1 3.1 0 0 1-.039-.407 8.397 8.397 0 0 1-.813.041 7.625 7.625 0 0 1-2.575-.432.176.176 0 0 0-.019-.1 6.158 6.158 0 0 0-2.059-4.035 14.335 14.335 0 0 0-2.859-1.081 7.815 7.815 0 1 1 14.726.845 10.669 10.669 0 0 1 5.488 1.031c5.737 2.439 7.082 2.565 7.082 2.565l2.882 3.784a3.234 3.234 0 0 0-.7 1.5c-.052 1.018.94 1.729 1.805 2.209z" class="cls-5" data-name="Path 1197" transform="translate(-616.239 -250.468)"/>
        <path id="Path_1198" d="M777.382 295.952a6.164 6.164 0 0 1 2.061 4.031 3.143 3.143 0 0 0 .471 1.367c.649.852 1.981.612 2.839 0a16.673 16.673 0 0 1 2.493-1.972 4.3 4.3 0 0 1 3.959.59c1.191.746 2.188 1.79 3.339 2.595 1.114.785 2.355 1.345 3.514 2.052a33.43 33.43 0 0 0 4.666 2.85c1.682.675 3.784.672 5.073-.649-.865-.48-1.858-1.189-1.79-2.219s1.265-1.8 1.185-2.852-1.321-1.468-2.212-1.987c-1.86-1.081-2.653-3.46-3.051-5.655-.309-1.717-.564-3.635-1.847-4.738-.828-.709-1.946-.941-2.781-1.643a8.548 8.548 0 0 1-1.73-2.61 10.381 10.381 0 0 0-3.354-3.92 5.379 5.379 0 0 0-4.846-.662c-.605.24-1.157.612-1.754.865-1.488.649-3.19.556-4.662 1.233-1.814.835-2.993 2.677-4.072 4.426-.913 1.5-2.722 4.141-2.21 6.087.512 1.978 3.364 1.872 4.709 2.811z" class="cls-17" data-name="Path 1198" transform="translate(-610.347 -230.812)"/>
        <g id="Group_141" class="cls-15" data-name="Group 141" transform="translate(162.233 59.669)">
            <path id="Path_1199" d="M920.4 378.378a1.366 1.366 0 0 0-.041-.238 3.659 3.659 0 0 0-.776 1.624 1.471 1.471 0 0 0 .035.417 3.145 3.145 0 0 0 .782-1.803z" data-name="Path 1199" transform="translate(-887.787 -367.233)"/>
            <path id="Path_1200" d="M801.072 343.1a33.412 33.412 0 0 1-4.664-2.85c-1.161-.707-2.4-1.267-3.516-2.052-1.15-.813-2.147-1.857-3.339-2.595a4.328 4.328 0 0 0-3.959-.592 16.124 16.124 0 0 0-2.493 1.974c-.861.623-2.18.865-2.839 0a3.143 3.143 0 0 1-.471-1.367 6.162 6.162 0 0 0-2.059-4.031c-1.347-.941-4.2-.835-4.716-2.811a3.073 3.073 0 0 1-.067-1.081 4.321 4.321 0 0 0-.3 2.541c.519 1.985 3.371 1.879 4.716 2.811a6.169 6.169 0 0 1 2.061 4.033 3.17 3.17 0 0 0 .469 1.367c.649.852 1.981.612 2.841-.011a16 16 0 0 1 2.493-1.972 4.3 4.3 0 0 1 3.959.592c1.191.746 2.188 1.79 3.339 2.595 1.114.787 2.355 1.345 3.514 2.052a33.237 33.237 0 0 0 4.666 2.852c1.682.675 3.784.67 5.073-.649a6.217 6.217 0 0 1-.945-.625 5.389 5.389 0 0 1-3.763-.181z" data-name="Path 1200" transform="translate(-772.561 -327.7)"/>
        </g>
        <path id="Path_1201" d="M718.156 443.542l17.3-6.461a1.643 1.643 0 0 1 2.117.964 1.646 1.646 0 0 1-.967 2.117l-17.3 6.463-3.706-.372z" class="cls-13" data-name="Path 1201" transform="translate(-565.684 -353.677)"/>
        <path id="Path_1202" d="M737.031 438.446a1.648 1.648 0 0 1-.967 2.119l-17.3 6.461-2.785-.279-.4.432 3.706.372 17.3-6.463a1.646 1.646 0 0 0 .967-2.117 1.639 1.639 0 0 0-.672-.822 1.786 1.786 0 0 1 .151.297z" class="cls-18" data-name="Path 1202" transform="translate(-565.669 -354.597)"/>
        <path id="Path_1203" d="M695.856 415.58l1.153 3.084-3.042-.3-.666-.067.91-.964z" class="cls-19" data-name="Path 1203" transform="translate(-543.384 -325.715)"/>
        <path id="Path_1204" d="M716.524 475.42a.659.659 0 0 1 .177.195.279.279 0 0 1 0 .3.677.677 0 0 1-.169.119.551.551 0 0 0-.247.417l-.666-.067z" class="cls-20" data-name="Path 1204" transform="translate(-565.7 -383.808)"/>
        <path id="Path_1205" d="M646.3 290.571l-2.917-1.423a.352.352 0 0 1-.162-.471l.309-.636a.35.35 0 0 1 .471-.162l1.966.958 2.052-4.208a.355.355 0 0 1 .471-.164l.636.311a.35.35 0 0 1 .162.471l-2.517 5.162a.352.352 0 0 1-.471.162z" class="cls-21" data-name="Path 1205" transform="translate(-508.928 -234.117)"/>
        <path id="Path_1206" d="M675.769 374.725l-2.917-1.423a.353.353 0 0 1-.162-.471l.31-.631a.355.355 0 0 1 .474-.162l1.963.958 2.05-4.212a.355.355 0 0 1 .471-.164l.634.311a.353.353 0 0 1 .164.471l-2.517 5.162a.357.357 0 0 1-.474.162z" class="cls-21" data-name="Path 1206" transform="translate(-532.025 -300.071)"/>
        <path id="Path_1207" d="M662.536 333.231l-2.917-1.423a.355.355 0 0 1-.164-.471l.311-.636a.35.35 0 0 1 .471-.162l1.966.958 2.052-4.214a.352.352 0 0 1 .471-.162l.636.309a.357.357 0 0 1 .162.474L663 333.069a.352.352 0 0 1-.471.162z" class="cls-21" data-name="Path 1207" transform="translate(-521.652 -267.548)"/>
        <path id="Path_1208" d="M688.569 412.74l-2.917-1.423a.353.353 0 0 1-.162-.471l.309-.636a.352.352 0 0 1 .471-.162l1.966.958 2.052-4.208a.357.357 0 0 1 .474-.164l.634.311a.35.35 0 0 1 .162.471l-2.515 5.162a.357.357 0 0 1-.474.162z" class="cls-21" data-name="Path 1208" transform="translate(-542.057 -329.869)"/>
        <path id="Path_1209" d="M182.68 693.36s1.287 1.682-.592 4.221-3.432 4.684-2.811 6.271c0 0 2.837-4.716 5.144-4.781s.798-2.871-1.741-5.711z" class="cls-21" data-name="Path 1209" transform="translate(-145.226 -554.621)"/>
        <path id="Path_1210" d="M182.964 693.36a2.074 2.074 0 0 1 .264.528c2.251 2.647 3.46 5.116 1.287 5.19-2.017.056-4.437 3.663-5.015 4.573a1.657 1.657 0 0 0 .067.216s2.837-4.716 5.144-4.781.789-2.886-1.747-5.726z" class="cls-5" data-name="Path 1210" transform="translate(-145.51 -554.621)"/>
        <path id="Path_1211" d="M205.506 701.894c0 .59-.067 1.081-.149 1.081s-.147-.48-.147-1.081.082-.314.164-.314.132-.28.132.314z" class="cls-22" data-name="Path 1211" transform="translate(-165.66 -561.01)"/>
        <path id="Path_1212" d="M206.692 705.04c-.519.283-.973.456-1.012.383s.35-.359.865-.649.314-.078.352 0 .316-.017-.205.266z" class="cls-22" data-name="Path 1212" transform="translate(-166.027 -563.451)"/>
        <path id="Path_1213" d="M153.662 693.36s-1.284 1.682.595 4.221 3.43 4.684 2.811 6.271c0 0-2.835-4.716-5.144-4.781s-.8-2.871 1.738-5.711z" class="cls-21" data-name="Path 1213" transform="translate(-123.002 -554.621)"/>
        <path id="Path_1214" d="M153.621 693.36a2.121 2.121 0 0 0-.262.528c-2.253 2.647-3.46 5.116-1.287 5.19 2.015.056 4.435 3.663 5.015 4.573a1.668 1.668 0 0 1-.069.216s-2.835-4.736-5.149-4.8-.786-2.867 1.752-5.707z" class="cls-5" data-name="Path 1214" transform="translate(-122.961 -554.621)"/>
        <path id="Path_1215" d="M153.05 701.894c0 .59.065 1.081.147 1.081s.149-.48.149-1.081-.082-.314-.164-.314-.132-.28-.132.314z" class="cls-22" data-name="Path 1215" transform="translate(-124.779 -561.01)"/>
        <path id="Path_1216" d="M148.113 705.04c.521.283.973.456 1.012.383s-.35-.359-.865-.649-.316-.078-.355 0-.311-.017.208.266z" class="cls-22" data-name="Path 1216" transform="translate(-120.664 -563.451)"/>
        <ellipse id="Ellipse_90" cx="13.448" cy="2.063" class="cls-1" data-name="Ellipse 90" rx="13.448" ry="2.063" transform="translate(20.612 157.967)"/>
        <path id="Path_1217" d="M161.618 728.527l-.065.525-.089.742-.039.309-.089.742-.041.309-.089.742-1.029 8.433c-.093.753-1.323 1.341-2.811 1.341h-5.343c-1.486 0-2.714-.588-2.811-1.341l-1.029-8.433-.091-.742-.037-.309-.093-.742-.037-.309-.091-.742-.065-.525c-.05-.432.614-.787 1.455-.787h10.939c.846 0 1.509.36 1.455.787z" class="cls-23" data-name="Path 1217" transform="translate(-120.639 -581.567)"/>
        <path id="Path_1218" d="M139.524 682.05l-.091.742H125.9l-.089-.742z" class="cls-24" data-name="Path 1218" transform="translate(-98.607 -534.564)"/>
        <path id="Path_1219" d="M139.859 686.91l-.091.742h-13.277l-.091-.742z" class="cls-24" data-name="Path 1219" transform="translate(-99.07 -538.373)"/>
        <path id="Path_1220" d="M140.191 691.77l-.091.742h-13.02l-.091-.742z" class="cls-24" data-name="Path 1220" transform="translate(-99.532 -542.183)"/>
    </g>
</svg>
