<svg xmlns="http://www.w3.org/2000/svg" width="336.98" height="247.985" viewBox="0 0 336.98 247.985">
    <defs>
        <style>
            .cls-1,.cls-6,.cls-7{fill:#fac42c}.cls-1,.cls-12,.cls-3{opacity:.1}.cls-2{fill:#d0d2d5}.cls-4{fill:#262626}.cls-5{fill:#fff}.cls-7{opacity:.3}.cls-13,.cls-8{fill:#444053}.cls-14,.cls-9{fill:#3f3d56}.cls-9{opacity:.2}.cls-10{fill:#ee8e9e}.cls-11{fill:#454b69}.cls-13{opacity:.6}.cls-15{fill:url(#linear-gradient)}.cls-16{fill:#a26565}.cls-17{fill:#efb7b9}
        </style>
        <linearGradient id="linear-gradient" x1=".5" x2=".5" y1="1" gradientUnits="objectBoundingBox">
            <stop offset="0" stop-color="gray" stop-opacity=".251"/>
            <stop offset=".54" stop-color="gray" stop-opacity=".122"/>
            <stop offset="1" stop-color="gray" stop-opacity=".102"/>
        </linearGradient>
    </defs>
    <g id="undraw_youtube_tutorial_2gn3" transform="translate(-.001 -.005)">
        <path id="Path_1031" d="M230.793 71.408c-21.6-.749-42.18-7.727-61.827-15.355s-39.111-16.083-60.2-20.127c-13.563-2.6-29.073-2.961-40 4.3-10.518 7-13.915 19.086-15.74 30.284-1.375 8.434-2.183 17.3 1.581 25.2 2.615 5.478 7.259 10.086 10.47 15.334 11.168 18.269 3.28 40.793-8.833 58.627-5.666 8.368-12.266 16.348-16.647 25.256s-6.409 19.11-2.577 28.194c3.8 9.006 12.856 15.77 22.665 20.526 19.924 9.662 43.4 12.43 66.3 14 50.682 3.453 101.633 1.962 152.446.471 18.806-.558 37.692-1.121 56.193-4.029 10.271-1.613 20.875-4.175 28.331-10.363 9.468-7.855 11.815-21.156 5.469-31.015-10.64-16.518-40.066-20.622-47.5-38.351-4.095-9.758.11-20.628 6.06-29.679 12.764-19.417 34.158-36.448 35.285-58.642.775-15.242-9.51-30.508-25.411-37.719-16.67-7.56-39.782-6.609-52.081 5.9-12.657 12.894-34.91 17.85-53.984 17.188z" class="cls-1" data-name="Path 1031" transform="translate(-35 -34.22)"/>
        <path id="Path_1032" d="M527.333 692.73l-58.153-.746.17-1.491 2.812-24.6h51.07l3.758 24.6.286 1.864z" class="cls-2" data-name="Path 1032" transform="translate(-329.261 -467.306)"/>
        <path id="Path_1033" d="M527.276 750.254h-29.02l-29.076-.373.17-1.491h57.64z" class="cls-3" data-name="Path 1033" transform="translate(-329.261 -525.203)"/>
        <path id="Rectangle_826" d="M0 0h77.164v1.864H0z" class="cls-2" data-name="Rectangle 826" transform="translate(130.226 223.56)"/>
        <path id="Path_1034" d="M447.455 193.116a4.852 4.852 0 0 0-4.828-4.876h-215.5a4.852 4.852 0 0 0-4.831 4.876v130.62h225.159z" class="cls-4" data-name="Path 1034" transform="translate(-166.443 -142.305)"/>
        <path id="Path_1035" d="M222.3 638.24v15.3a4.831 4.831 0 0 0 4.831 4.831h215.5a4.831 4.831 0 0 0 4.828-4.831v-15.3z" class="cls-2" data-name="Path 1035" transform="translate(-166.443 -458.107)"/>
        <path id="Rectangle_827" d="M0 0h207.634v117.423H0z" class="cls-1" data-name="Rectangle 827" transform="translate(65.176 54.136)"/>
        <path id="Path_1036" d="M591.736 662.645a5.037 5.037 0 0 0 3.96-1.921 5.14 5.14 0 0 0 .391-.576l-2.762-.453 2.982.024a5.025 5.025 0 0 0 .1-3.99l-4.005 2.088 3.695-2.714a5.031 5.031 0 1 0-8.311 5.63 5.031 5.031 0 0 0 3.95 1.912z" class="cls-4" data-name="Path 1036" transform="translate(-422.183 -468.189)"/>
        <path id="Path_1037" d="M585.43 671.52l23.2 23.3-3.558-23.3z" class="cls-3" data-name="Path 1037" transform="translate(-410.844 -471.257)"/>
        <rect id="Rectangle_828" width="136.286" height="81.712" class="cls-5" data-name="Rectangle 828" rx="2.6" transform="translate(71.275 75.322)"/>
        <path id="Rectangle_829" d="M0 0h207.56v6.859H0z" class="cls-5" data-name="Rectangle 829" transform="translate(65.31 54.148)"/>
        <rect id="Rectangle_830" width="5.964" height="4.175" class="cls-6" data-name="Rectangle 830" rx=".78" transform="translate(66.205 55.341)"/>
        <rect id="Rectangle_831" width="62.626" height="4.175" class="cls-7" data-name="Rectangle 831" rx=".58" transform="translate(137.181 55.341)"/>
        <path id="Path_1038" d="M693.17 223.315h-.152l-.057-.048a1.268 1.268 0 0 0 .3-.811 1.235 1.235 0 1 0-1.232 1.244 1.273 1.273 0 0 0 .811-.3l.057.048v.155l.954.954.3-.3zm-1.145 0a.862.862 0 1 1 .859-.859.853.853 0 0 1-.859.859z" class="cls-8" data-name="Path 1038" transform="translate(-495.221 -165.457)"/>
        <circle id="Ellipse_74" cx="2.088" cy="2.088" r="2.088" class="cls-6" data-name="Ellipse 74" transform="translate(267.8 55.341)"/>
        <rect id="Rectangle_832" width="19.384" height="13.122" class="cls-5" data-name="Rectangle 832" rx="2.43" transform="translate(217.402 68.463)"/>
        <rect id="Rectangle_833" width="25.05" height="2.088" class="cls-5" data-name="Rectangle 833" rx=".61" transform="translate(241.855 68.463)"/>
        <rect id="Rectangle_834" width="25.05" height="2.088" class="cls-5" data-name="Rectangle 834" rx=".61" transform="translate(241.855 72.936)"/>
        <rect id="Rectangle_835" width="25.05" height="2.088" class="cls-5" data-name="Rectangle 835" rx=".61" transform="translate(241.855 77.409)"/>
        <rect id="Rectangle_836" width="19.384" height="13.122" class="cls-5" data-name="Rectangle 836" rx="2.43" transform="translate(217.402 89.04)"/>
        <rect id="Rectangle_837" width="25.05" height="2.088" class="cls-5" data-name="Rectangle 837" rx=".61" transform="translate(241.855 89.04)"/>
        <rect id="Rectangle_838" width="25.05" height="2.088" class="cls-5" data-name="Rectangle 838" rx=".61" transform="translate(241.855 93.513)"/>
        <rect id="Rectangle_839" width="25.05" height="2.088" class="cls-5" data-name="Rectangle 839" rx=".66" transform="translate(241.855 97.986)"/>
        <rect id="Rectangle_840" width="19.384" height="13.122" class="cls-5" data-name="Rectangle 840" rx="2.43" transform="translate(217.402 109.617)"/>
        <rect id="Rectangle_841" width="25.05" height="2.088" class="cls-5" data-name="Rectangle 841" rx=".66" transform="translate(241.855 109.617)"/>
        <rect id="Rectangle_842" width="25.05" height="2.088" class="cls-5" data-name="Rectangle 842" rx=".66" transform="translate(241.855 114.09)"/>
        <rect id="Rectangle_843" width="25.05" height="2.088" class="cls-5" data-name="Rectangle 843" rx=".66" transform="translate(241.855 118.563)"/>
        <rect id="Rectangle_844" width="19.384" height="13.122" class="cls-5" data-name="Rectangle 844" rx="2.43" transform="translate(217.402 130.194)"/>
        <rect id="Rectangle_845" width="25.05" height="2.088" class="cls-5" data-name="Rectangle 845" rx=".66" transform="translate(241.855 130.194)"/>
        <rect id="Rectangle_846" width="25.05" height="2.088" class="cls-5" data-name="Rectangle 846" rx=".66" transform="translate(241.855 134.667)"/>
        <rect id="Rectangle_847" width="25.05" height="2.088" class="cls-5" data-name="Rectangle 847" rx=".66" transform="translate(241.855 139.14)"/>
        <rect id="Rectangle_848" width="19.384" height="13.122" class="cls-5" data-name="Rectangle 848" rx="2.43" transform="translate(217.402 150.771)"/>
        <rect id="Rectangle_849" width="25.05" height="2.088" class="cls-5" data-name="Rectangle 849" rx=".66" transform="translate(241.855 150.771)"/>
        <rect id="Rectangle_850" width="25.05" height="2.088" class="cls-5" data-name="Rectangle 850" rx=".66" transform="translate(241.855 155.244)"/>
        <rect id="Rectangle_851" width="25.05" height="2.088" class="cls-5" data-name="Rectangle 851" rx=".66" transform="translate(241.855 159.717)"/>
        <path id="Rectangle_852" d="M0 0h30.666v1.59H0z" class="cls-1" data-name="Rectangle 852" transform="translate(90.933 96.975)"/>
        <path id="Rectangle_853" d="M0 0h2.952v8.404H0z" class="cls-1" data-name="Rectangle 853" transform="translate(93.659 88.571)"/>
        <path id="Rectangle_854" d="M0 0h2.952v8.404H0z" class="cls-1" data-name="Rectangle 854" transform="translate(97.974 88.571)"/>
        <path id="Rectangle_855" d="M0 0h2.952v8.404H0z" class="cls-1" data-name="Rectangle 855" transform="translate(102.289 88.571)"/>
        <path id="Rectangle_856" d="M0 0h2.952v8.404H0z" class="cls-1" data-name="Rectangle 856" transform="translate(106.605 88.571)"/>
        <path id="Rectangle_857" d="M0 0h2.952v8.404H0z" class="cls-1" data-name="Rectangle 857" transform="translate(110.92 88.571)"/>
        <path id="Rectangle_858" d="M0 0h2.952v8.404H0z" class="cls-1" data-name="Rectangle 858" transform="translate(115.238 88.571)"/>
        <path id="Rectangle_859" d="M0 0h2.952v.91H0z" class="cls-1" data-name="Rectangle 859" transform="translate(93.659 90.161)"/>
        <path id="Rectangle_860" d="M0 0h2.952v.91H0z" class="cls-1" data-name="Rectangle 860" transform="translate(97.974 90.161)"/>
        <path id="Rectangle_861" d="M0 0h2.952v.91H0z" class="cls-1" data-name="Rectangle 861" transform="translate(102.289 90.161)"/>
        <path id="Rectangle_862" d="M0 0h2.952v.91H0z" class="cls-1" data-name="Rectangle 862" transform="translate(106.605 90.161)"/>
        <path id="Rectangle_863" d="M0 0h2.952v.91H0z" class="cls-1" data-name="Rectangle 863" transform="translate(110.92 90.161)"/>
        <path id="Rectangle_864" d="M0 0h2.952v.91H0z" class="cls-1" data-name="Rectangle 864" transform="translate(115.238 90.161)"/>
        <path id="Rectangle_865" d="M0 0h2.952v.91H0z" class="cls-1" data-name="Rectangle 865" transform="translate(93.659 94.249)"/>
        <path id="Rectangle_866" d="M0 0h2.952v.91H0z" class="cls-1" data-name="Rectangle 866" transform="translate(97.974 94.249)"/>
        <path id="Rectangle_867" d="M0 0h2.952v.91H0z" class="cls-1" data-name="Rectangle 867" transform="translate(102.289 94.249)"/>
        <path id="Rectangle_868" d="M0 0h2.952v.91H0z" class="cls-1" data-name="Rectangle 868" transform="translate(106.605 94.249)"/>
        <path id="Rectangle_869" d="M0 0h2.952v.91H0z" class="cls-1" data-name="Rectangle 869" transform="translate(110.92 94.249)"/>
        <path id="Rectangle_870" d="M0 0h2.952v.91H0z" class="cls-1" data-name="Rectangle 870" transform="translate(115.238 94.249)"/>
        <path id="Rectangle_871" d="M0 0h30.666v1.59H0z" class="cls-1" data-name="Rectangle 871" transform="translate(158.167 101.064)"/>
        <path id="Rectangle_872" d="M0 0h2.952v8.404H0z" class="cls-1" data-name="Rectangle 872" transform="translate(160.892 92.66)"/>
        <path id="Rectangle_873" d="M0 0h2.952v8.404H0z" class="cls-1" data-name="Rectangle 873" transform="translate(165.207 92.66)"/>
        <path id="Rectangle_874" d="M0 0h2.952v8.404H0z" class="cls-1" data-name="Rectangle 874" transform="translate(169.523 92.66)"/>
        <path id="Rectangle_875" d="M0 0h2.952v8.404H0z" class="cls-1" data-name="Rectangle 875" transform="translate(173.841 92.66)"/>
        <path id="Rectangle_876" d="M0 0h2.952v8.404H0z" class="cls-1" data-name="Rectangle 876" transform="translate(178.156 92.66)"/>
        <path id="Rectangle_877" d="M0 0h2.952v8.404H0z" class="cls-1" data-name="Rectangle 877" transform="translate(182.471 92.66)"/>
        <path id="Rectangle_878" d="M0 0h2.952v.91H0z" class="cls-1" data-name="Rectangle 878" transform="translate(160.892 94.249)"/>
        <path id="Rectangle_879" d="M0 0h2.952v.91H0z" class="cls-1" data-name="Rectangle 879" transform="translate(165.207 94.249)"/>
        <path id="Rectangle_880" d="M0 0h2.952v.91H0z" class="cls-1" data-name="Rectangle 880" transform="translate(169.523 94.249)"/>
        <path id="Rectangle_881" d="M0 0h2.952v.91H0z" class="cls-1" data-name="Rectangle 881" transform="translate(173.841 94.249)"/>
        <path id="Rectangle_882" d="M0 0h2.952v.91H0z" class="cls-1" data-name="Rectangle 882" transform="translate(178.156 94.249)"/>
        <path id="Rectangle_883" d="M0 0h2.952v.91H0z" class="cls-1" data-name="Rectangle 883" transform="translate(182.471 94.249)"/>
        <path id="Rectangle_884" d="M0 0h2.952v.91H0z" class="cls-1" data-name="Rectangle 884" transform="translate(160.892 98.338)"/>
        <path id="Rectangle_885" d="M0 0h2.952v.91H0z" class="cls-1" data-name="Rectangle 885" transform="translate(165.207 98.338)"/>
        <path id="Rectangle_886" d="M0 0h2.952v.91H0z" class="cls-1" data-name="Rectangle 886" transform="translate(169.523 98.338)"/>
        <path id="Rectangle_887" d="M0 0h2.952v.91H0z" class="cls-1" data-name="Rectangle 887" transform="translate(173.841 98.338)"/>
        <path id="Rectangle_888" d="M0 0h2.952v.91H0z" class="cls-1" data-name="Rectangle 888" transform="translate(178.156 98.338)"/>
        <path id="Rectangle_889" d="M0 0h2.952v.91H0z" class="cls-1" data-name="Rectangle 889" transform="translate(182.471 98.338)"/>
        <path id="Rectangle_890" d="M0 0h30.666v1.59H0z" class="cls-1" data-name="Rectangle 890" transform="translate(158.167 112.647)"/>
        <path id="Rectangle_891" d="M0 0h2.952v8.404H0z" class="cls-1" data-name="Rectangle 891" transform="translate(160.892 104.243)"/>
        <path id="Rectangle_892" d="M0 0h2.952v8.404H0z" class="cls-1" data-name="Rectangle 892" transform="translate(165.207 104.243)"/>
        <path id="Rectangle_893" d="M0 0h2.952v8.404H0z" class="cls-1" data-name="Rectangle 893" transform="translate(169.523 104.243)"/>
        <path id="Rectangle_894" d="M0 0h2.952v8.404H0z" class="cls-1" data-name="Rectangle 894" transform="translate(173.841 104.243)"/>
        <path id="Rectangle_895" d="M0 0h2.952v8.404H0z" class="cls-1" data-name="Rectangle 895" transform="translate(178.156 104.243)"/>
        <path id="Rectangle_896" d="M0 0h2.952v8.404H0z" class="cls-1" data-name="Rectangle 896" transform="translate(182.471 104.243)"/>
        <path id="Rectangle_897" d="M0 0h2.952v.91H0z" class="cls-1" data-name="Rectangle 897" transform="translate(160.892 105.832)"/>
        <path id="Rectangle_898" d="M0 0h2.952v.91H0z" class="cls-1" data-name="Rectangle 898" transform="translate(165.207 105.832)"/>
        <path id="Rectangle_899" d="M0 0h2.952v.91H0z" class="cls-1" data-name="Rectangle 899" transform="translate(169.523 105.832)"/>
        <path id="Rectangle_900" d="M0 0h2.952v.91H0z" class="cls-1" data-name="Rectangle 900" transform="translate(173.841 105.832)"/>
        <path id="Rectangle_901" d="M0 0h2.952v.91H0z" class="cls-1" data-name="Rectangle 901" transform="translate(178.156 105.832)"/>
        <path id="Rectangle_902" d="M0 0h2.952v.91H0z" class="cls-1" data-name="Rectangle 902" transform="translate(182.471 105.832)"/>
        <path id="Rectangle_903" d="M0 0h2.952v.91H0z" class="cls-1" data-name="Rectangle 903" transform="translate(160.892 109.921)"/>
        <path id="Rectangle_904" d="M0 0h2.952v.91H0z" class="cls-1" data-name="Rectangle 904" transform="translate(165.207 109.921)"/>
        <path id="Rectangle_905" d="M0 0h2.952v.91H0z" class="cls-1" data-name="Rectangle 905" transform="translate(169.523 109.921)"/>
        <path id="Rectangle_906" d="M0 0h2.952v.91H0z" class="cls-1" data-name="Rectangle 906" transform="translate(173.841 109.921)"/>
        <path id="Rectangle_907" d="M0 0h2.952v.91H0z" class="cls-1" data-name="Rectangle 907" transform="translate(178.156 109.921)"/>
        <path id="Rectangle_908" d="M0 0h2.952v.91H0z" class="cls-1" data-name="Rectangle 908" transform="translate(182.471 109.921)"/>
        <path id="Path_1039" d="M398.929 388.887a8.491 8.491 0 0 1-.626-.922l4.417-.725-4.771.036a8.07 8.07 0 0 1-.155-6.376l6.4 3.316-5.908-4.342a8.052 8.052 0 1 1 13.292 9.006 7.826 7.826 0 0 1 .919 1.467l-5.732 2.982 6.111-2.049a8.052 8.052 0 0 1-1.3 7.548 8.052 8.052 0 1 1-12.644 0 8.052 8.052 0 0 1 0-9.952z" class="cls-1" data-name="Path 1039" transform="translate(-289.185 -273.938)"/>
        <path id="Path_1040" d="M413.3 436.061a8.02 8.02 0 0 1-1.724 4.969 8.052 8.052 0 1 1-12.644 0c-1.087-1.364 14.368-5.873 14.368-4.969z" class="cls-1" data-name="Path 1040" transform="translate(-289.183 -316.138)"/>
        <path id="Path_1041" d="M421.446 498.483a.761.761 0 0 1 .039.066h-2.732c.015-.021.024-.045.039-.066a2.645 2.645 0 0 1-.352-1.345 2.761 2.761 0 0 1 .164-.948c.152.024.34.051.558.075a9.572 9.572 0 0 0 1.906 0q.274-.027.564-.072a.027.027 0 0 0 0 .015 2.684 2.684 0 0 1 .161.933 2.646 2.646 0 0 1-.347 1.342z" class="cls-9" data-name="Path 1041" transform="translate(-304.09 -358.419)"/>
        <path id="Path_1042" d="M344.929 434.03h-15.21a3.504 3.504 0 0 1-.089-.268 8.007 8.007 0 0 1 .176-5.261 8.052 8.052 0 0 1-2.937-9.51 7.705 7.705 0 0 1-.869-.691l4-2-4.551 1.443a8.052 8.052 0 0 1-2.028-6.045l7.1 1.282-6.925-2.407a8.052 8.052 0 1 1 15.355 4.682 8.157 8.157 0 0 1 1.321 1.148l-4.6 4.536 5.234-3.764a8.052 8.052 0 0 1 .99 7.6 8.052 8.052 0 0 1 3.033 9.255z" class="cls-1" data-name="Path 1042" transform="translate(-237.391 -293.899)"/>
        <path id="Path_1043" d="M358.749 469.777H343.54a3.504 3.504 0 0 1-.089-.268 8.007 8.007 0 0 1 .176-5.261c-1.431-.99 12-9.862 12.263-9a8.016 8.016 0 0 1-.176 5.264 8.052 8.052 0 0 1 3.035 9.265z" class="cls-1" data-name="Path 1043" transform="translate(-251.211 -329.646)"/>
        <path id="Path_1044" d="M567.583 438.916a8.022 8.022 0 0 1-4.029 3.388 8.174 8.174 0 0 1 .033 1.73l-6.445-.388 6.3 1.366a8.052 8.052 0 0 1-.96 2.433 7.924 7.924 0 0 1-2.147 2.356h-8.774v.23h-8.951c.018-.078.036-.152.057-.23a8.052 8.052 0 0 1 4.906-5.46 8.052 8.052 0 0 1 5.108-8.541 8.156 8.156 0 0 1-.066-1.112l4.16 1.643-4.115-2.419a8.052 8.052 0 0 1 3.158-5.541l3.79 6.137-2.842-6.758a8.052 8.052 0 0 1 10.816 11.165z" class="cls-1" data-name="Path 1044" transform="translate(-391.231 -309.682)"/>
        <path id="Path_1045" d="M562.477 487.885a7.924 7.924 0 0 1-2.147 2.356h-8.774v.23h-8.946c.018-.078.036-.152.057-.23a8.052 8.052 0 0 1 4.906-5.46c-.075-.6 1.658-.507 3.969-.119 4.53.76 11.242 2.71 10.935 3.223z" class="cls-1" data-name="Path 1045" transform="translate(-391.231 -350.111)"/>
        <path id="Path_1046" d="M476.927 423.123s1.1 5.964-1.36 7.912 2.088 13.62 9.6 12.257 10.569-11.153 10.569-11.153-7.521-1.557-4.733-9.468z" class="cls-10" data-name="Path 1046" transform="translate(-343.709 -306.824)"/>
        <path id="Path_1047" d="M476.927 423.123s1.1 5.964-1.36 7.912 2.088 13.62 9.6 12.257 10.569-11.153 10.569-11.153-7.521-1.557-4.733-9.468z" class="cls-3" data-name="Path 1047" transform="translate(-343.709 -306.824)"/>
        <circle id="Ellipse_75" cx="12.451" cy="12.451" r="12.451" class="cls-10" data-name="Ellipse 75" transform="translate(127.414 95.776)"/>
        <path id="Path_1048" d="M475.862 455.541V464H434.75v-8.079a5.213 5.213 0 0 1 3.182-4.8l1.178-.5c2.982-1.27 6.606-2.848 7.789-3.5a1.946 1.946 0 0 0 .364-.236c.647-.647.519.194.519.194s-.018.161-.03.438c-.072 1.906.2 9.394 8.979 8.771 8.562-.6 8.947-6.388 8.86-8.091a4.594 4.594 0 0 0-.039-.471 11.062 11.062 0 0 1 1.733.567 36.322 36.322 0 0 1 5.138 2.225c.221.155.489.316.781.48a5.138 5.138 0 0 1 .924.659 5.222 5.222 0 0 1 1.734 3.884z" class="cls-6" data-name="Path 1048" transform="translate(-315.537 -323.645)"/>
        <path id="Path_1049" d="M495.861 448.292c-.725 3.358-3 9.647-11.2 9.811-8.738.173-9.245-8.517-9.188-10.983a1.764 1.764 0 0 0 .367-.236c.65-.647.519.194.519.194s-1.1 9.922 8.947 9.209 8.812-8.559 8.812-8.559a12.25 12.25 0 0 1 1.743.564z" class="cls-3" data-name="Path 1049" transform="translate(-344.112 -323.645)"/>
        <path id="Path_1050" d="M452.6 351.358a2.132 2.132 0 0 1 2.246.82 4.07 4.07 0 0 1 .579 2.135c.54.113.844-.5.895-.96a24.709 24.709 0 0 1 .847-5.618 6.707 6.707 0 0 1 4.133-4.273 4.8 4.8 0 0 1 2.258-.215c.45.075.874.233 1.321.3 1.551.256 3.236-.477 4.688.033a3.738 3.738 0 0 1 1.918 1.807 3.9 3.9 0 0 0 .746 1.083 5.164 5.164 0 0 0 2.469.871 3.185 3.185 0 0 1 2.231 1.157 3.024 3.024 0 0 1-.024 2 4.9 4.9 0 0 0 .5 3.093c.164.3.5.659.895.561a.784.784 0 0 0 .423-.343c1.017-1.425.99-3.28 2.266-4.566.426-.429.978-.763 1.393-1.193a2.708 2.708 0 0 0 .722-2.457 8.069 8.069 0 0 0-1.652-2.654 10.436 10.436 0 0 1-1.768-3.671.665.665 0 0 1 0-.48 1.279 1.279 0 0 1 .453-.37 1.712 1.712 0 0 0 .579-2.186 3.645 3.645 0 0 0-2.049-1.631 13.361 13.361 0 0 0-2.794-.6 1.52 1.52 0 0 1-1.554-.766c-.086-.224-.086-.465-.173-.689a1.581 1.581 0 0 0-1.193-.835 3.489 3.489 0 0 0-1.6.113c-.6.167-1.273.417-1.789.125-.271-.152-.421-.429-.713-.555-.6-.251-1.211.256-1.637.674a3.984 3.984 0 0 1-1.476.993 2.2 2.2 0 0 1-1.831-.122 5.779 5.779 0 0 1-.939-1.008 3.537 3.537 0 0 0-2.222-.895 7.822 7.822 0 0 0-2.508.274 15.143 15.143 0 0 0-4.4 1.849 4.733 4.733 0 0 0-1.691 1.572 3.578 3.578 0 0 0-.379 1.619 5.844 5.844 0 0 0 2.043 4.852 2.877 2.877 0 0 0-1.461 2.183 11.949 11.949 0 0 0-.567 4.089 8.98 8.98 0 0 1 .155 2.126 4.579 4.579 0 0 0-.137 1.017.975.975 0 0 0 .797.741z" class="cls-11" data-name="Path 1050" transform="translate(-327.471 -242.508)"/>
        <g id="Group_121" class="cls-12" data-name="Group 121" transform="translate(124.304 93.006)">
            <path id="Path_1051" d="M541.913 378a2.911 2.911 0 0 1-.537.793c-.415.435-.966.772-1.393 1.193-1.276 1.276-1.25 3.143-2.266 4.569a.766.766 0 0 1-.423.34c-.388.1-.722-.251-.895-.561a5.132 5.132 0 0 1-.444-1.193l-.06.3a4.9 4.9 0 0 0 .5 3.093c.164.3.5.659.895.561a.784.784 0 0 0 .424-.343c1.017-1.426.99-3.28 2.266-4.566.426-.429.978-.763 1.393-1.193a2.708 2.708 0 0 0 .722-2.457 3.2 3.2 0 0 0-.185-.534z" data-name="Path 1051" transform="translate(-510.776 -368.481)"/>
            <path id="Path_1052" d="M545.738 347.628a1.25 1.25 0 0 0-.453.37.659.659 0 0 0 0 .477 10.086 10.086 0 0 0 .45 1.36 1.712 1.712 0 0 0 .579-2.186 2.088 2.088 0 0 0-.209-.349 1.717 1.717 0 0 1-.367.328z" data-name="Path 1052" transform="translate(-517.38 -346.936)"/>
            <path id="Path_1053" d="M453.883 349.536a5.529 5.529 0 0 1-1.953-3.456 4.662 4.662 0 0 0-.089.811 6.209 6.209 0 0 0 .981 3.689 2.088 2.088 0 0 1 1.062-1.044z" data-name="Path 1053" transform="translate(-451.828 -346.08)"/>
            <path id="Path_1054" d="M477.081 371.769a3.024 3.024 0 0 0 .024-2 3.174 3.174 0 0 0-2.231-1.157 5.2 5.2 0 0 1-2.469-.871 3.9 3.9 0 0 1-.746-1.083 3.693 3.693 0 0 0-1.918-1.807c-1.452-.51-3.137.221-4.688-.033-.447-.075-.871-.23-1.321-.3a4.772 4.772 0 0 0-2.258.215 6.72 6.72 0 0 0-4.133 4.273 24.662 24.662 0 0 0-.847 5.618c-.051.459-.355 1.074-.895.96a4.1 4.1 0 0 0-.579-2.138 2.132 2.132 0 0 0-2.246-.817 1.091 1.091 0 0 1-.629-.4 3.457 3.457 0 0 1 0 .823 4.581 4.581 0 0 0-.137 1.017.975.975 0 0 0 .778.766 2.132 2.132 0 0 1 2.246.82 4.07 4.07 0 0 1 .579 2.135c.54.113.844-.5.895-.96a24.709 24.709 0 0 1 .847-5.618 6.707 6.707 0 0 1 4.133-4.273 4.8 4.8 0 0 1 2.258-.215c.45.075.874.233 1.321.3 1.551.256 3.236-.477 4.688.033a3.738 3.738 0 0 1 1.918 1.807 3.9 3.9 0 0 0 .746 1.083 5.164 5.164 0 0 0 2.469.871 3.26 3.26 0 0 1 2.186 1.086.257.257 0 0 1 .009-.135z" data-name="Path 1054" transform="translate(-451.953 -358.987)"/>
            <path id="Path_1055" d="M452 381.921a5.665 5.665 0 0 0-.1-1.661 7.4 7.4 0 0 0-.057 1.742 3.171 3.171 0 0 0 .054.444c.036-.176.081-.346.103-.525z" data-name="Path 1055" transform="translate(-451.819 -370.067)"/>
        </g>
        <path id="Path_1056" d="M403.49 532.191v-5.383a.152.152 0 0 1 .152-.152h.611a.152.152 0 0 1 .152.152v2.24l2.481-2.3a.406.406 0 0 1 .665.3v4.876a.406.406 0 0 1-.665.3l-2.481-2.284v2.228a.152.152 0 0 1-.152.152h-.611a.152.152 0 0 1-.152-.129z" class="cls-8" data-name="Path 1056" transform="translate(-293.599 -379.798)"/>
        <path id="Path_1057" d="M594.983 526.831v5.383a.152.152 0 0 1-.155.152h-.6a.152.152 0 0 1-.152-.152v-2.24l-2.481 2.3a.409.409 0 0 1-.668-.3v-4.894a.409.409 0 0 1 .668-.3l2.481 2.284v-2.224a.152.152 0 0 1 .152-.152h.6a.152.152 0 0 1 .155.143z" class="cls-8" data-name="Path 1057" transform="translate(-425.141 -379.821)"/>
        <path id="Path_1058" d="M496.35 532.708h-1.214a.6.6 0 0 1-.6-.6v-4.455a.6.6 0 0 1 .6-.6h1.214a.6.6 0 0 1 .6.6v4.455a.6.6 0 0 1-.6.6zm3.847-.6v-4.455a.6.6 0 0 0-.6-.6h-1.226a.6.6 0 0 0-.6.6v4.455a.6.6 0 0 0 .6.6h1.214a.6.6 0 0 0 .608-.6z" class="cls-8" data-name="Path 1058" transform="translate(-357.496 -380.083)"/>
        <path id="Rectangle_909" d="M0 0h71.572v.796H0z" class="cls-13" data-name="Rectangle 909" transform="translate(104.079 139.755)"/>
        <circle id="Ellipse_76" cx="1.888" cy="1.888" r="1.888" class="cls-8" data-name="Ellipse 76" transform="translate(124.292 138.263)"/>
        <path id="Rectangle_910" d="M0 0h22.101v.796H0z" class="cls-8" data-name="Rectangle 910" transform="translate(104.079 139.755)"/>
        <ellipse id="Ellipse_77" cx="17.735" cy="3.412" class="cls-6" data-name="Ellipse 77" rx="17.735" ry="3.412" transform="translate(267.684 222.802)"/>
        <ellipse id="Ellipse_78" cx="2.064" cy="2.702" class="cls-14" data-name="Ellipse 78" rx="2.064" ry="2.702" transform="translate(283.06 222.063)"/>
        <ellipse id="Ellipse_79" cx="2.064" cy="2.702" class="cls-14" data-name="Ellipse 79" rx="2.064" ry="2.702" transform="translate(283.06 218.759)"/>
        <ellipse id="Ellipse_80" cx="2.064" cy="2.702" class="cls-14" data-name="Ellipse 80" rx="2.064" ry="2.702" transform="translate(283.06 215.457)"/>
        <ellipse id="Ellipse_81" cx="2.064" cy="2.702" class="cls-14" data-name="Ellipse 81" rx="2.064" ry="2.702" transform="translate(283.06 212.153)"/>
        <ellipse id="Ellipse_82" cx="2.064" cy="2.702" class="cls-14" data-name="Ellipse 82" rx="2.064" ry="2.702" transform="translate(283.06 208.849)"/>
        <ellipse id="Ellipse_83" cx="2.064" cy="2.702" class="cls-14" data-name="Ellipse 83" rx="2.064" ry="2.702" transform="translate(283.06 205.544)"/>
        <ellipse id="Ellipse_84" cx="2.064" cy="2.702" class="cls-14" data-name="Ellipse 84" rx="2.064" ry="2.702" transform="translate(283.06 202.24)"/>
        <path id="Path_1059" d="M975.431 607.956a10.214 10.214 0 0 0 .769-1.133l-5.428-.895 5.869.045a9.922 9.922 0 0 0 .188-7.837l-7.867 4.086 7.259-5.335a9.892 9.892 0 1 0-16.336 11.07 10.1 10.1 0 0 0-1.127 1.789l7.042 3.654-7.509-2.52a9.9 9.9 0 0 0 1.592 9.286 9.889 9.889 0 1 0 15.549 0 9.9 9.9 0 0 0 0-12.227z" class="cls-6" data-name="Path 1059" transform="translate(-682.58 -425.619)"/>
        <path id="Path_1060" d="M957.78 665.788a9.841 9.841 0 0 0 2.114 6.113 9.889 9.889 0 1 0 15.549 0c1.324-1.679-17.663-7.223-17.663-6.113z" class="cls-3" data-name="Path 1060" transform="translate(-682.589 -477.337)"/>
        <ellipse id="Ellipse_85" cx="29.524" cy="6.263" class="cls-1" data-name="Ellipse 85" rx="29.524" ry="6.263" transform="translate(56.96 235.465)"/>
        <path id="Path_1061" d="M301.615 565.023a7.769 7.769 0 0 0-1.858-.25 5.75 5.75 0 0 1-3.418-1.658 6.263 6.263 0 0 1-1.366-2.087c.2.072.394.146.6.227-.6-1.393.03-2.955.579-4.363q1.4-3.579 2.639-7.2c2.088-6.11 3.877-12.466 3.838-18.967 0-2.35-.432-4.572-.516-6.919-.063-1.742.206-3.48.194-5.225 0-.245 0-.486-.018-.731a4.631 4.631 0 0 0 1.572-3.775 9.093 9.093 0 0 0-.158-1.1 17.807 17.807 0 0 0-.418-1.867c-.2-.647-.465-1.267-.695-1.9-.444-1.226-.746-2.5-1.124-3.749a1.291 1.291 0 0 1 .406.11.874.874 0 0 1-.191-.391 9.664 9.664 0 0 1-.358-2.436l.253-.113a6.343 6.343 0 0 0-.122-2.413c.143-1.279.367-2.568.5-3.841.051-.477.03-1.077-.409-1.193-.089-.683-.125-1.375-.161-2.064q-.188-3.605-.373-7.208c-.125-2.413-.251-4.822-.3-7.238a21.128 21.128 0 0 0-.415-4.587 5.546 5.546 0 0 0-.212-2.088 4.278 4.278 0 0 0-4.026-3.051 8.009 8.009 0 0 0-1.906-1.927c.349-.781.766-1.587 1.109-2.219a7.23 7.23 0 0 0 4.843-6.948 7.584 7.584 0 0 0-.82-3.456 3.734 3.734 0 0 0 .131-.4 3.307 3.307 0 0 0-.134-1.935 5.658 5.658 0 0 0-.3-.692 7.823 7.823 0 0 0-.247-.441l-.152-.23a4.3 4.3 0 0 0-.3-.406 9.883 9.883 0 0 0-.68-.817 6.732 6.732 0 0 0-.978-.871 4.312 4.312 0 0 0-1.61-.743 4.911 4.911 0 0 0-1.023-.092c-.206 0-.415 0-.62.018-.418.024-.832.054-1.247.051a2.759 2.759 0 0 1-.415-.021 15.093 15.093 0 0 1-2.159-.45l-.358-.075a5.11 5.11 0 0 0-.364-.06 6.83 6.83 0 0 0-.987-.06h-.331a9.15 9.15 0 0 0-.987.1l-.328.051a9.425 9.425 0 0 0-2.4.713c-.1.045-.2.1-.3.149l-.06.033a3.736 3.736 0 0 0-.239.134l-.045.027-.253.161-.021.015c-2.368 1.593-3.767 4.61-4.121 7.6-.4 3.361.3 6.749.993 10.056l.626 2.982c.027.134.057.265.083.4a6.561 6.561 0 0 0-1.965 2.726 11.634 11.634 0 0 0-.564 4.721c0 .328.018.656.051.984-.075.62-.14 1.244-.182 1.87-.188 2.893.164 5.8.072 8.7a63.687 63.687 0 0 0-.245 6.692 30.212 30.212 0 0 0 1.193 5.776l.752 2.708a.718.718 0 0 0 .188.373.566.566 0 0 0 .42.086 25.385 25.385 0 0 0-1.223 3.424 10.586 10.586 0 0 0-.441 2.2 13.447 13.447 0 0 0 .534 4.05q.716 2.982 1.426 5.988l1 4.2a44.774 44.774 0 0 1 1.437 8.383 18.206 18.206 0 0 1-.3 4.262 37.135 37.135 0 0 0-.37 12.773 62.627 62.627 0 0 0 2.413 10.56c.242-.128.486-.248.737-.358l-.1.194q-.516.895-.954 1.834a10.435 10.435 0 0 0-.51 1.255 14.132 14.132 0 0 0-.5 3.719 1.82 1.82 0 0 0 .063.719 1.493 1.493 0 0 0 1.074.805 9.806 9.806 0 0 0 3.966.063.483.483 0 0 0 .027.086 1.487 1.487 0 0 0 1.074.805c1.843.525 3.787.03 5.687-.149a39.772 39.772 0 0 0 5.595-.486 2.665 2.665 0 0 0 .775-.3 2.538 2.538 0 0 0 .978-1.357 1.738 1.738 0 0 0 .113-.444 1.511 1.511 0 0 0-1.064-1.432zm-6.307-27.623a7.517 7.517 0 0 1-.6 2.022 38.588 38.588 0 0 0-3.06 9.594 44.476 44.476 0 0 0-.677 6.635 11.954 11.954 0 0 1-.65 4.831l.248-.039c-.078.143-.152.3-.224.411l-.036.066a6.466 6.466 0 0 1-.814-2.284c0-.027-.134-.048-.34-.06a61.711 61.711 0 0 1-.871-14.282 6.612 6.612 0 0 1 .239-1.715c.152-.48.409-.919.6-1.384a10.164 10.164 0 0 0 .6-2.427 34.488 34.488 0 0 0 .376-6.418 26.622 26.622 0 0 1 .8-6.054c.191-.957.367-1.918.462-2.878l.018-.194a28.888 28.888 0 0 1 3.662 9.507 13.6 13.6 0 0 1 .267 4.669zm-12.764-43.1l.1.083a6.558 6.558 0 0 1 .793.832 1.1 1.1 0 0 1 .251.459c.089.435-.271.805-.567 1.124a5.068 5.068 0 0 0-.361.435l-.2-2.934z" class="cls-15" data-name="Path 1061" transform="translate(-205.245 -324.023)"/>
        <path id="Path_1062" d="M278.385 542.53l-.328 2.532c-.11.859-.221 1.715-.28 2.577-.2 2.869.17 5.75.075 8.624a59.454 59.454 0 0 0-.259 6.632 28.121 28.121 0 0 0 1.261 5.726l.787 2.684a.71.71 0 0 0 .2.37.7.7 0 0 0 .5.081l3.5-.316c-.224-1.026-.471-2.088-.6-3.14-.1-.823-.152-1.652-.212-2.481-.185-2.583-.4-5.165-.6-7.754l-.373-4.533a34.192 34.192 0 0 0-.817-5.857 11.657 11.657 0 0 0-2.854-5.145z" class="cls-6" data-name="Path 1062" transform="translate(-205.214 -390.939)"/>
        <path id="Path_1063" d="M278.385 542.53l-.328 2.532c-.11.859-.221 1.715-.28 2.577-.2 2.869.17 5.75.075 8.624a59.454 59.454 0 0 0-.259 6.632 28.121 28.121 0 0 0 1.261 5.726l.787 2.684a.71.71 0 0 0 .2.37.7.7 0 0 0 .5.081l3.5-.316c-.224-1.026-.471-2.088-.6-3.14-.1-.823-.152-1.652-.212-2.481-.185-2.583-.4-5.165-.6-7.754l-.373-4.533a34.192 34.192 0 0 0-.817-5.857 11.657 11.657 0 0 0-2.854-5.145z" class="cls-3" data-name="Path 1063" transform="translate(-205.214 -390.939)"/>
        <path id="Path_1064" d="M298.73 824.16a10.68 10.68 0 0 0-.537 1.247 13.421 13.421 0 0 0-.519 3.686 1.789 1.789 0 0 0 .066.713 1.554 1.554 0 0 0 1.13.8c1.935.522 3.975.033 5.964-.146a44.888 44.888 0 0 0 5.875-.48 3 3 0 0 0 .814-.283 2.538 2.538 0 0 0 1.029-1.342 1.754 1.754 0 0 0 .116-.441 1.524 1.524 0 0 0-1.127-1.437 8.5 8.5 0 0 0-1.95-.248 6.143 6.143 0 0 1-5.44-5.132 13.509 13.509 0 0 0-3.579.128 2.992 2.992 0 0 0-.856 1.124q-.526.881-.986 1.811z" class="cls-16" data-name="Path 1064" transform="translate(-219.332 -586.378)"/>
        <path id="Path_1065" d="M298.73 824.16a10.68 10.68 0 0 0-.537 1.247 13.421 13.421 0 0 0-.519 3.686 1.789 1.789 0 0 0 .066.713 1.554 1.554 0 0 0 1.13.8c1.935.522 3.975.033 5.964-.146a44.888 44.888 0 0 0 5.875-.48 3 3 0 0 0 .814-.283 2.538 2.538 0 0 0 1.029-1.342 1.754 1.754 0 0 0 .116-.441 1.524 1.524 0 0 0-1.127-1.437 8.5 8.5 0 0 0-1.95-.248 6.143 6.143 0 0 1-5.44-5.132 13.509 13.509 0 0 0-3.579.128 2.992 2.992 0 0 0-.856 1.124q-.526.881-.986 1.811z" class="cls-3" data-name="Path 1065" transform="translate(-219.332 -586.378)"/>
        <path id="Path_1066" d="M316.578 827.3a10.142 10.142 0 0 0-.537 1.244 13.276 13.276 0 0 0-.519 3.686 1.738 1.738 0 0 0 .066.713 1.554 1.554 0 0 0 1.127.8c1.935.519 3.978.03 5.964-.149a44.887 44.887 0 0 0 5.875-.48 2.87 2.87 0 0 0 .814-.3 2.526 2.526 0 0 0 1.029-1.342 1.752 1.752 0 0 0 .116-.441 1.527 1.527 0 0 0-1.127-1.437 8.669 8.669 0 0 0-1.95-.247A6.146 6.146 0 0 1 322 824.22a13.5 13.5 0 0 0-3.579.125 2.97 2.97 0 0 0-.859 1.124 40.974 40.974 0 0 0-.984 1.831z" class="cls-16" data-name="Path 1066" transform="translate(-231.857 -588.573)"/>
        <path id="Path_1067" d="M306.014 657.147c.042 6.445-1.831 12.743-4.029 18.788q-1.306 3.6-2.77 7.13c-.579 1.4-1.232 2.946-.611 4.324a10.468 10.468 0 0 0-5.49-.766 11.237 11.237 0 0 0 .68-4.771 41.838 41.838 0 0 1 .7-6.576 36.68 36.68 0 0 1 3.218-9.51 7.246 7.246 0 0 0 .623-2 12.8 12.8 0 0 0-.265-4.625 27.577 27.577 0 0 0-3.847-9.424l-.018.191a27.813 27.813 0 0 1-.483 2.854 24.963 24.963 0 0 0-.838 6 32.454 32.454 0 0 1-.394 6.361 9.673 9.673 0 0 1-.641 2.4c-.206.462-.474.895-.635 1.375a6.263 6.263 0 0 0-.25 1.7 57.644 57.644 0 0 0 .99 14.535 9.231 9.231 0 0 0-4.807 1.094 59.208 59.208 0 0 1-2.535-10.467A34.779 34.779 0 0 1 285 663.1a16.826 16.826 0 0 0 .313-4.22 42.127 42.127 0 0 0-1.509-8.311l-1.05-4.175q-.746-2.982-1.491-5.937a12.623 12.623 0 0 1-.561-4.014 9.959 9.959 0 0 1 .465-2.183 24.362 24.362 0 0 1 3.3-6.752 130.975 130.975 0 0 0 17.3-.656 1.16 1.16 0 0 1 .811.137 1.148 1.148 0 0 1 .328.74l2.156 12.227a30.717 30.717 0 0 1 .611 5.159c0 1.73-.268 3.453-.2 5.18.088 2.322.527 4.523.541 6.852z" class="cls-11" data-name="Path 1067" transform="translate(-207.417 -450.097)"/>
        <path id="Path_1068" d="M309.727 681.7a27.816 27.816 0 0 1-.483 2.854c-1.25-2.162-2.6-4.271-3.749-6.486-.3-.57-.579-1.148-.862-1.727l-.85-1.73c-.158-.325-.316-.65-.459-.981a7.091 7.091 0 0 1-.534-1.491c.417-.078 1.449 1.05 1.759 1.345a24.052 24.052 0 0 1 1.789 1.98 21.711 21.711 0 0 1 1.867 2.445 11.892 11.892 0 0 1 1.521 3.79z" class="cls-3" data-name="Path 1068" transform="translate(-222.93 -481.895)"/>
        <path id="Path_1069" d="M312.33 499.137s-3.191 5.085-2.6 6.149-10.05-.945-10.05-.945 5.794-5.085 5.2-7.214 7.45 2.01 7.45 2.01z" class="cls-17" data-name="Path 1069" transform="translate(-220.747 -358.649)"/>
        <circle id="Ellipse_86" cx="7.214" cy="7.214" r="7.214" class="cls-17" data-name="Ellipse 86" transform="translate(81.533 127.599)"/>
        <path id="Path_1070" d="M297.739 514.685a7.324 7.324 0 0 0-3.033-2.439 10.849 10.849 0 0 0-2.156-.531l-2.878-.507a3.665 3.665 0 0 0-2.114.048 3.465 3.465 0 0 0-.895.659 11.925 11.925 0 0 1-3.224 2.481c-.343.146-.7.253-1.044.4a6.025 6.025 0 0 0-3.048 3.28 10.945 10.945 0 0 0-.6 4.676 8.218 8.218 0 0 0 .164 1.646 10.606 10.606 0 0 0 .546 1.509 27.612 27.612 0 0 1 1 3.2q1.118 4.279 1.861 8.648a3.242 3.242 0 0 0 .361 1.193 4.283 4.283 0 0 0 1 .957 6.217 6.217 0 0 1 .832.826 1.079 1.079 0 0 1 .271.441c.092.429-.3.8-.6 1.112a5.386 5.386 0 0 0-1.348 2.347.945.945 0 0 0-.215.647 1.133 1.133 0 0 1 .069.513 1.158 1.158 0 0 1-.271.42 1.59 1.59 0 0 0-.3 1.276 20.247 20.247 0 0 0 7.062 1.652c.6.03 1.193.03 1.789.1.423.054.841.14 1.264.191a13.658 13.658 0 0 0 1.849.048c3.212-.066 6.516-.146 9.465-1.42.277-1.512-.322-3.054-.7-4.545-.6-2.386-.746-4.828-1.193-7.235-.3-1.643-.746-3.263-1-4.918a12.022 12.022 0 0 1 .143-4.98c.4-1.425.525-2.881.942-4.3a7.373 7.373 0 0 0 .239-4.372 4.5 4.5 0 0 0-4.238-3.023z" class="cls-6" data-name="Path 1070" transform="translate(-206.048 -368.865)"/>
        <path id="Path_1071" d="M303.069 457.541a4.332 4.332 0 0 0-1.163-3.653 6.187 6.187 0 0 0-3.432-2.407 29.262 29.262 0 0 0-3.471-.045c-1.023-.081-2.007-.45-3.024-.6a9.58 9.58 0 0 0-2.767.1 10.511 10.511 0 0 0-2.52.7c-3.072 1.363-4.87 4.721-5.287 8.052s.313 6.689 1.041 9.966l.659 2.964a58.874 58.874 0 0 1 1.554 9.34 19.817 19.817 0 0 1-1.455 9.275 19.948 19.948 0 0 0 9.164-10.375c.465-1.22.811-2.487 1.33-3.686.444-1.032 1.014-2.01 1.408-3.063a9.949 9.949 0 0 0 .629-3.719c-.024-.954-.182-1.9-.155-2.857a3.947 3.947 0 0 1 .93-2.639 8.065 8.065 0 0 1 2.171-1.291 9.039 9.039 0 0 0 3.039-2.535 2.781 2.781 0 0 0 .62-1.6 20.253 20.253 0 0 1 .729-1.927z" class="cls-16" data-name="Path 1071" transform="translate(-207.835 -326.554)"/>
        <path id="Path_1072" d="M351.816 645.806a19.142 19.142 0 0 0 .1 2.228c.122.549.406 1.044.573 1.581a7.515 7.515 0 0 1 .253 1.9c.024.537-.018 1.193-.5 1.443-.209.11-.459.11-.677.206s-.4.355-.277.558.34.17.537.209.409.242.3.406a.34.34 0 0 1-.173.11 2.112 2.112 0 0 0-.561.268.573.573 0 0 0-.23.546.337.337 0 0 0 .48.221 1.49 1.49 0 0 0-.14.6 2.727 2.727 0 0 0 2.335-.516 8.8 8.8 0 0 0 .895-.573 4.473 4.473 0 0 0 1.742-3.808 8.884 8.884 0 0 0-.17-1.089 16.379 16.379 0 0 0-.438-1.852c-.206-.641-.486-1.253-.728-1.882-.513-1.339-.844-2.741-1.309-4.1a.62.62 0 0 0-.224-.355.629.629 0 0 0-.331-.063 5.423 5.423 0 0 0-1.554.143 1.652 1.652 0 0 0-.948.6c-.14.3.083.549.218.8a6.674 6.674 0 0 1 .823 2.427z" class="cls-17" data-name="Path 1072" transform="translate(-256.574 -460.63)"/>
        <path id="Path_1073" d="M336.848 533.64a2.187 2.187 0 0 1 .382.531c1.026 1.864 1.038 4.092 1.086 6.218.054 2.386.185 4.771.316 7.172l.391 7.157c.039.683.075 1.366.173 2.043.459.116.477.713.426 1.193-.331 2.917-1.151 5.92-.3 8.726a.876.876 0 0 0 .2.388 2.329 2.329 0 0 0-1.333-.018c-.426.089-.838.248-1.267.346a2.691 2.691 0 0 0-1.527.6 29.592 29.592 0 0 1-1-3.853 14.832 14.832 0 0 0-.743-3.525c-.194-.444-.456-.856-.695-1.282a28.042 28.042 0 0 1-2.463-7.238 10.565 10.565 0 0 1-.191-3.6 12.373 12.373 0 0 0 .149-1.655 12.72 12.72 0 0 0-.23-1.742 11.675 11.675 0 0 1 .349-5.043 13.614 13.614 0 0 1 1.789-4.393 6.006 6.006 0 0 1 4.488-2.025z" class="cls-3" data-name="Path 1073" transform="translate(-242.092 -384.7)"/>
        <path id="Path_1074" d="M338.052 532.84a2.2 2.2 0 0 1 .382.534c1.026 1.861 1.038 4.092 1.086 6.218.054 2.386.185 4.771.316 7.157l.391 7.157c.039.683.075 1.366.173 2.043.459.116.477.713.423 1.193-.328 2.917-1.148 5.917-.3 8.726a.877.877 0 0 0 .2.388 2.329 2.329 0 0 0-1.333-.018c-.426.089-.838.247-1.267.343a2.712 2.712 0 0 0-1.527.6 29.287 29.287 0 0 1-.99-3.871 14.805 14.805 0 0 0-.743-3.522 14.4 14.4 0 0 0-.695-1.282 27.95 27.95 0 0 1-2.463-7.241 10.563 10.563 0 0 1-.191-3.6 7.753 7.753 0 0 0-.081-3.4 11.66 11.66 0 0 1 .349-5.04 13.613 13.613 0 0 1 1.789-4.393 5.977 5.977 0 0 1 4.481-1.992z" class="cls-6" data-name="Path 1074" transform="translate(-242.941 -384.139)"/>
        <g id="Group_122" class="cls-12" data-name="Group 122" transform="translate(75.366 124.231)">
            <path id="Path_1075" d="M311.709 453.888a6.187 6.187 0 0 0-3.432-2.407 29.262 29.262 0 0 0-3.471-.045c-1.023-.081-2.007-.45-3.024-.6a9.58 9.58 0 0 0-2.767.1 10.512 10.512 0 0 0-2.52.7 7.482 7.482 0 0 0-1.244.707 10.6 10.6 0 0 1 2.228-.6 9.543 9.543 0 0 1 2.764-.1c1.02.131 2 .5 3.027.579a29.915 29.915 0 0 1 3.471.045 6.155 6.155 0 0 1 3.43 2.41 4.328 4.328 0 0 1 1.166 3.653 20.381 20.381 0 0 0-.731 1.959 2.767 2.767 0 0 1-.623 1.6 9.059 9.059 0 0 1-2.189 2.037c.23-.107.465-.215.689-.331a9.039 9.039 0 0 0 3.039-2.535 2.781 2.781 0 0 0 .62-1.6 20.591 20.591 0 0 1 .731-1.959 4.3 4.3 0 0 0-1.164-3.613z" data-name="Path 1075" transform="translate(-293.004 -450.785)"/>
            <path id="Path_1076" d="M301.026 497.379a2.981 2.981 0 0 1 .4-.349 6.178 6.178 0 0 0-1.941 1.193 3.987 3.987 0 0 0-.93 2.639c-.036.954.134 1.9.155 2.854a9.964 9.964 0 0 1-.629 3.722c-.394 1.053-.963 2.028-1.408 3.063-.516 1.193-.862 2.463-1.327 3.683a19.98 19.98 0 0 1-7.578 9.43c-.018.039-.033.081-.051.119a19.948 19.948 0 0 0 9.164-10.375c.465-1.22.811-2.487 1.33-3.686.444-1.032 1.014-2.01 1.408-3.063a9.949 9.949 0 0 0 .629-3.719c-.024-.954-.182-1.9-.155-2.857a3.986 3.986 0 0 1 .933-2.654z" data-name="Path 1076" transform="translate(-287.72 -483.239)"/>
        </g>
    </g>
</svg>
